<svg xmlns="http://www.w3.org/2000/svg" xmlns:xlink="http://www.w3.org/1999/xlink" preserveAspectRatio="xMidYMid" width="45" height="36" viewBox="0 0 45 36">
  <defs>
    <style>
      .cls-1 {
        fill: #fff;
        fill-rule: evenodd;
      }
    </style>
  </defs>
  <path d="M8.000,36.000 L0.000,28.000 L0.000,5.000 L0.000,3.000 L11.000,3.000 L11.000,-0.000 L13.000,-0.000 L13.000,3.000 L21.000,3.000 L21.000,-0.000 L23.000,-0.000 L23.000,3.000 L32.000,3.000 L32.000,-0.000 L34.000,-0.000 L34.000,3.000 L45.000,3.000 L45.000,4.500 L45.000,34.000 L45.000,36.000 L8.000,36.000 ZM43.000,5.000 L34.000,5.000 L34.000,8.000 L32.000,8.000 L32.000,5.000 L23.000,5.000 L23.000,8.000 L21.000,8.000 L21.000,5.000 L13.000,5.000 L13.000,8.000 L11.000,8.000 L11.000,5.000 L2.000,5.000 L2.000,12.000 L43.000,12.000 L43.000,5.000 ZM43.000,14.000 L2.000,14.000 L2.000,28.000 L8.000,28.000 L8.000,34.000 L43.000,34.000 L43.000,14.000 ZM19.725,27.013 L29.437,17.900 L30.712,19.288 L19.613,29.713 L14.288,23.675 L15.675,22.438 L19.725,27.013 Z" class="cls-1"/>
</svg>
