<svg xmlns="http://www.w3.org/2000/svg" xmlns:xlink="http://www.w3.org/1999/xlink" preserveAspectRatio="xMidYMid" width="41" height="81" viewBox="0 0 41 81">
  <defs>
    <style>
      .cls-1 {
        fill: #000;
        fill-rule: evenodd;
      }
    </style>
  </defs>
  <path d="M40.999,56.324 C40.671,56.281 40.161,56.246 39.918,56.246 C39.906,56.330 39.906,56.547 39.906,56.776 L39.906,58.283 C39.906,58.959 39.918,59.423 39.954,59.954 C39.821,59.942 39.657,59.924 39.457,59.924 C39.257,59.924 39.092,59.942 38.959,59.954 C38.995,59.423 39.007,58.959 39.007,58.283 L39.007,56.776 C39.007,56.547 39.007,56.330 38.989,56.246 C38.753,56.246 38.242,56.281 37.878,56.324 C37.896,56.233 37.908,56.149 37.908,56.059 C37.908,55.968 37.896,55.883 37.878,55.793 C38.430,55.811 38.704,55.823 39.457,55.823 C40.210,55.823 40.483,55.811 40.999,55.793 C40.980,55.883 40.968,55.968 40.968,56.059 C40.968,56.149 40.980,56.233 40.999,56.324 ZM34.631,53.457 C33.833,53.457 33.168,53.226 32.846,52.983 C32.990,52.476 33.090,52.080 33.168,51.584 L33.377,51.584 C33.499,52.223 34.010,52.774 34.908,52.774 C35.774,52.774 36.206,52.266 36.206,51.651 C36.206,49.986 32.900,50.428 32.900,47.926 C32.900,46.406 34.076,45.569 35.396,45.569 C36.195,45.569 36.794,45.778 37.215,46.108 C37.083,46.450 37.005,46.714 36.861,47.199 L36.694,47.199 C36.462,46.573 36.028,46.251 35.352,46.251 C34.675,46.251 34.198,46.714 34.198,47.243 C34.198,48.874 37.571,48.466 37.571,50.967 C37.571,52.444 36.395,53.457 34.631,53.457 ZM11.503,34.549 L11.503,23.429 L19.324,33.634 L34.659,12.006 L34.812,20.382 L19.324,43.231 L11.503,34.549 ZM31.139,9.904 C31.139,10.219 30.882,10.474 30.564,10.474 C30.282,10.474 30.060,10.269 30.010,10.004 C29.985,10.147 29.963,10.290 29.922,10.430 C29.880,10.631 29.849,10.772 29.823,10.886 C29.964,10.757 30.157,10.691 30.352,10.748 C30.657,10.837 30.833,11.152 30.744,11.455 C30.663,11.732 30.362,11.890 30.078,11.850 L30.356,12.398 L30.339,12.437 L28.521,16.926 L28.689,17.426 L28.260,17.570 L27.875,18.520 L27.785,18.482 C27.721,18.454 21.247,15.708 13.718,18.410 L13.632,18.441 L13.262,17.534 L12.865,17.402 L13.020,16.942 L11.168,12.404 L11.447,11.856 C11.163,11.896 10.863,11.738 10.781,11.462 C10.692,11.159 10.868,10.842 11.172,10.755 C11.365,10.699 11.554,10.761 11.694,10.884 C11.637,10.660 11.571,10.347 11.520,9.984 C11.482,10.263 11.251,10.481 10.961,10.481 C10.644,10.481 10.386,10.225 10.386,9.910 C10.386,9.595 10.644,9.340 10.961,9.340 C11.192,9.340 11.388,9.477 11.479,9.672 C11.448,9.353 11.442,9.015 11.471,8.685 C11.367,8.837 11.201,8.943 11.002,8.943 C10.686,8.943 10.428,8.687 10.428,8.372 C10.428,8.057 10.686,7.802 11.002,7.802 C11.266,7.802 11.478,7.980 11.547,8.219 C11.603,7.971 11.678,7.733 11.804,7.528 C11.806,7.524 11.820,7.497 11.831,7.477 C11.747,7.525 11.655,7.560 11.551,7.560 C11.233,7.560 10.977,7.304 10.977,6.988 C10.977,6.674 11.233,6.419 11.551,6.419 C11.869,6.419 12.126,6.674 12.126,6.988 C12.126,7.012 12.115,7.033 12.112,7.056 C12.252,6.874 12.444,6.666 12.691,6.461 C12.676,6.462 12.663,6.470 12.648,6.470 C12.330,6.470 12.074,6.214 12.074,5.900 C12.074,5.584 12.330,5.328 12.648,5.328 C12.965,5.328 13.222,5.584 13.222,5.900 C13.222,5.977 13.206,6.051 13.178,6.119 C13.397,5.992 13.653,5.890 13.931,5.808 C13.640,5.781 13.409,5.545 13.409,5.247 C13.409,4.933 13.666,4.677 13.983,4.677 C14.299,4.677 14.558,4.933 14.558,5.247 C14.558,5.446 14.450,5.612 14.295,5.714 C14.314,5.711 14.330,5.704 14.349,5.700 C14.373,5.695 14.793,5.604 15.356,5.623 C15.179,5.526 15.054,5.345 15.054,5.129 C15.054,4.814 15.311,4.560 15.629,4.560 C15.946,4.560 16.203,4.814 16.203,5.129 C16.203,5.382 16.035,5.590 15.806,5.665 C16.001,5.693 16.202,5.732 16.406,5.798 C16.421,5.804 16.570,5.863 16.743,5.933 C16.652,5.832 16.592,5.702 16.592,5.556 C16.592,5.241 16.849,4.984 17.166,4.984 C17.483,4.984 17.741,5.241 17.741,5.556 C17.741,5.860 17.499,6.103 17.196,6.120 C17.230,6.134 17.260,6.147 17.283,6.158 L17.305,6.168 C17.446,6.234 17.744,6.368 18.313,6.486 C18.176,6.382 18.083,6.225 18.083,6.041 C18.083,5.726 18.340,5.471 18.657,5.471 C18.973,5.471 19.232,5.726 19.232,6.041 C19.232,6.293 19.064,6.501 18.835,6.576 C18.996,6.599 19.167,6.620 19.360,6.637 L19.355,5.880 L19.778,5.880 C19.129,5.488 19.187,4.625 19.187,4.625 C19.187,4.036 19.523,3.528 20.014,3.275 L20.051,3.223 C20.358,2.943 20.349,1.761 20.349,1.761 C20.179,1.741 20.021,1.765 20.021,1.765 L19.924,1.807 C19.924,1.807 19.568,1.941 19.568,2.169 L19.349,2.169 L19.349,0.885 L19.568,0.885 C19.568,1.114 19.924,1.248 19.924,1.248 L20.036,1.248 L20.349,1.254 C20.349,1.254 20.471,1.303 20.471,0.989 L20.496,0.989 L20.451,0.567 C20.451,0.567 20.316,0.212 20.082,0.212 L20.082,-0.007 L21.378,-0.007 L21.378,0.212 C21.148,0.212 21.012,0.567 21.012,0.567 L20.967,0.989 C20.967,1.303 21.086,1.254 21.086,1.254 L21.417,1.248 L21.510,1.248 C21.510,1.248 21.866,1.114 21.866,0.885 L22.088,0.885 L22.088,2.169 L21.866,2.169 C21.866,1.941 21.510,1.807 21.510,1.807 C21.256,1.690 21.086,1.761 21.086,1.761 C21.086,1.761 21.052,2.911 21.386,3.223 L21.399,3.263 C21.903,3.513 22.252,4.028 22.252,4.625 C22.252,4.625 22.346,5.335 21.669,5.879 L22.130,5.879 L22.129,6.629 C22.242,6.623 22.448,6.609 22.704,6.574 C22.469,6.502 22.294,6.293 22.294,6.035 C22.294,5.721 22.552,5.466 22.868,5.466 C23.185,5.466 23.442,5.721 23.442,6.035 C23.442,6.220 23.348,6.377 23.211,6.482 L23.313,6.461 C23.693,6.373 24.029,6.257 24.342,6.117 C24.032,6.108 23.784,5.859 23.784,5.550 C23.784,5.234 24.041,4.979 24.359,4.979 C24.676,4.979 24.934,5.234 24.934,5.550 C24.934,5.690 24.877,5.813 24.793,5.913 L24.819,5.900 C24.985,5.834 25.309,5.727 25.742,5.663 C25.501,5.595 25.322,5.384 25.322,5.124 C25.322,4.808 25.579,4.552 25.897,4.552 C26.214,4.552 26.471,4.808 26.471,5.124 C26.471,5.339 26.346,5.520 26.169,5.617 L26.205,5.614 C26.549,5.604 26.896,5.645 27.247,5.721 C27.082,5.620 26.967,5.448 26.967,5.242 C26.967,4.927 27.224,4.671 27.542,4.671 C27.859,4.671 28.118,4.927 28.118,5.242 C28.118,5.540 27.884,5.777 27.591,5.803 L27.613,5.809 C28.064,5.963 28.188,6.015 28.230,6.039 C28.243,6.046 28.284,6.069 28.346,6.107 C28.319,6.041 28.302,5.970 28.302,5.894 C28.302,5.578 28.560,5.322 28.876,5.322 C29.195,5.322 29.451,5.578 29.451,5.894 C29.451,6.209 29.195,6.464 28.876,6.464 C28.849,6.464 28.825,6.452 28.799,6.448 C29.046,6.659 29.251,6.881 29.425,7.111 C29.415,7.069 29.399,7.028 29.399,6.982 C29.399,6.667 29.656,6.412 29.973,6.412 C30.291,6.412 30.548,6.667 30.548,6.982 C30.548,7.298 30.291,7.553 29.973,7.553 C29.848,7.553 29.739,7.505 29.644,7.438 L29.644,7.438 C29.792,7.689 29.910,7.947 29.978,8.217 C29.994,8.160 30.017,8.110 30.049,8.061 C30.054,8.053 30.060,8.045 30.065,8.037 C30.094,7.998 30.124,7.963 30.162,7.932 C30.183,7.913 30.208,7.899 30.233,7.884 C30.261,7.867 30.288,7.848 30.320,7.835 C30.382,7.811 30.449,7.795 30.522,7.795 C30.839,7.795 31.097,8.051 31.097,8.366 C31.097,8.681 30.839,8.938 30.522,8.938 C30.426,8.938 30.339,8.908 30.260,8.867 C30.251,8.862 30.244,8.856 30.236,8.850 C30.160,8.806 30.099,8.746 30.051,8.674 L30.051,8.674 C30.068,8.861 30.089,9.048 30.073,9.230 C30.079,9.367 30.066,9.510 30.055,9.652 C30.149,9.464 30.339,9.333 30.564,9.333 C30.882,9.333 31.139,9.588 31.139,9.904 ZM21.766,4.879 C21.819,4.936 22.084,4.927 22.099,4.681 C22.106,4.535 22.086,4.368 21.936,4.317 L21.542,4.275 L20.985,4.275 L20.985,3.271 C20.985,3.151 20.843,3.086 20.843,3.086 L20.652,3.086 C20.553,3.086 20.523,3.271 20.523,3.271 L20.523,4.275 L19.909,4.275 L19.514,4.317 C19.363,4.368 19.316,4.535 19.316,4.681 C19.316,4.838 19.535,4.936 19.682,4.879 C19.682,4.879 20.700,4.771 21.766,4.879 ZM29.883,9.213 C29.905,8.968 29.896,8.725 29.855,8.471 L29.837,8.408 C29.705,7.727 29.303,7.107 28.641,6.560 L28.458,6.413 C28.276,6.277 28.144,6.208 28.140,6.205 L28.114,6.186 C28.090,6.176 27.807,6.074 27.558,5.990 L27.261,5.910 C26.908,5.828 26.559,5.795 26.215,5.802 L25.953,5.823 C25.444,5.876 25.072,6.002 24.895,6.073 L24.532,6.244 C24.178,6.412 23.792,6.543 23.354,6.645 L22.968,6.724 C22.431,6.817 22.038,6.821 22.034,6.821 L21.939,6.821 L21.940,6.067 L21.554,6.067 L21.554,5.973 C21.554,5.973 21.554,5.974 21.554,5.974 L21.066,5.969 C21.082,6.010 21.093,6.054 21.093,6.100 C21.093,6.300 20.930,6.463 20.728,6.463 C20.526,6.463 20.363,6.300 20.363,6.100 C20.363,6.052 20.373,6.006 20.391,5.963 L19.913,5.959 L19.913,6.068 L19.547,6.068 L19.552,6.843 L19.448,6.835 C18.040,6.718 17.448,6.442 17.225,6.339 L17.203,6.329 C17.017,6.243 16.348,5.978 16.342,5.975 C15.382,5.667 14.396,5.884 14.387,5.886 C12.702,6.160 11.978,7.604 11.971,7.618 C11.235,8.814 11.964,11.157 11.972,11.181 L11.984,11.217 L11.378,12.412 L13.113,16.666 L13.156,16.539 L14.025,16.828 L13.733,17.690 L13.499,17.613 L13.739,18.202 C20.821,15.697 26.958,17.948 27.770,18.272 L28.022,17.649 L27.822,17.716 L27.531,16.853 L28.399,16.565 L28.428,16.649 L30.146,12.406 L29.534,11.193 L29.567,11.148 C29.578,11.113 29.665,10.728 29.738,10.385 C29.850,9.998 29.900,9.605 29.883,9.240 L29.883,9.213 ZM28.814,11.252 C28.935,11.416 29.268,11.930 29.198,12.548 C29.198,12.597 29.194,14.006 28.666,14.575 C28.609,14.685 28.216,15.396 27.505,15.554 C27.056,15.654 26.572,15.507 26.079,15.116 C26.056,15.097 25.569,14.681 25.551,14.118 C25.541,13.807 25.677,13.517 25.954,13.254 C25.980,13.234 26.282,13.043 26.555,13.131 C26.693,13.176 26.794,13.281 26.858,13.443 C26.864,13.466 26.914,13.700 26.814,13.879 C26.821,13.880 26.828,13.880 26.835,13.880 C27.028,13.880 27.315,13.811 27.470,13.441 C27.470,13.441 27.575,13.153 27.435,12.906 C27.336,12.731 27.138,12.613 26.843,12.555 C26.765,12.562 26.462,12.581 26.308,12.408 C26.252,12.345 26.195,12.231 26.243,12.045 C26.247,12.032 26.518,11.093 26.146,10.471 C25.979,10.577 25.552,10.927 25.403,11.810 C25.404,11.824 25.399,12.092 25.212,12.188 C25.082,12.252 24.918,12.215 24.717,12.076 C24.365,11.975 24.091,11.982 23.924,12.095 C23.764,12.205 23.750,12.380 23.749,12.387 C23.599,12.869 23.917,13.166 24.125,13.302 C24.114,13.054 24.193,12.862 24.197,12.853 L24.226,12.816 C24.353,12.715 24.489,12.680 24.625,12.700 C24.894,12.748 25.068,13.025 25.076,13.036 L25.092,13.062 L25.090,13.093 C25.009,14.182 24.443,14.595 24.419,14.611 C23.853,15.217 23.157,15.101 23.127,15.097 C22.500,15.065 22.307,14.947 22.248,14.877 C20.960,13.989 21.227,13.059 21.239,13.020 L21.260,12.953 L21.330,12.953 C21.540,12.953 21.784,13.031 21.794,13.035 C22.609,13.319 23.012,14.028 23.029,14.058 L23.041,14.103 L23.041,14.401 L23.088,14.401 L23.088,11.145 L22.996,11.145 C22.896,12.148 21.829,12.317 21.817,12.318 L21.201,12.319 C21.280,12.416 21.333,12.535 21.333,12.669 C21.333,12.984 21.077,13.239 20.759,13.239 C20.442,13.239 20.185,12.984 20.185,12.669 C20.185,12.535 20.239,12.416 20.317,12.319 L19.718,12.319 C19.694,12.317 18.625,12.148 18.525,11.145 L18.434,11.145 L18.434,14.401 L18.480,14.401 L18.492,14.058 C18.509,14.028 18.912,13.319 19.725,13.035 C19.737,13.031 19.982,12.953 20.190,12.953 L20.261,12.953 L20.281,13.020 C20.293,13.059 20.561,13.989 19.273,14.877 C19.214,14.947 19.019,15.065 18.383,15.098 C18.366,15.101 17.666,15.217 17.086,14.599 C17.077,14.595 16.513,14.182 16.431,13.093 L16.429,13.062 L16.444,13.036 C16.452,13.025 16.627,12.747 16.896,12.700 C17.036,12.681 17.169,12.715 17.295,12.816 L17.313,12.830 L17.322,12.853 C17.327,12.862 17.407,13.053 17.395,13.302 C17.603,13.167 17.922,12.873 17.775,12.409 C17.770,12.380 17.756,12.205 17.597,12.095 C17.432,11.982 17.156,11.975 16.804,12.076 C16.603,12.217 16.436,12.251 16.308,12.188 C16.121,12.092 16.116,11.824 16.116,11.794 C15.968,10.924 15.540,10.576 15.373,10.471 C14.999,11.094 15.272,12.031 15.275,12.041 C15.323,12.231 15.266,12.345 15.211,12.408 C15.059,12.580 14.757,12.564 14.676,12.555 C14.382,12.614 14.182,12.732 14.083,12.907 C13.944,13.156 14.050,13.441 14.051,13.443 C14.204,13.811 14.488,13.881 14.682,13.881 C14.690,13.881 14.698,13.881 14.706,13.880 C14.605,13.702 14.655,13.469 14.658,13.457 C14.725,13.281 14.826,13.176 14.963,13.131 C15.235,13.044 15.537,13.233 15.551,13.242 C15.842,13.516 15.978,13.807 15.969,14.119 C15.952,14.681 15.463,15.097 15.442,15.114 C15.045,15.430 14.658,15.588 14.286,15.588 C14.192,15.588 14.099,15.578 14.007,15.558 C13.256,15.393 12.862,14.616 12.845,14.583 C12.180,13.689 12.321,12.577 12.328,12.530 C12.257,11.932 12.589,11.422 12.711,11.258 L12.568,11.029 C12.140,10.208 12.156,9.359 12.160,9.265 L12.162,9.237 C12.043,7.668 13.287,6.835 13.537,6.684 C15.440,5.798 16.781,6.596 16.794,6.603 C18.067,7.214 19.444,7.307 19.457,7.308 L19.550,7.309 L19.551,7.403 L19.552,10.130 L21.923,10.130 L21.923,7.321 L22.018,7.321 C22.030,7.320 23.462,7.207 24.723,6.602 C24.744,6.590 26.085,5.793 27.974,6.672 C27.996,6.684 29.491,7.536 29.364,9.228 L29.364,9.261 C29.368,9.353 29.386,10.200 28.958,11.016 L28.814,11.252 ZM19.361,7.490 L16.720,6.778 L16.694,6.764 C16.687,6.759 16.169,6.451 15.325,6.451 C14.852,6.451 14.276,6.547 13.630,6.848 C13.493,6.932 12.239,7.733 12.349,9.220 L12.351,9.254 C12.346,9.360 12.331,10.163 12.734,10.936 L12.944,11.272 L12.900,11.324 C12.895,11.330 12.442,11.878 12.516,12.532 C12.515,12.554 12.462,13.003 12.587,13.545 C12.687,13.584 12.776,13.558 12.848,13.521 C12.923,13.470 12.975,13.408 12.975,13.408 C13.189,13.044 12.975,12.077 12.975,12.077 L13.029,11.738 L13.045,11.775 L13.051,11.738 L14.522,15.131 L14.499,15.131 L14.235,15.131 L14.213,15.131 C13.975,14.713 13.582,14.399 13.582,14.399 C13.462,14.287 13.356,14.229 13.262,14.198 C13.248,14.194 13.234,14.191 13.221,14.189 C13.157,14.173 13.103,14.177 13.053,14.185 C12.975,14.203 12.910,14.233 12.871,14.266 C12.913,14.340 12.954,14.414 13.006,14.485 C13.019,14.506 13.387,15.229 14.049,15.373 C14.441,15.461 14.873,15.325 15.321,14.968 C15.324,14.967 15.765,14.590 15.779,14.112 C15.786,13.857 15.670,13.614 15.434,13.391 C15.430,13.391 15.198,13.258 15.022,13.311 C14.941,13.338 14.881,13.403 14.840,13.510 C14.841,13.510 14.787,13.781 14.951,13.862 L15.168,13.968 L14.936,14.036 C14.929,14.039 14.179,14.249 13.874,13.513 C13.867,13.496 13.736,13.140 13.917,12.815 C14.046,12.586 14.294,12.435 14.654,12.366 L14.669,12.364 L14.684,12.365 C14.758,12.378 14.984,12.377 15.069,12.283 C15.083,12.267 15.125,12.220 15.092,12.092 C15.080,12.050 14.770,10.986 15.264,10.291 L15.307,10.230 L15.378,10.258 C15.407,10.270 16.100,10.566 16.304,11.779 C16.306,11.841 16.323,11.983 16.395,12.020 C16.454,12.048 16.566,12.011 16.706,11.913 L16.735,11.899 C17.160,11.772 17.488,11.789 17.708,11.942 C17.943,12.106 17.959,12.364 17.960,12.376 C18.164,13.005 17.625,13.430 17.311,13.563 L17.135,13.639 L17.182,13.454 C17.240,13.224 17.179,13.015 17.156,12.949 C17.080,12.894 17.009,12.872 16.929,12.887 C16.782,12.912 16.665,13.054 16.623,13.111 C16.707,14.082 17.207,14.454 17.212,14.458 C17.735,15.011 18.336,14.913 18.361,14.910 C19.012,14.876 19.128,14.755 19.128,14.755 L19.152,14.731 C20.147,14.050 20.145,13.364 20.114,13.145 C19.954,13.161 19.787,13.214 19.785,13.214 C19.119,13.447 18.741,14.015 18.670,14.130 L18.670,14.590 L18.244,14.590 L18.244,10.956 L18.706,10.956 L18.709,11.047 C18.745,11.976 19.692,12.125 19.732,12.131 L20.135,12.130 L20.135,11.599 C20.005,11.059 19.377,10.731 19.263,10.676 L18.795,10.676 L18.795,10.130 L19.362,10.130 L19.361,7.490 ZM18.985,10.318 L18.985,10.487 L19.324,10.495 C19.357,10.511 20.157,10.873 20.323,11.578 L20.325,12.307 C20.430,12.182 20.582,12.098 20.759,12.098 C20.937,12.098 21.090,12.183 21.195,12.309 L21.195,11.599 C21.364,10.873 22.165,10.511 22.198,10.495 L22.237,10.487 L22.535,10.487 L22.535,10.318 L18.985,10.318 ZM29.174,9.236 C29.293,7.640 27.902,6.848 27.888,6.840 C26.094,6.004 24.845,6.749 24.833,6.757 L24.805,6.772 C23.677,7.314 22.457,7.468 22.113,7.502 L22.113,10.130 L22.725,10.130 L22.725,10.676 L22.259,10.676 C22.145,10.731 21.516,11.061 21.383,11.621 L21.385,12.130 L21.803,12.130 C21.830,12.125 22.776,11.972 22.812,11.047 L22.815,10.956 L23.277,10.956 L23.277,14.590 L22.851,14.590 L22.851,14.130 C22.781,14.015 22.402,13.447 21.733,13.214 C21.732,13.214 21.567,13.161 21.406,13.145 C21.375,13.364 21.373,14.049 22.369,14.731 L22.390,14.744 L22.400,14.766 C22.404,14.766 22.534,14.877 23.148,14.909 C23.183,14.912 23.788,15.010 24.295,14.470 C24.313,14.454 24.815,14.082 24.897,13.112 C24.856,13.054 24.739,12.912 24.591,12.887 C24.516,12.872 24.442,12.895 24.364,12.948 C24.342,13.015 24.281,13.226 24.338,13.455 L24.385,13.639 L24.209,13.563 C23.895,13.430 23.357,13.005 23.564,12.353 C23.561,12.353 23.583,12.102 23.812,11.942 C24.033,11.789 24.360,11.772 24.787,11.899 L24.815,11.913 C24.951,12.010 25.061,12.052 25.125,12.020 C25.197,11.983 25.214,11.841 25.215,11.794 C25.420,10.566 26.112,10.270 26.141,10.258 L26.212,10.230 L26.256,10.291 C26.749,10.986 26.440,12.050 26.426,12.095 C26.395,12.220 26.437,12.267 26.450,12.283 C26.536,12.378 26.763,12.377 26.836,12.365 L26.850,12.364 L26.865,12.366 C27.226,12.435 27.473,12.587 27.602,12.815 C27.785,13.140 27.653,13.496 27.647,13.510 C27.338,14.251 26.592,14.038 26.584,14.036 L26.354,13.968 L26.570,13.862 C26.735,13.780 26.677,13.500 26.676,13.497 C26.638,13.403 26.578,13.337 26.496,13.311 C26.465,13.301 26.433,13.297 26.400,13.297 C26.239,13.297 26.073,13.400 26.071,13.401 C25.849,13.614 25.733,13.858 25.742,14.113 C25.756,14.592 26.195,14.967 26.200,14.970 C26.642,15.321 27.061,15.458 27.463,15.369 C28.128,15.223 28.498,14.487 28.502,14.479 L28.518,14.456 C28.570,14.401 28.614,14.332 28.656,14.260 C28.617,14.228 28.551,14.197 28.473,14.179 C28.423,14.171 28.369,14.168 28.304,14.183 C28.291,14.185 28.278,14.189 28.264,14.192 C28.169,14.223 28.064,14.281 27.944,14.394 C27.944,14.394 27.550,14.708 27.313,15.125 L27.291,15.125 L27.025,15.125 L27.003,15.125 L28.474,11.731 L28.480,11.768 L28.496,11.731 L28.551,12.072 C28.551,12.072 28.337,13.037 28.551,13.401 C28.551,13.401 28.596,13.465 28.666,13.516 C28.691,13.531 28.717,13.546 28.748,13.553 C28.750,13.554 28.753,13.555 28.755,13.555 C28.800,13.565 28.849,13.565 28.902,13.547 C29.004,13.040 29.009,12.546 29.009,12.537 C29.083,11.872 28.630,11.323 28.625,11.318 L28.582,11.266 L28.793,10.922 C29.194,10.155 29.178,9.355 29.175,9.267 L29.174,9.236 ZM20.728,10.040 C20.526,10.040 20.363,9.878 20.363,9.677 C20.363,9.477 20.526,9.314 20.728,9.314 C20.930,9.314 21.093,9.477 21.093,9.677 C21.093,9.878 20.930,10.040 20.728,10.040 ZM20.728,9.175 C20.526,9.175 20.363,9.013 20.363,8.812 C20.363,8.611 20.526,8.450 20.728,8.450 C20.930,8.450 21.093,8.611 21.093,8.812 C21.093,9.013 20.930,9.175 20.728,9.175 ZM20.728,8.274 C20.526,8.274 20.363,8.112 20.363,7.912 C20.363,7.712 20.526,7.550 20.728,7.550 C20.930,7.550 21.093,7.712 21.093,7.912 C21.093,8.112 20.930,8.274 20.728,8.274 ZM20.728,7.375 C20.526,7.375 20.363,7.213 20.363,7.012 C20.363,6.812 20.526,6.649 20.728,6.649 C20.930,6.649 21.093,6.812 21.093,7.012 C21.093,7.213 20.930,7.375 20.728,7.375 ZM15.378,12.764 C15.378,12.480 15.609,12.251 15.895,12.251 C16.181,12.251 16.412,12.480 16.412,12.764 C16.412,13.047 16.181,13.277 15.895,13.277 C15.609,13.277 15.378,13.047 15.378,12.764 ZM16.158,16.021 L17.400,15.864 C17.690,15.828 17.950,15.996 17.980,16.240 C18.011,16.486 17.803,16.714 17.514,16.750 L16.271,16.908 C15.980,16.943 15.719,16.777 15.687,16.532 C15.657,16.286 15.867,16.058 16.158,16.021 ZM21.476,16.114 L20.758,16.828 L20.038,16.114 L20.758,15.399 L21.476,16.114 ZM25.026,12.732 C25.026,12.448 25.259,12.218 25.544,12.218 C25.829,12.218 26.062,12.448 26.062,12.732 C26.062,13.016 25.829,13.246 25.544,13.246 C25.259,13.246 25.026,13.016 25.026,12.732 ZM24.185,15.904 L25.425,16.059 C25.718,16.097 25.927,16.325 25.897,16.571 C25.864,16.815 25.603,16.983 25.313,16.947 L24.070,16.789 C23.782,16.752 23.573,16.525 23.604,16.278 C23.634,16.034 23.894,15.866 24.185,15.904 ZM10.623,49.843 C10.623,52.401 9.503,53.457 7.352,53.457 C5.454,53.457 3.979,52.631 3.979,50.559 C3.979,49.370 4.002,48.775 4.002,47.982 C4.002,46.814 3.979,46.076 3.958,45.711 C4.257,45.745 4.568,45.768 4.868,45.768 C5.167,45.768 5.477,45.745 5.776,45.711 C5.632,47.144 5.622,48.290 5.622,49.568 C5.622,52.257 6.398,52.696 7.839,52.696 C9.615,52.696 9.737,50.791 9.737,48.742 C9.737,47.728 9.703,46.725 9.647,45.711 C9.837,45.745 10.025,45.768 10.213,45.768 C10.402,45.768 10.580,45.745 10.768,45.711 C10.701,46.362 10.623,47.937 10.623,49.843 ZM4.451,55.793 C4.609,57.180 4.822,59.104 4.973,59.954 C4.809,59.936 4.645,59.924 4.481,59.924 C4.318,59.924 4.148,59.936 3.977,59.954 C3.935,59.116 3.832,58.091 3.735,57.156 L3.723,57.156 C3.267,58.091 2.818,59.020 2.381,59.954 C2.345,59.948 2.302,59.942 2.265,59.942 C2.229,59.942 2.187,59.948 2.150,59.954 C1.719,59.043 1.282,58.127 0.826,57.216 L0.814,57.216 C0.687,58.127 0.633,59.043 0.572,59.954 C0.474,59.936 0.377,59.924 0.286,59.924 C0.189,59.924 0.098,59.936 0.001,59.954 C0.256,58.567 0.456,57.180 0.626,55.793 C0.711,55.811 0.790,55.823 0.875,55.823 C0.954,55.823 1.039,55.811 1.118,55.793 C1.561,56.752 2.077,57.825 2.520,58.676 C3.000,57.777 3.498,56.752 3.935,55.793 C4.020,55.811 4.111,55.823 4.196,55.823 C4.281,55.823 4.366,55.811 4.451,55.793 ZM7.150,55.793 C7.229,55.793 7.302,55.775 7.380,55.763 C7.896,57.138 8.607,58.971 9.068,59.954 C8.874,59.942 8.704,59.924 8.534,59.924 C8.364,59.924 8.188,59.942 8.018,59.954 C7.891,59.544 7.751,59.128 7.599,58.718 C7.338,58.712 7.083,58.706 6.822,58.706 C6.610,58.706 6.403,58.712 6.191,58.718 C6.027,59.128 5.893,59.538 5.778,59.954 C5.681,59.942 5.590,59.924 5.492,59.924 C5.395,59.924 5.304,59.942 5.189,59.954 C5.486,59.285 6.397,57.138 6.919,55.763 C6.998,55.775 7.071,55.793 7.150,55.793 ZM7.459,58.362 C7.283,57.874 7.114,57.397 6.919,56.927 C6.713,57.397 6.525,57.874 6.348,58.362 L7.459,58.362 ZM9.117,64.467 C9.183,64.817 9.462,65.119 9.954,65.119 C10.428,65.119 10.665,64.841 10.665,64.503 C10.665,63.593 8.855,63.834 8.855,62.465 C8.855,61.633 9.499,61.175 10.222,61.175 C10.659,61.175 10.986,61.289 11.217,61.470 C11.145,61.657 11.102,61.802 11.023,62.067 L10.932,62.067 C10.804,61.723 10.568,61.549 10.197,61.549 C9.827,61.549 9.566,61.802 9.566,62.091 C9.566,62.984 11.411,62.760 11.411,64.129 C11.411,64.938 10.768,65.492 9.803,65.492 C9.365,65.492 9.001,65.366 8.825,65.233 C8.904,64.956 8.958,64.739 9.001,64.467 L9.117,64.467 ZM13.036,55.823 C13.127,55.823 13.218,55.811 13.309,55.793 C13.212,57.548 13.212,58.350 13.212,59.954 C13.127,59.936 13.048,59.924 12.962,59.924 C12.878,59.924 12.799,59.936 12.726,59.954 C11.894,58.977 11.007,58.000 10.073,57.023 C10.061,57.475 10.061,57.976 10.061,58.428 C10.061,59.393 10.079,59.732 10.097,59.954 C10.000,59.936 9.903,59.924 9.812,59.924 C9.721,59.924 9.624,59.936 9.533,59.954 C9.563,59.779 9.654,58.223 9.654,56.993 C9.654,56.450 9.630,56.082 9.624,55.793 C9.715,55.811 9.806,55.823 9.896,55.823 C9.988,55.823 10.079,55.811 10.170,55.793 C11.044,56.752 11.912,57.705 12.805,58.664 C12.805,57.705 12.805,56.065 12.762,55.793 C12.854,55.811 12.944,55.823 13.036,55.823 ZM11.687,61.253 C11.868,61.265 12.051,61.283 12.233,61.283 C12.415,61.283 12.591,61.265 12.773,61.253 C13.053,61.850 13.507,62.784 13.678,63.062 L13.690,63.062 C14.018,62.604 14.339,61.844 14.607,61.253 C14.698,61.265 14.789,61.283 14.886,61.283 C14.983,61.283 15.074,61.265 15.177,61.253 C14.910,61.705 14.297,62.802 13.908,63.563 C13.908,63.755 13.896,63.955 13.896,64.154 C13.896,64.552 13.902,64.961 13.957,65.414 C13.787,65.402 13.611,65.384 13.441,65.384 C13.271,65.384 13.095,65.402 12.925,65.414 C12.943,65.028 12.998,64.624 12.998,64.250 C12.998,64.063 12.991,63.876 12.985,63.689 C12.567,62.887 11.875,61.597 11.687,61.253 ZM14.259,59.954 C14.162,59.942 14.071,59.924 13.973,59.924 C13.876,59.924 13.785,59.942 13.670,59.954 C13.967,59.285 14.878,57.138 15.400,55.763 C15.479,55.775 15.552,55.793 15.631,55.793 C15.710,55.793 15.783,55.775 15.861,55.763 C16.378,57.138 17.088,58.971 17.549,59.954 C17.355,59.942 17.185,59.924 17.015,59.924 C16.845,59.924 16.669,59.942 16.499,59.954 C16.372,59.544 16.232,59.128 16.080,58.718 C15.819,58.712 15.565,58.706 15.303,58.706 C15.091,58.706 14.884,58.712 14.672,58.718 C14.507,59.128 14.374,59.538 14.259,59.954 ZM15.941,58.362 C15.764,57.874 15.595,57.397 15.400,56.927 C15.194,57.397 15.005,57.874 14.829,58.362 L15.941,58.362 ZM15.755,75.258 C15.922,74.919 16.156,74.638 16.456,74.414 C16.755,74.190 17.136,74.078 17.600,74.078 C18.064,74.078 18.445,74.190 18.744,74.414 C19.044,74.638 19.277,74.919 19.444,75.258 C19.613,75.597 19.728,75.971 19.792,76.380 C19.857,76.790 19.889,77.176 19.889,77.541 C19.889,77.906 19.857,78.293 19.792,78.702 C19.728,79.111 19.613,79.486 19.444,79.825 C19.277,80.163 19.044,80.445 18.744,80.669 C18.445,80.892 18.064,81.004 17.600,81.004 C17.136,81.004 16.755,80.892 16.456,80.669 C16.156,80.445 15.922,80.163 15.755,79.825 C15.588,79.486 15.471,79.111 15.408,78.702 C15.343,78.293 15.311,77.906 15.311,77.541 C15.311,77.176 15.343,76.790 15.408,76.380 C15.471,75.971 15.588,75.597 15.755,75.258 ZM16.349,78.030 C16.359,78.216 16.379,78.408 16.407,78.606 C16.436,78.805 16.478,78.999 16.533,79.191 C16.587,79.383 16.661,79.556 16.755,79.709 C16.848,79.863 16.964,79.986 17.103,80.078 C17.241,80.171 17.407,80.218 17.600,80.218 C17.793,80.218 17.958,80.171 18.097,80.078 C18.236,79.986 18.351,79.863 18.445,79.709 C18.538,79.556 18.613,79.383 18.667,79.191 C18.722,78.999 18.764,78.805 18.792,78.606 C18.821,78.408 18.841,78.216 18.851,78.030 C18.861,77.845 18.865,77.682 18.865,77.541 C18.865,77.330 18.851,77.072 18.821,76.769 C18.792,76.465 18.735,76.171 18.648,75.886 C18.561,75.601 18.433,75.360 18.266,75.162 C18.099,74.964 17.876,74.865 17.600,74.865 C17.323,74.865 17.101,74.964 16.934,75.162 C16.766,75.360 16.639,75.601 16.552,75.886 C16.465,76.171 16.407,76.465 16.379,76.769 C16.349,77.072 16.335,77.330 16.335,77.541 C16.335,77.682 16.340,77.845 16.349,78.030 ZM20.323,65.414 C20.190,65.402 20.026,65.384 19.826,65.384 C19.626,65.384 19.461,65.402 19.328,65.414 C19.364,64.883 19.376,64.419 19.376,63.743 L19.376,62.236 C19.376,62.007 19.376,61.790 19.358,61.705 C19.122,61.705 18.612,61.741 18.247,61.784 C18.265,61.693 18.278,61.609 18.278,61.518 C18.278,61.428 18.265,61.343 18.247,61.253 C18.800,61.271 19.073,61.283 19.826,61.283 C20.579,61.283 20.852,61.271 21.368,61.253 C21.349,61.343 21.338,61.428 21.338,61.518 C21.338,61.609 21.349,61.693 21.368,61.784 C21.040,61.741 20.530,61.705 20.287,61.705 C20.275,61.790 20.275,62.007 20.275,62.236 L20.275,63.743 C20.275,64.419 20.287,64.883 20.323,65.414 ZM15.422,62.465 C15.422,61.633 16.066,61.175 16.789,61.175 C17.226,61.175 17.554,61.289 17.784,61.470 C17.712,61.657 17.669,61.802 17.590,62.067 L17.499,62.067 C17.371,61.723 17.135,61.549 16.764,61.549 C16.394,61.549 16.133,61.802 16.133,62.091 C16.133,62.984 17.978,62.760 17.978,64.129 C17.978,64.938 17.335,65.492 16.370,65.492 C15.932,65.492 15.568,65.366 15.392,65.233 C15.471,64.956 15.526,64.739 15.568,64.467 L15.684,64.467 C15.750,64.817 16.030,65.119 16.522,65.119 C16.995,65.119 17.232,64.841 17.232,64.503 C17.232,63.593 15.422,63.834 15.422,62.465 ZM19.561,53.259 C19.239,53.259 18.918,53.292 18.597,53.314 C17.863,52.157 17.109,51.000 16.378,49.855 L16.355,49.855 C16.355,51.441 16.355,52.620 16.443,53.314 C16.200,53.292 15.901,53.259 15.535,53.259 C15.169,53.259 14.869,53.292 14.625,53.314 C14.692,52.344 14.714,51.496 14.714,50.262 L14.714,48.763 C14.714,47.530 14.692,46.681 14.625,45.711 C14.869,45.735 15.169,45.768 15.535,45.768 C15.901,45.768 16.200,45.735 16.443,45.711 C16.355,46.297 16.355,47.805 16.355,49.227 C17.353,48.059 18.795,46.274 19.184,45.711 C19.394,45.735 19.594,45.768 19.804,45.768 C20.004,45.768 20.216,45.735 20.469,45.711 C19.971,46.207 18.185,48.170 17.609,48.885 C18.563,50.318 20.038,52.532 20.636,53.314 C20.203,53.292 19.882,53.259 19.561,53.259 ZM21.121,58.121 C21.412,58.121 21.534,58.103 21.613,58.091 C21.583,58.218 21.565,58.718 21.565,59.104 C21.565,59.357 21.571,59.677 21.583,59.767 C21.054,59.918 20.496,60.033 19.961,60.033 C18.565,60.033 17.564,59.242 17.564,58.012 C17.564,56.481 18.650,55.715 20.077,55.715 C20.690,55.715 21.103,55.847 21.540,56.076 C21.473,56.281 21.407,56.487 21.370,56.691 L21.285,56.691 C21.031,56.330 20.642,56.088 20.089,56.088 C19.336,56.088 18.559,56.709 18.559,57.976 C18.559,58.935 19.100,59.658 20.035,59.658 C20.241,59.658 20.599,59.616 20.697,59.550 C20.715,59.454 20.715,59.303 20.715,59.128 C20.715,58.477 20.678,58.205 20.672,58.091 C20.751,58.103 20.872,58.121 21.121,58.121 ZM21.125,75.258 C21.292,74.919 21.526,74.638 21.825,74.414 C22.125,74.190 22.506,74.078 22.969,74.078 C23.433,74.078 23.815,74.190 24.114,74.414 C24.413,74.638 24.647,74.919 24.814,75.258 C24.982,75.597 25.098,75.971 25.162,76.380 C25.226,76.790 25.259,77.176 25.259,77.541 C25.259,77.906 25.226,78.293 25.162,78.702 C25.098,79.111 24.982,79.486 24.814,79.825 C24.647,80.163 24.413,80.445 24.114,80.669 C23.815,80.892 23.433,81.004 22.969,81.004 C22.506,81.004 22.125,80.892 21.825,80.669 C21.526,80.445 21.292,80.163 21.125,79.825 C20.957,79.486 20.841,79.111 20.778,78.702 C20.713,78.293 20.681,77.906 20.681,77.541 C20.681,77.176 20.713,76.790 20.778,76.380 C20.841,75.971 20.957,75.597 21.125,75.258 ZM21.719,78.030 C21.729,78.216 21.748,78.408 21.777,78.606 C21.806,78.805 21.848,78.999 21.903,79.191 C21.956,79.383 22.031,79.556 22.125,79.709 C22.218,79.863 22.334,79.986 22.472,80.078 C22.611,80.171 22.777,80.218 22.969,80.218 C23.163,80.218 23.328,80.171 23.467,80.078 C23.606,79.986 23.721,79.863 23.815,79.709 C23.908,79.556 23.982,79.383 24.037,79.191 C24.092,78.999 24.134,78.805 24.162,78.606 C24.191,78.408 24.211,78.216 24.221,78.030 C24.230,77.845 24.235,77.682 24.235,77.541 C24.235,77.330 24.221,77.072 24.191,76.769 C24.162,76.465 24.104,76.171 24.017,75.886 C23.930,75.601 23.803,75.360 23.636,75.162 C23.469,74.964 23.246,74.865 22.969,74.865 C22.693,74.865 22.471,74.964 22.304,75.162 C22.136,75.360 22.008,75.601 21.921,75.886 C21.834,76.171 21.777,76.465 21.748,76.769 C21.719,77.072 21.704,77.330 21.704,77.541 C21.704,77.682 21.709,77.845 21.719,78.030 ZM24.844,65.384 C24.747,65.384 24.656,65.396 24.559,65.414 C24.813,64.027 25.014,62.640 25.184,61.253 C25.269,61.271 25.348,61.283 25.433,61.283 C25.512,61.283 25.597,61.271 25.676,61.253 C26.119,62.212 26.635,63.285 27.079,64.136 C27.558,63.237 28.056,62.212 28.493,61.253 C28.578,61.271 28.669,61.283 28.754,61.283 C28.839,61.283 28.924,61.271 29.009,61.253 C29.167,62.640 29.379,64.564 29.531,65.414 C29.367,65.396 29.203,65.384 29.040,65.384 C28.875,65.384 28.706,65.396 28.536,65.414 C28.493,64.576 28.390,63.551 28.292,62.615 L28.280,62.615 C27.825,63.551 27.376,64.479 26.938,65.414 C26.902,65.408 26.860,65.402 26.823,65.402 C26.787,65.402 26.745,65.408 26.708,65.414 C26.277,64.503 25.840,63.586 25.384,62.676 L25.372,62.676 C25.244,63.586 25.190,64.503 25.129,65.414 C25.033,65.396 24.935,65.384 24.844,65.384 ZM29.218,74.193 L29.218,80.889 L28.252,80.889 L28.252,75.296 L27.219,76.179 L26.707,75.536 L28.358,74.193 L29.218,74.193 ZM28.800,57.156 L28.788,57.156 C28.333,58.091 27.884,59.020 27.446,59.954 C27.410,59.948 27.368,59.942 27.331,59.942 C27.295,59.942 27.252,59.948 27.216,59.954 C26.785,59.043 26.348,58.127 25.892,57.216 L25.880,57.216 C25.752,58.127 25.698,59.043 25.637,59.954 C25.540,59.936 25.443,59.924 25.352,59.924 C25.255,59.924 25.164,59.936 25.067,59.954 C25.321,58.567 25.522,57.180 25.692,55.793 C25.777,55.811 25.856,55.823 25.941,55.823 C26.019,55.823 26.105,55.811 26.183,55.793 C26.627,56.752 27.143,57.825 27.586,58.676 C28.066,57.777 28.564,56.752 29.000,55.793 C29.086,55.811 29.177,55.823 29.262,55.823 C29.347,55.823 29.432,55.811 29.517,55.793 C29.675,57.180 29.887,59.104 30.039,59.954 C29.875,59.936 29.711,59.924 29.547,59.924 C29.383,59.924 29.213,59.936 29.043,59.954 C29.000,59.116 28.897,58.091 28.800,57.156 ZM26.558,45.711 C26.702,45.711 26.834,45.680 26.979,45.657 C27.921,48.170 29.219,51.518 30.062,53.314 C29.707,53.292 29.396,53.259 29.086,53.259 C28.775,53.259 28.454,53.292 28.143,53.314 C27.910,52.565 27.655,51.805 27.377,51.056 C26.901,51.044 26.435,51.033 25.958,51.033 C25.571,51.033 25.193,51.044 24.805,51.056 C24.506,51.805 24.261,52.553 24.051,53.314 C23.872,53.292 23.707,53.259 23.530,53.259 C23.351,53.259 23.185,53.292 22.975,53.314 C23.518,52.091 25.182,48.170 26.135,45.657 C26.280,45.680 26.413,45.711 26.558,45.711 ZM27.123,50.406 C26.801,49.513 26.490,48.643 26.135,47.783 C25.759,48.643 25.414,49.513 25.094,50.406 L27.123,50.406 ZM22.345,55.793 C22.703,55.799 23.068,55.823 23.425,55.823 C24.020,55.823 24.531,55.811 24.695,55.793 C24.682,55.865 24.670,55.938 24.670,56.046 C24.670,56.173 24.682,56.227 24.695,56.318 C24.233,56.288 23.504,56.246 23.322,56.246 C23.292,56.686 23.292,57.120 23.292,57.560 C23.820,57.548 24.209,57.536 24.670,57.512 C24.646,57.650 24.640,57.705 24.640,57.783 C24.640,57.849 24.652,57.904 24.670,58.031 C24.209,57.994 23.753,57.976 23.292,57.976 C23.292,58.229 23.286,58.489 23.286,58.748 C23.286,59.001 23.292,59.261 23.304,59.502 C23.760,59.502 24.227,59.478 24.695,59.423 C24.682,59.508 24.670,59.568 24.670,59.695 C24.670,59.821 24.682,59.882 24.695,59.954 C24.475,59.948 24.191,59.924 23.632,59.924 C22.642,59.924 22.478,59.942 22.345,59.954 C22.381,59.423 22.393,58.959 22.393,58.283 L22.393,57.464 C22.393,56.788 22.381,56.324 22.345,55.793 ZM21.843,61.253 C22.201,61.259 22.566,61.283 22.924,61.283 C23.519,61.283 24.029,61.271 24.193,61.253 C24.181,61.325 24.169,61.397 24.169,61.506 C24.169,61.633 24.181,61.687 24.193,61.778 C23.732,61.747 23.003,61.705 22.821,61.705 C22.790,62.145 22.790,62.580 22.790,63.020 C23.319,63.008 23.707,62.996 24.169,62.971 C24.144,63.110 24.139,63.165 24.139,63.243 C24.139,63.309 24.151,63.364 24.169,63.490 C23.707,63.454 23.252,63.436 22.790,63.436 C22.790,63.689 22.784,63.949 22.784,64.208 C22.784,64.461 22.790,64.721 22.803,64.961 C23.258,64.961 23.725,64.938 24.193,64.883 C24.181,64.968 24.169,65.028 24.169,65.155 C24.169,65.282 24.181,65.342 24.193,65.414 C23.974,65.408 23.689,65.384 23.131,65.384 C22.141,65.384 21.977,65.402 21.843,65.414 C21.880,64.883 21.892,64.419 21.892,63.743 L21.892,62.924 C21.892,62.248 21.880,61.784 21.843,61.253 ZM30.178,64.467 C30.244,64.817 30.524,65.119 31.015,65.119 C31.489,65.119 31.726,64.841 31.726,64.503 C31.726,63.593 29.916,63.834 29.916,62.465 C29.916,61.633 30.560,61.175 31.283,61.175 C31.720,61.175 32.048,61.289 32.278,61.470 C32.206,61.657 32.163,61.802 32.084,62.067 L31.993,62.067 C31.865,61.723 31.629,61.549 31.258,61.549 C30.888,61.549 30.627,61.802 30.627,62.091 C30.627,62.984 32.472,62.760 32.472,64.129 C32.472,64.938 31.829,65.492 30.864,65.492 C30.426,65.492 30.062,65.366 29.886,65.233 C29.965,64.956 30.020,64.739 30.062,64.467 L30.178,64.467 ZM31.894,59.924 C30.904,59.924 30.740,59.942 30.606,59.954 C30.643,59.423 30.655,58.959 30.655,58.283 L30.655,57.464 C30.655,56.788 30.643,56.324 30.606,55.793 C30.964,55.799 31.329,55.823 31.687,55.823 C32.282,55.823 32.792,55.811 32.956,55.793 C32.944,55.865 32.932,55.938 32.932,56.046 C32.932,56.173 32.944,56.227 32.956,56.318 C32.495,56.288 31.766,56.246 31.584,56.246 C31.554,56.686 31.554,57.120 31.554,57.560 C32.082,57.548 32.470,57.536 32.932,57.512 C32.907,57.650 32.901,57.705 32.901,57.783 C32.901,57.849 32.914,57.904 32.932,58.031 C32.470,57.994 32.015,57.976 31.554,57.976 C31.554,58.229 31.548,58.489 31.548,58.748 C31.548,59.001 31.554,59.261 31.566,59.502 C32.022,59.502 32.488,59.478 32.956,59.423 C32.944,59.508 32.932,59.568 32.932,59.695 C32.932,59.821 32.944,59.882 32.956,59.954 C32.737,59.948 32.452,59.924 31.894,59.924 ZM33.674,55.793 C33.765,55.811 33.856,55.823 33.947,55.823 C34.039,55.823 34.129,55.811 34.220,55.793 C35.095,56.752 35.963,57.705 36.855,58.664 C36.855,57.705 36.855,56.065 36.813,55.793 C36.904,55.811 36.995,55.823 37.086,55.823 C37.177,55.823 37.268,55.811 37.359,55.793 C37.262,57.548 37.262,58.350 37.262,59.954 C37.177,59.936 37.098,59.924 37.013,59.924 C36.928,59.924 36.849,59.936 36.777,59.954 C35.944,58.977 35.058,58.000 34.123,57.023 C34.111,57.475 34.111,57.976 34.111,58.428 C34.111,59.393 34.129,59.732 34.148,59.954 C34.050,59.936 33.953,59.924 33.862,59.924 C33.771,59.924 33.674,59.936 33.583,59.954 C33.613,59.779 33.704,58.223 33.704,56.993 C33.704,56.450 33.680,56.082 33.674,55.793 Z" class="cls-1"/>
</svg>
