<svg xmlns="http://www.w3.org/2000/svg" xmlns:xlink="http://www.w3.org/1999/xlink" preserveAspectRatio="xMidYMid" width="70" height="91" viewBox="0 0 70 91">
  <defs>
    <style>
      .cls-1 {
        fill: #000;
        fill-rule: evenodd;
      }
    </style>
  </defs>
  <path d="M58.460,65.997 C58.460,65.997 57.495,65.027 56.881,64.296 C56.264,63.564 55.426,62.425 55.426,62.425 C60.072,57.652 62.985,50.803 62.985,43.194 L62.985,38.837 C62.985,24.415 52.525,12.723 39.621,12.723 C26.716,12.723 16.256,24.415 16.256,38.837 L16.256,43.194 C16.256,57.615 26.716,69.307 39.621,69.307 C43.733,69.307 47.606,68.119 50.965,66.031 C50.965,66.031 52.096,67.147 52.567,67.549 C53.040,67.953 54.437,68.698 54.437,68.698 C50.113,71.111 45.129,72.484 39.841,72.484 L39.282,72.484 C22.626,72.484 9.121,58.859 9.121,42.051 L9.121,39.972 C9.121,23.166 22.626,9.540 39.282,9.540 L39.841,9.540 C56.498,9.540 70.004,23.166 70.004,39.972 L70.004,42.051 C70.004,51.771 65.488,60.423 58.460,65.997 ZM46.715,4.484 L44.404,4.090 L43.719,5.222 L43.011,5.101 L45.834,0.630 L46.544,0.751 L47.727,5.906 L46.990,5.779 L46.715,4.484 ZM46.056,1.335 L44.715,3.561 L46.593,3.882 L46.056,1.335 ZM41.431,4.914 L42.511,5.973 L41.662,5.949 L40.795,5.077 C40.733,5.082 40.672,5.088 40.610,5.093 C40.547,5.098 40.480,5.096 40.411,5.094 C38.953,5.053 38.139,3.988 38.181,2.505 C38.222,1.057 39.102,0.004 40.554,0.045 C42.006,0.086 42.825,1.187 42.784,2.635 C42.753,3.726 42.270,4.566 41.431,4.914 ZM40.536,0.660 C39.481,0.623 38.935,1.532 38.907,2.525 C38.880,3.497 39.326,4.448 40.429,4.480 C41.531,4.510 42.030,3.586 42.058,2.615 C42.086,1.622 41.592,0.684 40.536,0.660 ZM36.597,3.145 L37.692,4.986 L36.915,5.067 L36.014,3.458 C35.756,3.006 35.531,3.030 35.169,3.068 L34.760,3.109 L34.979,5.266 L34.297,5.337 L33.804,0.479 L34.971,0.360 C35.912,0.262 36.834,0.322 36.952,1.484 C37.012,2.076 36.624,2.537 36.082,2.691 L36.084,2.706 C36.304,2.767 36.416,2.861 36.597,3.145 ZM36.230,1.572 C36.186,1.134 35.831,0.890 35.203,0.954 L34.548,1.021 L34.697,2.497 L35.277,2.437 C35.925,2.370 36.278,2.040 36.230,1.572 ZM30.087,1.205 L30.757,1.064 L31.626,5.239 L33.582,4.824 L33.708,5.427 L31.080,5.983 L30.087,1.205 ZM27.471,3.870 L28.684,3.461 L29.091,4.686 L27.877,5.095 L27.471,3.870 ZM24.828,6.340 C24.441,5.994 24.235,6.087 23.903,6.236 L23.528,6.406 L24.406,8.385 L23.780,8.667 L21.803,4.211 L22.873,3.728 C23.736,3.339 24.631,3.103 25.104,4.170 C25.344,4.712 25.120,5.274 24.653,5.592 L24.659,5.604 C24.888,5.593 25.023,5.646 25.283,5.859 L26.896,7.262 L26.184,7.583 L24.828,6.340 ZM24.447,4.482 C24.268,4.080 23.855,3.960 23.278,4.220 L22.678,4.490 L23.278,5.844 L23.809,5.604 C24.405,5.336 24.636,4.909 24.447,4.482 ZM20.927,9.600 L22.643,8.576 L22.953,9.106 L20.647,10.483 L18.184,6.282 L20.491,4.905 L20.800,5.434 L19.084,6.459 L19.804,7.687 L21.367,6.754 L21.679,7.283 L20.115,8.216 L20.927,9.600 ZM18.947,11.688 L18.398,12.102 L15.866,8.684 L14.675,9.583 L14.310,9.090 L17.240,6.879 L17.605,7.372 L16.415,8.270 L18.947,11.688 ZM13.004,11.890 C13.632,12.579 14.998,11.014 16.077,12.198 C16.777,12.964 16.475,13.806 15.770,14.462 C15.522,14.692 15.216,14.844 14.913,14.982 L14.528,14.457 C14.765,14.370 15.160,14.192 15.417,13.953 C15.705,13.686 15.956,13.147 15.572,12.725 C14.839,11.922 13.531,13.549 12.512,12.433 C11.929,11.795 12.114,10.997 12.748,10.406 C12.980,10.192 13.295,9.974 13.616,9.838 L13.978,10.377 C13.626,10.512 13.444,10.597 13.182,10.841 C12.900,11.102 12.661,11.515 13.004,11.890 ZM13.914,16.238 L10.381,12.901 L10.849,12.395 L14.382,15.733 L13.914,16.238 ZM10.283,17.288 L9.842,16.927 L10.910,15.602 L12.862,17.202 C12.768,17.464 12.581,17.898 12.109,18.482 C11.154,19.667 9.755,19.830 8.560,18.851 C7.404,17.903 7.307,16.434 8.228,15.292 C8.669,14.745 8.945,14.570 9.302,14.347 L9.812,14.835 C9.428,14.957 9.112,15.171 8.724,15.654 C8.028,16.518 8.195,17.607 9.035,18.295 C9.918,19.018 11.014,18.866 11.640,18.088 C11.938,17.718 11.978,17.591 12.059,17.434 L10.919,16.499 L10.283,17.288 ZM7.665,19.569 L8.190,19.881 L7.270,21.460 L8.645,22.275 L9.655,20.540 L10.182,20.852 L8.825,23.182 L4.651,20.711 L6.009,18.381 L6.535,18.693 L5.525,20.427 L6.745,21.149 L7.665,19.569 ZM5.606,23.991 L5.619,23.997 C5.782,23.835 5.919,23.783 6.251,23.766 L8.379,23.722 L8.063,24.442 L6.232,24.431 C5.715,24.433 5.624,24.642 5.477,24.977 L5.310,25.356 L7.276,26.237 L6.997,26.869 L2.574,24.885 L3.048,23.805 C3.433,22.933 3.941,22.155 4.999,22.630 C5.538,22.871 5.743,23.440 5.606,23.991 ZM4.717,23.306 C4.318,23.126 3.931,23.316 3.676,23.897 L3.409,24.504 L4.752,25.106 L4.989,24.569 C5.252,23.969 5.142,23.496 4.717,23.306 ZM2.323,30.521 C3.221,30.761 3.535,28.699 5.077,29.109 C6.076,29.374 6.271,30.248 6.028,31.183 C5.942,31.511 5.765,31.807 5.584,32.089 L4.979,31.856 C5.132,31.653 5.369,31.288 5.459,30.947 C5.558,30.566 5.482,29.974 4.932,29.828 C3.886,29.550 3.653,31.632 2.198,31.245 C1.367,31.025 1.095,30.253 1.314,29.410 C1.394,29.102 1.543,28.750 1.740,28.459 L2.333,28.716 C2.111,29.022 2.001,29.193 1.911,29.540 C1.814,29.915 1.832,30.391 2.323,30.521 ZM2.278,33.375 L0.685,32.643 L0.824,31.882 L2.385,32.790 L2.278,33.375 ZM4.986,37.160 L4.860,38.578 L0.044,38.146 L0.168,36.728 C0.293,35.303 1.276,34.247 2.760,34.379 C4.374,34.525 5.124,35.576 4.986,37.160 ZM0.782,36.707 L0.711,37.512 L4.314,37.835 L4.377,37.112 C4.481,35.928 3.966,35.223 2.723,35.112 C1.598,35.011 0.869,35.716 0.782,36.707 ZM4.908,40.973 L4.937,41.664 L2.914,41.749 L0.178,43.753 L0.146,42.945 L2.254,41.417 L0.030,40.106 L-0.005,39.299 L2.886,41.059 L4.908,40.973 ZM2.367,44.190 C3.814,43.939 4.976,44.601 5.224,46.052 C5.472,47.503 4.597,48.518 3.149,48.769 C1.735,49.013 0.538,48.350 0.291,46.906 C0.045,45.462 0.952,44.435 2.367,44.190 ZM0.893,46.802 C1.065,47.853 2.056,48.214 3.025,48.046 C3.975,47.882 4.811,47.252 4.623,46.156 C4.435,45.059 3.440,44.748 2.490,44.912 C1.520,45.080 0.707,45.754 0.893,46.802 ZM4.895,49.182 L5.487,49.032 L6.143,51.660 L1.449,52.848 L1.281,52.179 L5.384,51.140 L4.895,49.182 ZM5.844,52.945 L6.423,52.751 L7.272,55.321 L2.681,56.866 L2.464,56.210 L6.477,54.861 L5.844,52.945 ZM12.172,84.645 L11.575,84.645 L11.575,80.439 L12.172,80.439 L12.172,84.645 ZM14.314,82.859 C14.180,82.784 14.036,82.713 13.881,82.645 C13.725,82.576 13.581,82.495 13.448,82.401 C13.315,82.306 13.204,82.189 13.117,82.048 C13.028,81.907 12.985,81.729 12.985,81.512 C12.985,81.327 13.020,81.163 13.089,81.021 C13.159,80.878 13.253,80.758 13.373,80.662 C13.492,80.566 13.634,80.492 13.797,80.442 C13.960,80.392 14.135,80.367 14.323,80.367 C14.462,80.367 14.610,80.379 14.765,80.403 C14.920,80.427 15.069,80.465 15.213,80.517 L15.129,81.072 C15.053,81.044 14.985,81.019 14.923,80.996 C14.861,80.974 14.800,80.955 14.741,80.939 C14.681,80.923 14.619,80.912 14.556,80.906 C14.492,80.900 14.422,80.897 14.346,80.897 C14.263,80.897 14.178,80.906 14.093,80.924 C14.007,80.942 13.928,80.972 13.857,81.014 C13.785,81.056 13.728,81.114 13.683,81.186 C13.640,81.259 13.618,81.348 13.618,81.457 C13.618,81.594 13.662,81.706 13.750,81.792 C13.837,81.878 13.947,81.958 14.081,82.030 C14.215,82.102 14.359,82.174 14.514,82.244 C14.670,82.314 14.813,82.402 14.947,82.506 C15.080,82.611 15.191,82.739 15.278,82.892 C15.366,83.044 15.410,83.235 15.410,83.464 C15.410,83.689 15.370,83.881 15.290,84.040 C15.211,84.198 15.101,84.328 14.962,84.428 C14.822,84.529 14.661,84.602 14.475,84.648 C14.290,84.695 14.094,84.717 13.887,84.717 C13.740,84.717 13.595,84.700 13.454,84.664 C13.313,84.627 13.172,84.587 13.033,84.543 L13.092,83.983 C13.144,84.003 13.204,84.025 13.272,84.048 C13.339,84.073 13.411,84.095 13.486,84.115 C13.562,84.135 13.641,84.152 13.722,84.166 C13.804,84.180 13.883,84.187 13.959,84.187 C14.042,84.187 14.133,84.174 14.230,84.148 C14.328,84.122 14.416,84.082 14.496,84.027 C14.575,83.973 14.643,83.903 14.696,83.817 C14.750,83.730 14.777,83.625 14.777,83.500 C14.777,83.344 14.733,83.216 14.645,83.118 C14.558,83.019 14.447,82.933 14.314,82.859 ZM16.536,80.987 C16.709,80.795 16.919,80.643 17.166,80.532 C17.413,80.422 17.695,80.367 18.014,80.367 C18.328,80.367 18.610,80.422 18.859,80.532 C19.108,80.643 19.319,80.795 19.493,80.987 C19.665,81.180 19.797,81.409 19.887,81.674 C19.976,81.940 20.021,82.229 20.021,82.542 C20.021,82.864 19.976,83.157 19.887,83.422 C19.797,83.687 19.666,83.916 19.496,84.109 C19.324,84.302 19.114,84.452 18.865,84.558 C18.616,84.665 18.333,84.717 18.014,84.717 C17.695,84.717 17.412,84.665 17.163,84.558 C16.914,84.452 16.704,84.302 16.533,84.109 C16.362,83.916 16.231,83.687 16.141,83.422 C16.052,83.157 16.007,82.864 16.007,82.542 C16.007,82.229 16.052,81.940 16.141,81.674 C16.231,81.409 16.363,81.180 16.536,80.987 ZM16.721,83.151 C16.775,83.348 16.857,83.524 16.969,83.678 C17.080,83.833 17.223,83.956 17.396,84.048 C17.569,84.141 17.775,84.187 18.014,84.187 C18.253,84.187 18.459,84.141 18.632,84.048 C18.805,83.956 18.948,83.833 19.060,83.678 C19.171,83.524 19.254,83.348 19.307,83.151 C19.361,82.954 19.388,82.751 19.388,82.542 C19.388,82.329 19.359,82.123 19.301,81.925 C19.243,81.725 19.158,81.550 19.044,81.397 C18.931,81.245 18.788,81.123 18.617,81.033 C18.446,80.942 18.245,80.897 18.014,80.897 C17.783,80.897 17.582,80.942 17.411,81.033 C17.239,81.123 17.097,81.245 16.984,81.397 C16.870,81.550 16.784,81.725 16.727,81.925 C16.669,82.123 16.641,82.329 16.641,82.542 C16.641,82.751 16.667,82.954 16.721,83.151 ZM22.649,80.737 C22.768,80.619 22.910,80.527 23.073,80.463 C23.236,80.399 23.414,80.367 23.604,80.367 C23.895,80.367 24.132,80.427 24.315,80.547 C24.498,80.668 24.641,80.825 24.743,81.018 C24.844,81.210 24.913,81.426 24.951,81.665 C24.989,81.904 25.008,82.144 25.008,82.386 C25.008,82.671 24.982,82.953 24.930,83.232 C24.879,83.511 24.788,83.761 24.659,83.980 C24.529,84.198 24.356,84.376 24.139,84.513 C23.922,84.649 23.648,84.717 23.318,84.717 C23.246,84.717 23.168,84.714 23.085,84.706 C23.001,84.697 22.918,84.688 22.837,84.676 C22.755,84.664 22.681,84.649 22.613,84.633 C22.545,84.617 22.493,84.601 22.458,84.585 L22.541,84.048 C22.760,84.165 23.007,84.224 23.282,84.224 C23.477,84.224 23.646,84.181 23.790,84.097 C23.933,84.013 24.053,83.901 24.151,83.760 C24.248,83.619 24.321,83.456 24.369,83.271 C24.417,83.087 24.443,82.894 24.447,82.693 L24.435,82.699 C24.295,82.840 24.152,82.939 24.005,82.997 C23.857,83.055 23.696,83.085 23.521,83.085 C23.318,83.085 23.138,83.050 22.983,82.982 C22.828,82.914 22.697,82.820 22.592,82.702 C22.486,82.583 22.406,82.444 22.350,82.283 C22.294,82.123 22.266,81.948 22.266,81.759 C22.266,81.542 22.300,81.347 22.368,81.174 C22.436,81.001 22.529,80.856 22.649,80.737 ZM22.941,82.042 C22.969,82.142 23.012,82.234 23.070,82.316 C23.128,82.399 23.200,82.465 23.288,82.515 C23.375,82.565 23.479,82.590 23.598,82.590 C23.722,82.590 23.832,82.568 23.930,82.524 C24.027,82.480 24.110,82.420 24.175,82.343 C24.240,82.267 24.290,82.178 24.324,82.075 C24.358,81.973 24.375,81.863 24.375,81.746 C24.375,81.646 24.360,81.544 24.330,81.439 C24.300,81.335 24.254,81.240 24.193,81.153 C24.131,81.067 24.054,80.996 23.963,80.942 C23.871,80.888 23.764,80.861 23.640,80.861 C23.513,80.861 23.403,80.886 23.312,80.936 C23.220,80.986 23.143,81.053 23.082,81.135 C23.020,81.217 22.974,81.312 22.944,81.418 C22.915,81.525 22.900,81.634 22.900,81.746 C22.900,81.843 22.914,81.942 22.941,82.042 ZM23.112,87.265 C23.285,87.072 23.495,86.920 23.742,86.810 C23.989,86.699 24.271,86.644 24.590,86.644 C24.904,86.644 25.186,86.699 25.435,86.810 C25.684,86.920 25.895,87.072 26.068,87.265 C26.241,87.458 26.373,87.687 26.462,87.952 C26.552,88.217 26.597,88.506 26.597,88.819 C26.597,89.141 26.552,89.434 26.462,89.700 C26.373,89.965 26.242,90.194 26.071,90.387 C25.900,90.579 25.690,90.729 25.441,90.836 C25.192,90.942 24.908,90.995 24.590,90.995 C24.271,90.995 23.988,90.942 23.739,90.836 C23.490,90.729 23.280,90.579 23.109,90.387 C22.937,90.194 22.807,89.965 22.717,89.700 C22.628,89.434 22.583,89.141 22.583,88.819 C22.583,88.506 22.628,88.217 22.717,87.952 C22.807,87.687 22.938,87.458 23.112,87.265 ZM23.297,89.428 C23.351,89.625 23.433,89.802 23.545,89.956 C23.656,90.110 23.798,90.234 23.972,90.326 C24.145,90.419 24.351,90.465 24.590,90.465 C24.829,90.465 25.035,90.419 25.208,90.326 C25.381,90.234 25.524,90.110 25.635,89.956 C25.747,89.802 25.829,89.625 25.883,89.428 C25.937,89.232 25.964,89.029 25.964,88.819 C25.964,88.607 25.935,88.400 25.877,88.202 C25.819,88.003 25.734,87.827 25.620,87.675 C25.507,87.522 25.364,87.401 25.193,87.310 C25.022,87.220 24.821,87.175 24.590,87.175 C24.359,87.175 24.158,87.220 23.987,87.310 C23.815,87.401 23.673,87.522 23.560,87.675 C23.446,87.827 23.360,88.003 23.303,88.202 C23.245,88.400 23.216,88.607 23.216,88.819 C23.216,89.029 23.243,89.232 23.297,89.428 ZM25.839,83.977 C25.735,83.764 25.663,83.529 25.624,83.271 C25.583,83.014 25.564,82.771 25.564,82.542 C25.564,82.313 25.583,82.070 25.624,81.813 C25.663,81.556 25.735,81.321 25.839,81.108 C25.942,80.895 26.087,80.718 26.272,80.578 C26.457,80.437 26.692,80.367 26.980,80.367 C27.266,80.367 27.502,80.437 27.687,80.578 C27.872,80.718 28.017,80.895 28.120,81.108 C28.224,81.321 28.296,81.556 28.335,81.813 C28.375,82.070 28.395,82.313 28.395,82.542 C28.395,82.771 28.375,83.014 28.335,83.271 C28.296,83.529 28.224,83.764 28.120,83.977 C28.017,84.189 27.872,84.366 27.687,84.507 C27.502,84.647 27.266,84.717 26.980,84.717 C26.692,84.717 26.457,84.647 26.272,84.507 C26.087,84.366 25.942,84.189 25.839,83.977 ZM26.457,83.904 C26.515,84.001 26.586,84.078 26.671,84.136 C26.758,84.194 26.860,84.224 26.980,84.224 C27.099,84.224 27.201,84.194 27.287,84.136 C27.373,84.078 27.444,84.001 27.502,83.904 C27.560,83.808 27.605,83.699 27.640,83.579 C27.673,83.458 27.699,83.336 27.717,83.211 C27.735,83.087 27.747,82.966 27.753,82.850 C27.759,82.733 27.762,82.631 27.762,82.542 C27.762,82.410 27.753,82.248 27.735,82.057 C27.717,81.866 27.681,81.681 27.628,81.503 C27.574,81.324 27.495,81.172 27.392,81.048 C27.288,80.923 27.150,80.861 26.980,80.861 C26.808,80.861 26.671,80.923 26.567,81.048 C26.464,81.172 26.385,81.324 26.331,81.503 C26.278,81.681 26.242,81.866 26.224,82.057 C26.206,82.248 26.197,82.410 26.197,82.542 C26.197,82.631 26.200,82.733 26.206,82.850 C26.212,82.966 26.224,83.087 26.242,83.211 C26.260,83.336 26.286,83.458 26.319,83.579 C26.353,83.699 26.399,83.808 26.457,83.904 ZM28.072,88.476 L30.067,88.476 L30.067,86.717 L30.664,86.717 L30.664,90.923 L30.067,90.923 L30.067,89.007 L28.072,89.007 L28.072,90.923 L27.475,90.923 L27.475,86.717 L28.072,86.717 L28.072,88.476 ZM29.593,84.507 C29.407,84.366 29.263,84.189 29.160,83.977 C29.056,83.764 28.984,83.529 28.944,83.271 C28.904,83.014 28.885,82.771 28.885,82.542 C28.885,82.313 28.904,82.070 28.944,81.813 C28.984,81.556 29.056,81.321 29.160,81.108 C29.263,80.895 29.407,80.718 29.593,80.578 C29.778,80.437 30.013,80.367 30.300,80.367 C30.587,80.367 30.823,80.437 31.008,80.578 C31.193,80.718 31.338,80.895 31.441,81.108 C31.545,81.321 31.616,81.556 31.656,81.813 C31.696,82.070 31.716,82.313 31.716,82.542 C31.716,82.771 31.696,83.014 31.656,83.271 C31.616,83.529 31.545,83.764 31.441,83.977 C31.338,84.189 31.193,84.366 31.008,84.507 C30.823,84.647 30.587,84.717 30.300,84.717 C30.013,84.717 29.778,84.647 29.593,84.507 ZM30.823,83.904 C30.881,83.808 30.926,83.699 30.960,83.579 C30.994,83.458 31.020,83.336 31.038,83.211 C31.056,83.087 31.068,82.966 31.074,82.850 C31.079,82.733 31.083,82.631 31.083,82.542 C31.083,82.410 31.074,82.248 31.056,82.057 C31.038,81.866 31.002,81.681 30.948,81.503 C30.894,81.324 30.816,81.172 30.713,81.048 C30.609,80.923 30.471,80.861 30.300,80.861 C30.129,80.861 29.991,80.923 29.888,81.048 C29.784,81.172 29.706,81.324 29.652,81.503 C29.598,81.681 29.563,81.866 29.544,82.057 C29.527,82.248 29.518,82.410 29.518,82.542 C29.518,82.631 29.521,82.733 29.527,82.850 C29.533,82.966 29.544,83.087 29.563,83.211 C29.581,83.336 29.606,83.458 29.640,83.579 C29.674,83.699 29.720,83.808 29.778,83.904 C29.835,84.001 29.907,84.078 29.992,84.136 C30.078,84.194 30.181,84.224 30.300,84.224 C30.420,84.224 30.522,84.194 30.608,84.136 C30.694,84.078 30.765,84.001 30.823,83.904 ZM33.568,81.132 L32.928,81.686 L32.612,81.283 L33.633,80.439 L34.165,80.439 L34.165,84.645 L33.568,84.645 L33.568,81.132 ZM32.835,89.136 C32.701,89.062 32.557,88.991 32.402,88.922 C32.247,88.854 32.102,88.773 31.969,88.678 C31.835,88.584 31.725,88.466 31.637,88.326 C31.550,88.185 31.506,88.006 31.506,87.789 C31.506,87.605 31.541,87.441 31.610,87.298 C31.680,87.155 31.775,87.036 31.895,86.940 C32.014,86.843 32.155,86.770 32.318,86.720 C32.481,86.669 32.657,86.644 32.844,86.644 C32.983,86.644 33.131,86.656 33.286,86.680 C33.442,86.704 33.590,86.743 33.734,86.795 L33.650,87.349 C33.575,87.321 33.506,87.296 33.444,87.274 C33.382,87.252 33.322,87.233 33.262,87.217 C33.203,87.201 33.140,87.190 33.077,87.184 C33.013,87.178 32.943,87.175 32.868,87.175 C32.784,87.175 32.699,87.184 32.614,87.202 C32.528,87.220 32.450,87.249 32.378,87.292 C32.306,87.334 32.249,87.391 32.205,87.464 C32.161,87.536 32.139,87.626 32.139,87.735 C32.139,87.872 32.183,87.983 32.271,88.069 C32.358,88.156 32.469,88.235 32.602,88.308 C32.736,88.379 32.880,88.451 33.035,88.521 C33.191,88.592 33.335,88.679 33.468,88.784 C33.601,88.888 33.712,89.017 33.799,89.169 C33.887,89.322 33.931,89.513 33.931,89.742 C33.931,89.967 33.891,90.159 33.811,90.317 C33.732,90.476 33.622,90.606 33.483,90.706 C33.344,90.806 33.182,90.880 32.997,90.926 C32.811,90.972 32.615,90.995 32.408,90.995 C32.261,90.995 32.116,90.977 31.975,90.941 C31.834,90.905 31.693,90.865 31.554,90.821 L31.613,90.260 C31.665,90.280 31.725,90.302 31.793,90.326 C31.860,90.350 31.932,90.373 32.008,90.393 C32.083,90.413 32.162,90.430 32.244,90.444 C32.325,90.458 32.404,90.465 32.479,90.465 C32.563,90.465 32.654,90.452 32.751,90.426 C32.849,90.400 32.937,90.360 33.018,90.305 C33.097,90.251 33.163,90.181 33.217,90.094 C33.271,90.008 33.298,89.903 33.298,89.778 C33.298,89.621 33.254,89.494 33.166,89.395 C33.079,89.297 32.968,89.210 32.835,89.136 ZM37.306,81.850 L38.583,81.850 L38.583,83.139 L37.306,83.139 L37.306,81.850 ZM36.690,86.717 L38.452,90.923 L37.801,90.923 L37.377,89.862 L35.335,89.862 L34.910,90.923 L34.283,90.923 L36.064,86.717 L36.690,86.717 ZM37.186,89.368 L36.356,87.283 L35.526,89.368 L37.186,89.368 ZM40.134,89.136 C40.000,89.062 39.856,88.991 39.701,88.922 C39.545,88.854 39.401,88.773 39.268,88.678 C39.135,88.584 39.024,88.466 38.937,88.326 C38.849,88.185 38.805,88.006 38.805,87.789 C38.805,87.605 38.840,87.441 38.909,87.298 C38.979,87.155 39.074,87.036 39.193,86.940 C39.312,86.843 39.454,86.770 39.617,86.720 C39.780,86.669 39.955,86.644 40.143,86.644 C40.282,86.644 40.430,86.656 40.585,86.680 C40.740,86.704 40.889,86.743 41.033,86.795 L40.949,87.349 C40.873,87.321 40.805,87.296 40.743,87.274 C40.681,87.252 40.620,87.233 40.561,87.217 C40.502,87.201 40.439,87.190 40.376,87.184 C40.312,87.178 40.242,87.175 40.167,87.175 C40.083,87.175 39.998,87.184 39.913,87.202 C39.827,87.220 39.748,87.249 39.677,87.292 C39.605,87.334 39.548,87.391 39.504,87.464 C39.460,87.536 39.438,87.626 39.438,87.735 C39.438,87.872 39.482,87.983 39.570,88.069 C39.657,88.156 39.768,88.235 39.901,88.308 C40.035,88.379 40.179,88.451 40.334,88.521 C40.490,88.592 40.633,88.679 40.767,88.784 C40.900,88.888 41.011,89.017 41.098,89.169 C41.186,89.322 41.230,89.513 41.230,89.742 C41.230,89.967 41.190,90.159 41.110,90.317 C41.031,90.476 40.921,90.606 40.782,90.706 C40.642,90.806 40.481,90.880 40.295,90.926 C40.110,90.972 39.914,90.995 39.707,90.995 C39.560,90.995 39.415,90.977 39.274,90.941 C39.133,90.905 38.992,90.865 38.853,90.821 L38.912,90.260 C38.964,90.280 39.024,90.302 39.092,90.326 C39.159,90.350 39.231,90.373 39.306,90.393 C39.382,90.413 39.461,90.430 39.542,90.444 C39.624,90.458 39.703,90.465 39.779,90.465 C39.862,90.465 39.953,90.452 40.050,90.426 C40.148,90.400 40.236,90.360 40.316,90.305 C40.395,90.251 40.463,90.181 40.516,90.094 C40.570,90.008 40.597,89.903 40.597,89.778 C40.597,89.621 40.553,89.494 40.465,89.395 C40.378,89.297 40.267,89.210 40.134,89.136 ZM42.605,84.645 L42.008,84.645 L42.008,80.439 L42.605,80.439 L42.605,84.645 ZM44.747,82.859 C44.613,82.784 44.469,82.713 44.314,82.645 C44.158,82.576 44.014,82.495 43.881,82.401 C43.747,82.306 43.637,82.189 43.549,82.048 C43.462,81.907 43.418,81.729 43.418,81.512 C43.418,81.327 43.453,81.163 43.522,81.021 C43.592,80.878 43.687,80.758 43.806,80.662 C43.925,80.566 44.067,80.492 44.230,80.442 C44.393,80.392 44.569,80.367 44.756,80.367 C44.895,80.367 45.042,80.379 45.198,80.403 C45.353,80.427 45.502,80.465 45.646,80.517 L45.562,81.072 C45.486,81.044 45.418,81.019 45.356,80.996 C45.294,80.974 45.233,80.955 45.174,80.939 C45.114,80.923 45.052,80.912 44.989,80.906 C44.925,80.900 44.855,80.897 44.780,80.897 C44.696,80.897 44.611,80.906 44.526,80.924 C44.440,80.942 44.361,80.972 44.290,81.014 C44.218,81.056 44.160,81.114 44.117,81.186 C44.073,81.259 44.051,81.348 44.051,81.457 C44.051,81.594 44.095,81.706 44.182,81.792 C44.270,81.878 44.380,81.958 44.514,82.030 C44.647,82.102 44.791,82.174 44.947,82.244 C45.102,82.314 45.246,82.402 45.380,82.506 C45.513,82.611 45.624,82.739 45.711,82.892 C45.799,83.044 45.843,83.235 45.843,83.464 C45.843,83.689 45.803,83.881 45.723,84.040 C45.644,84.198 45.534,84.328 45.395,84.428 C45.255,84.529 45.093,84.602 44.908,84.648 C44.723,84.695 44.527,84.717 44.320,84.717 C44.172,84.717 44.028,84.700 43.887,84.664 C43.745,84.627 43.605,84.587 43.466,84.543 L43.525,83.983 C43.577,84.003 43.637,84.025 43.704,84.048 C43.772,84.073 43.844,84.095 43.919,84.115 C43.995,84.135 44.074,84.152 44.155,84.166 C44.237,84.180 44.316,84.187 44.391,84.187 C44.475,84.187 44.566,84.174 44.663,84.148 C44.761,84.122 44.849,84.082 44.929,84.027 C45.009,83.973 45.075,83.903 45.129,83.817 C45.183,83.730 45.210,83.625 45.210,83.500 C45.210,83.344 45.166,83.216 45.078,83.118 C44.991,83.019 44.880,82.933 44.747,82.859 ZM45.375,86.717 L45.375,90.923 L44.778,90.923 L44.778,87.410 L44.138,87.964 L43.822,87.560 L44.843,86.717 L45.375,86.717 ZM46.969,80.987 C47.142,80.795 47.352,80.643 47.599,80.532 C47.846,80.422 48.128,80.367 48.447,80.367 C48.761,80.367 49.043,80.422 49.292,80.532 C49.541,80.643 49.752,80.795 49.925,80.987 C50.098,81.180 50.230,81.409 50.319,81.674 C50.409,81.940 50.454,82.229 50.454,82.542 C50.454,82.864 50.409,83.157 50.319,83.422 C50.230,83.687 50.099,83.916 49.928,84.109 C49.757,84.302 49.547,84.452 49.298,84.558 C49.049,84.665 48.765,84.717 48.447,84.717 C48.128,84.717 47.845,84.665 47.596,84.558 C47.347,84.452 47.137,84.302 46.966,84.109 C46.794,83.916 46.664,83.687 46.574,83.422 C46.485,83.157 46.440,82.864 46.440,82.542 C46.440,82.229 46.485,81.940 46.574,81.674 C46.664,81.409 46.795,81.180 46.969,80.987 ZM47.154,83.151 C47.208,83.348 47.290,83.524 47.402,83.678 C47.513,83.833 47.655,83.956 47.829,84.048 C48.002,84.141 48.208,84.187 48.447,84.187 C48.686,84.187 48.892,84.141 49.065,84.048 C49.238,83.956 49.381,83.833 49.492,83.678 C49.604,83.524 49.686,83.348 49.740,83.151 C49.794,82.954 49.821,82.751 49.821,82.542 C49.821,82.329 49.792,82.123 49.734,81.925 C49.676,81.725 49.591,81.550 49.477,81.397 C49.364,81.245 49.221,81.123 49.050,81.033 C48.879,80.942 48.678,80.897 48.447,80.897 C48.216,80.897 48.015,80.942 47.844,81.033 C47.672,81.123 47.530,81.245 47.417,81.397 C47.303,81.550 47.217,81.725 47.160,81.925 C47.102,82.123 47.073,82.329 47.073,82.542 C47.073,82.751 47.100,82.954 47.154,83.151 ZM47.603,88.711 L47.603,88.699 C47.451,88.647 47.325,88.581 47.223,88.500 C47.122,88.420 47.041,88.334 46.982,88.241 C46.922,88.149 46.880,88.052 46.856,87.952 C46.832,87.852 46.820,87.751 46.820,87.651 C46.820,87.518 46.851,87.390 46.913,87.268 C46.975,87.145 47.063,87.038 47.179,86.946 C47.294,86.853 47.435,86.780 47.603,86.726 C47.770,86.671 47.959,86.644 48.170,86.644 C48.377,86.644 48.560,86.671 48.720,86.726 C48.879,86.780 49.013,86.852 49.123,86.943 C49.232,87.033 49.316,87.134 49.374,87.247 C49.431,87.359 49.460,87.474 49.460,87.590 C49.460,87.707 49.447,87.815 49.421,87.916 C49.396,88.016 49.353,88.110 49.293,88.196 C49.233,88.282 49.156,88.365 49.060,88.443 C48.965,88.521 48.847,88.599 48.708,88.675 C48.959,88.764 49.168,88.901 49.335,89.088 C49.502,89.275 49.586,89.509 49.586,89.790 C49.586,90.003 49.547,90.185 49.469,90.335 C49.392,90.486 49.287,90.611 49.156,90.709 C49.024,90.807 48.871,90.880 48.696,90.926 C48.521,90.972 48.335,90.995 48.140,90.995 C47.965,90.995 47.792,90.970 47.621,90.920 C47.449,90.870 47.297,90.795 47.164,90.697 C47.030,90.599 46.923,90.476 46.841,90.329 C46.760,90.183 46.719,90.013 46.719,89.820 C46.719,89.539 46.803,89.306 46.973,89.121 C47.142,88.936 47.352,88.800 47.603,88.711 ZM48.735,88.051 C48.772,87.989 48.797,87.928 48.809,87.868 C48.821,87.807 48.827,87.741 48.827,87.668 C48.827,87.568 48.804,87.485 48.758,87.419 C48.713,87.352 48.655,87.298 48.585,87.256 C48.516,87.214 48.440,87.184 48.358,87.165 C48.277,87.147 48.198,87.138 48.122,87.138 C48.055,87.138 47.980,87.150 47.898,87.175 C47.817,87.199 47.740,87.236 47.668,87.286 C47.597,87.336 47.537,87.399 47.489,87.473 C47.441,87.547 47.418,87.635 47.418,87.735 C47.418,87.880 47.490,88.008 47.636,88.121 C47.781,88.233 47.995,88.360 48.278,88.500 C48.401,88.404 48.499,88.321 48.570,88.250 C48.642,88.180 48.697,88.114 48.735,88.051 ZM47.424,90.091 C47.471,90.180 47.535,90.254 47.615,90.314 C47.694,90.375 47.785,90.421 47.886,90.453 C47.988,90.485 48.090,90.501 48.194,90.501 C48.397,90.501 48.572,90.444 48.720,90.329 C48.867,90.215 48.945,90.051 48.953,89.838 C48.957,89.690 48.933,89.569 48.881,89.477 C48.829,89.384 48.759,89.307 48.672,89.245 C48.584,89.182 48.486,89.129 48.376,89.085 C48.267,89.041 48.156,88.991 48.045,88.934 C47.961,88.995 47.877,89.050 47.794,89.100 C47.710,89.150 47.636,89.205 47.570,89.266 C47.504,89.326 47.451,89.396 47.412,89.477 C47.372,89.557 47.352,89.659 47.352,89.784 C47.352,89.900 47.376,90.003 47.424,90.091 ZM50.332,87.385 C50.436,87.173 50.580,86.996 50.765,86.855 C50.950,86.715 51.186,86.644 51.473,86.644 C51.760,86.644 51.996,86.715 52.181,86.855 C52.366,86.996 52.510,87.173 52.614,87.385 C52.717,87.598 52.789,87.833 52.829,88.091 C52.869,88.348 52.889,88.591 52.889,88.819 C52.889,89.049 52.869,89.292 52.829,89.549 C52.789,89.806 52.717,90.041 52.614,90.254 C52.510,90.467 52.366,90.644 52.181,90.784 C51.996,90.925 51.760,90.995 51.473,90.995 C51.186,90.995 50.950,90.925 50.765,90.784 C50.580,90.644 50.436,90.467 50.332,90.254 C50.229,90.041 50.157,89.806 50.117,89.549 C50.077,89.292 50.058,89.049 50.058,88.819 C50.058,88.591 50.077,88.348 50.117,88.091 C50.157,87.833 50.229,87.598 50.332,87.385 ZM50.700,89.127 C50.706,89.244 50.718,89.364 50.735,89.488 C50.753,89.613 50.779,89.736 50.813,89.856 C50.847,89.977 50.893,90.085 50.950,90.182 C51.008,90.278 51.080,90.355 51.165,90.414 C51.251,90.472 51.354,90.501 51.473,90.501 C51.593,90.501 51.695,90.472 51.781,90.414 C51.866,90.355 51.938,90.278 51.996,90.182 C52.053,90.085 52.099,89.977 52.133,89.856 C52.167,89.736 52.193,89.613 52.211,89.488 C52.229,89.364 52.241,89.244 52.247,89.127 C52.253,89.011 52.256,88.908 52.256,88.819 C52.256,88.687 52.247,88.525 52.229,88.335 C52.211,88.144 52.175,87.959 52.121,87.780 C52.067,87.601 51.989,87.450 51.885,87.325 C51.782,87.201 51.644,87.138 51.473,87.138 C51.302,87.138 51.165,87.201 51.061,87.325 C50.957,87.450 50.879,87.601 50.825,87.780 C50.771,87.959 50.735,88.144 50.718,88.335 C50.700,88.525 50.691,88.687 50.691,88.819 C50.691,88.908 50.694,89.011 50.700,89.127 ZM54.635,80.439 L54.635,84.645 L54.037,84.645 L54.037,81.132 L53.398,81.686 L53.082,81.283 L54.103,80.439 L54.635,80.439 ZM53.653,87.385 C53.757,87.173 53.901,86.996 54.087,86.855 C54.272,86.715 54.507,86.644 54.794,86.644 C55.081,86.644 55.317,86.715 55.502,86.855 C55.687,86.996 55.831,87.173 55.935,87.385 C56.038,87.598 56.110,87.833 56.150,88.091 C56.190,88.348 56.210,88.591 56.210,88.819 C56.210,89.049 56.190,89.292 56.150,89.549 C56.110,89.806 56.038,90.041 55.935,90.254 C55.831,90.467 55.687,90.644 55.502,90.784 C55.317,90.925 55.081,90.995 54.794,90.995 C54.507,90.995 54.272,90.925 54.087,90.784 C53.901,90.644 53.757,90.467 53.653,90.254 C53.550,90.041 53.478,89.806 53.438,89.549 C53.398,89.292 53.379,89.049 53.379,88.819 C53.379,88.591 53.398,88.348 53.438,88.091 C53.478,87.833 53.550,87.598 53.653,87.385 ZM54.021,89.127 C54.026,89.244 54.038,89.364 54.056,89.488 C54.075,89.613 54.100,89.736 54.134,89.856 C54.168,89.977 54.214,90.085 54.272,90.182 C54.329,90.278 54.401,90.355 54.486,90.414 C54.573,90.472 54.675,90.501 54.794,90.501 C54.914,90.501 55.016,90.472 55.102,90.414 C55.187,90.355 55.259,90.278 55.317,90.182 C55.374,90.085 55.420,89.977 55.454,89.856 C55.488,89.736 55.514,89.613 55.532,89.488 C55.550,89.364 55.562,89.244 55.568,89.127 C55.573,89.011 55.577,88.908 55.577,88.819 C55.577,88.687 55.568,88.525 55.550,88.335 C55.532,88.144 55.496,87.959 55.443,87.780 C55.388,87.601 55.310,87.450 55.207,87.325 C55.103,87.201 54.965,87.138 54.794,87.138 C54.623,87.138 54.485,87.201 54.382,87.325 C54.278,87.450 54.200,87.601 54.146,87.780 C54.092,87.959 54.056,88.144 54.038,88.335 C54.021,88.525 54.012,88.687 54.012,88.819 C54.012,88.908 54.015,89.011 54.021,89.127 ZM58.659,86.717 L58.659,90.923 L58.061,90.923 L58.061,87.410 L57.422,87.964 L57.105,87.560 L58.127,86.717 L58.659,86.717 ZM58.404,84.645 L57.806,84.645 L57.806,83.687 L55.865,83.687 L55.865,83.193 L57.549,80.439 L58.404,80.439 L58.404,83.193 L58.929,83.193 L58.929,83.687 L58.404,83.687 L58.404,84.645 ZM57.806,80.933 L57.794,80.933 L56.492,83.193 L57.806,83.193 L57.806,80.933 ZM59.592,81.108 C59.696,80.895 59.840,80.718 60.025,80.578 C60.210,80.437 60.446,80.367 60.733,80.367 C61.020,80.367 61.256,80.437 61.440,80.578 C61.626,80.718 61.770,80.895 61.874,81.108 C61.977,81.321 62.049,81.556 62.088,81.813 C62.128,82.070 62.148,82.313 62.148,82.542 C62.148,82.771 62.128,83.014 62.088,83.271 C62.049,83.529 61.977,83.764 61.874,83.977 C61.770,84.189 61.626,84.366 61.440,84.507 C61.256,84.647 61.020,84.717 60.733,84.717 C60.446,84.717 60.210,84.647 60.025,84.507 C59.840,84.366 59.696,84.189 59.592,83.977 C59.489,83.764 59.417,83.529 59.377,83.271 C59.337,83.014 59.317,82.771 59.317,82.542 C59.317,82.313 59.337,82.070 59.377,81.813 C59.417,81.556 59.489,81.321 59.592,81.108 ZM59.959,82.850 C59.965,82.966 59.977,83.087 59.995,83.211 C60.013,83.336 60.039,83.458 60.072,83.579 C60.106,83.699 60.153,83.808 60.210,83.904 C60.268,84.001 60.340,84.078 60.425,84.136 C60.511,84.194 60.614,84.224 60.733,84.224 C60.852,84.224 60.954,84.194 61.041,84.136 C61.126,84.078 61.198,84.001 61.256,83.904 C61.313,83.808 61.359,83.699 61.393,83.579 C61.427,83.458 61.453,83.336 61.471,83.211 C61.489,83.087 61.500,82.966 61.506,82.850 C61.512,82.733 61.515,82.631 61.515,82.542 C61.515,82.410 61.506,82.248 61.489,82.057 C61.471,81.866 61.435,81.681 61.381,81.503 C61.327,81.324 61.249,81.172 61.145,81.048 C61.042,80.923 60.904,80.861 60.733,80.861 C60.561,80.861 60.424,80.923 60.320,81.048 C60.217,81.172 60.139,81.324 60.085,81.503 C60.031,81.681 59.995,81.866 59.977,82.057 C59.959,82.248 59.951,82.410 59.951,82.542 C59.951,82.631 59.954,82.733 59.959,82.850 ZM62.913,81.108 C63.016,80.895 63.161,80.718 63.346,80.578 C63.531,80.437 63.767,80.367 64.053,80.367 C64.341,80.367 64.576,80.437 64.761,80.578 C64.946,80.718 65.091,80.895 65.194,81.108 C65.298,81.321 65.369,81.556 65.409,81.813 C65.449,82.070 65.469,82.313 65.469,82.542 C65.469,82.771 65.449,83.014 65.409,83.271 C65.369,83.529 65.298,83.764 65.194,83.977 C65.091,84.189 64.946,84.366 64.761,84.507 C64.576,84.647 64.341,84.717 64.053,84.717 C63.767,84.717 63.531,84.647 63.346,84.507 C63.161,84.366 63.016,84.189 62.913,83.977 C62.809,83.764 62.737,83.529 62.698,83.271 C62.658,83.014 62.638,82.771 62.638,82.542 C62.638,82.313 62.658,82.070 62.698,81.813 C62.737,81.556 62.809,81.321 62.913,81.108 ZM63.280,82.850 C63.286,82.966 63.298,83.087 63.316,83.211 C63.334,83.336 63.360,83.458 63.393,83.579 C63.428,83.699 63.473,83.808 63.531,83.904 C63.589,84.001 63.660,84.078 63.746,84.136 C63.831,84.194 63.934,84.224 64.053,84.224 C64.173,84.224 64.276,84.194 64.361,84.136 C64.447,84.078 64.518,84.001 64.576,83.904 C64.634,83.808 64.680,83.699 64.714,83.579 C64.747,83.458 64.774,83.336 64.792,83.211 C64.809,83.087 64.821,82.966 64.827,82.850 C64.833,82.733 64.836,82.631 64.836,82.542 C64.836,82.410 64.827,82.248 64.809,82.057 C64.792,81.866 64.756,81.681 64.701,81.503 C64.648,81.324 64.570,81.172 64.466,81.048 C64.362,80.923 64.225,80.861 64.053,80.861 C63.883,80.861 63.745,80.923 63.641,81.048 C63.538,81.172 63.459,81.324 63.406,81.503 C63.352,81.681 63.316,81.866 63.298,82.057 C63.280,82.248 63.271,82.410 63.271,82.542 C63.271,82.631 63.274,82.733 63.280,82.850 ZM54.300,48.324 L54.960,48.617 L51.510,56.909 L24.143,56.909 L24.143,55.873 C24.143,55.873 26.493,55.948 28.106,54.836 C29.721,53.727 29.281,51.951 29.281,51.951 L29.281,28.855 C29.281,28.855 29.311,27.181 27.666,25.967 C26.297,24.955 24.292,25.152 24.292,25.152 L24.292,24.190 L35.151,24.190 L35.151,49.951 C35.151,49.951 34.833,52.777 37.864,54.120 C40.750,55.404 44.664,54.919 48.356,53.430 C53.151,51.499 54.300,48.324 54.300,48.324 ZM36.177,25.152 L36.177,24.190 L40.482,24.190 C40.482,24.190 50.484,23.747 50.997,31.889 C51.482,39.571 43.441,41.044 43.441,41.044 C43.441,41.044 45.787,41.661 47.329,45.435 C48.227,47.638 49.530,51.802 49.530,51.802 C49.530,51.802 48.288,52.422 46.968,52.940 C45.646,53.458 44.247,53.727 44.247,53.727 C44.247,53.727 41.091,44.326 39.700,42.624 C38.304,40.919 36.177,41.092 36.177,41.092 L36.177,40.205 C36.177,40.205 45.127,40.625 45.127,32.111 C45.127,25.152 36.177,25.152 36.177,25.152 ZM53.419,66.756 C47.950,62.568 46.448,57.872 46.448,57.872 L51.731,57.872 C51.731,57.872 52.759,61.204 56.279,65.274 C60.651,70.327 65.401,70.235 65.401,70.235 C65.401,70.235 65.875,70.224 65.893,70.606 C65.910,71.065 65.412,70.992 65.412,70.992 C65.412,70.992 59.510,71.418 53.419,66.756 ZM67.918,80.439 L67.918,84.645 L67.321,84.645 L67.321,81.132 L66.682,81.686 L66.365,81.283 L67.387,80.439 L67.918,80.439 Z" class="cls-1"/>
</svg>
