<svg xmlns="http://www.w3.org/2000/svg" xmlns:xlink="http://www.w3.org/1999/xlink" preserveAspectRatio="xMidYMid" width="40" height="32" viewBox="0 0 40 32">
  <defs>
    <style>
      .cls-1 {
        fill: #000;
        fill-rule: evenodd;
      }
    </style>
  </defs>
  <path d="M28.076,10.422 L28.302,4.342 L39.994,-0.008 C39.994,7.280 38.808,13.275 36.436,17.979 C34.064,22.683 29.903,27.359 23.953,32.006 L20.790,29.274 C24.066,25.853 26.052,23.157 26.749,21.186 C27.446,19.215 27.888,15.627 28.076,10.422 ZM7.291,10.422 L7.517,4.342 L19.209,-0.008 C19.209,7.280 18.013,13.275 15.622,17.979 C13.231,22.683 9.061,27.359 3.111,32.006 L0.005,29.274 C3.243,25.853 5.210,23.157 5.907,21.186 C6.604,19.215 7.065,15.627 7.291,10.422 Z" class="cls-1"/>
</svg>
