<svg xmlns="http://www.w3.org/2000/svg" xmlns:xlink="http://www.w3.org/1999/xlink" preserveAspectRatio="xMidYMid" width="88" height="24" viewBox="0 0 88 24">
  <defs>
    <style>
      .cls-1 {
        fill: #000;
        fill-rule: evenodd;
      }
    </style>
  </defs>
  <path d="M44.422,20.000 C48.845,20.000 52.431,16.418 52.431,12.000 C52.431,7.582 48.845,4.000 44.422,4.000 C39.999,4.000 36.414,7.582 36.414,12.000 C36.414,16.418 39.999,20.000 44.422,20.000 ZM44.493,24.000 C37.859,24.000 32.481,18.627 32.481,12.000 C32.481,5.373 37.859,-0.000 44.493,-0.000 C51.128,-0.000 56.506,5.373 56.506,12.000 C56.506,18.627 51.128,24.000 44.493,24.000 ZM6.039,6.000 L7.455,7.414 L3.865,11.000 L28.477,11.000 L28.477,13.000 L3.794,13.000 L7.455,16.657 L6.039,18.071 L0.376,12.414 L0.001,12.036 M87.999,12.036 L87.609,12.414 L81.947,18.071 L80.531,16.657 L84.192,13.000 L60.510,13.000 L60.510,11.000 L84.120,11.000 L80.531,7.414 L81.947,6.000 " class="cls-1"/>
</svg>
