<svg xmlns="http://www.w3.org/2000/svg" xmlns:xlink="http://www.w3.org/1999/xlink" preserveAspectRatio="xMidYMid" width="46" height="50" viewBox="0 0 46 50">
  <defs>
    <style>
      .cls-1 {
        fill: #000;
        fill-rule: evenodd;
      }
    </style>
  </defs>
  <path d="M41.813,23.955 L41.813,21.875 L45.996,21.875 L45.996,23.955 L41.813,23.955 ZM38.767,12.637 L42.391,10.553 L43.434,12.354 L39.811,14.439 L38.767,12.637 ZM32.396,39.580 L13.672,39.580 C12.858,36.201 11.565,33.047 9.782,30.254 C7.812,27.197 7.009,23.643 7.440,20.000 C8.263,12.881 14.064,7.139 21.216,6.348 C25.733,5.850 30.084,7.217 33.455,10.234 C36.776,13.193 38.677,17.441 38.687,21.875 C38.687,24.658 37.932,27.402 36.521,29.795 C34.611,33.008 33.249,36.289 32.396,39.580 ZM31.503,6.162 L33.594,2.550 L35.402,3.590 L33.310,7.202 L31.503,6.162 ZM21.951,0.000 L24.038,0.000 L24.038,4.170 L21.951,4.170 L21.951,0.000 ZM10.601,3.592 L12.409,2.552 L14.501,6.163 L12.693,7.203 L10.601,3.592 ZM2.569,12.360 L3.612,10.559 L7.236,12.644 L6.192,14.445 L2.569,12.360 ZM4.187,23.955 L0.003,23.955 L0.003,21.875 L4.187,21.875 L4.187,23.955 ZM7.228,33.186 L3.604,35.270 L2.561,33.469 L6.185,31.384 L7.228,33.186 ZM31.603,43.750 L14.397,43.750 C14.318,43.047 14.220,42.354 14.093,41.670 L31.926,41.670 C31.799,42.363 31.691,43.057 31.603,43.750 ZM31.368,47.412 L31.368,50.000 L14.642,50.000 L14.642,47.852 C14.642,47.178 14.612,46.504 14.573,45.830 L31.426,45.830 C31.397,46.357 31.368,46.885 31.368,47.412 ZM43.437,33.474 L42.393,35.275 L38.770,33.190 L39.814,31.389 L43.437,33.474 Z" class="cls-1"/>
</svg>
