<svg xmlns="http://www.w3.org/2000/svg" xmlns:xlink="http://www.w3.org/1999/xlink" preserveAspectRatio="xMidYMid" width="95" height="43" viewBox="0 0 95 43">
  <defs>
    <style>
      .cls-1 {
        fill: #000;
        fill-rule: evenodd;
      }
    </style>
  </defs>
  <path d="M29.076,13.072 C32.809,16.204 34.007,18.196 36.910,23.000 C33.593,24.163 29.171,24.919 24.124,23.807 C12.885,21.333 -0.005,6.546 -0.005,6.546 C-0.005,6.546 13.227,-3.999 28.683,0.906 C35.831,3.171 38.747,7.722 40.734,12.481 C42.176,15.726 42.548,19.928 47.234,26.350 C47.234,26.350 45.389,21.877 44.945,20.123 C44.498,18.372 44.034,16.465 44.187,14.364 C44.836,5.481 55.586,3.049 55.586,3.049 C55.586,3.049 58.411,8.451 56.741,15.534 C55.716,19.889 52.540,23.263 50.919,24.457 C49.799,21.549 49.380,19.499 49.706,16.575 C50.171,12.420 52.495,7.989 52.495,7.989 C52.495,7.989 49.183,11.464 48.357,14.802 C47.535,18.118 47.582,19.814 48.226,22.444 C48.785,24.708 49.625,26.959 50.791,28.810 C52.110,30.900 53.649,33.161 56.209,35.180 C58.547,37.023 60.336,37.931 62.870,38.996 C65.383,39.908 72.360,41.808 78.584,37.659 C84.382,33.793 86.983,27.730 86.744,22.946 C83.241,22.691 80.526,20.892 80.479,17.225 L80.445,14.659 L82.966,14.627 L82.908,10.050 C82.898,9.325 83.477,8.729 84.201,8.717 C84.926,8.708 85.519,9.290 85.527,10.015 L85.585,14.593 L89.992,14.536 L89.932,9.957 C89.923,9.233 90.500,8.634 91.226,8.624 C91.951,8.617 92.542,9.200 92.550,9.922 L92.610,14.501 L94.925,14.473 L94.960,17.040 C95.004,20.672 92.379,22.544 88.920,22.911 C89.047,26.204 88.052,29.971 85.845,33.385 C84.373,35.658 82.365,37.777 79.794,39.493 C71.537,44.998 62.439,41.259 61.112,40.662 C60.361,40.363 59.580,39.994 58.785,39.572 C58.633,39.505 58.001,39.136 57.552,38.882 C54.351,37.081 50.267,33.892 48.032,31.510 C42.534,25.643 37.487,18.034 35.284,15.433 C33.080,12.830 30.295,10.320 26.531,8.785 C20.727,6.419 14.154,7.540 14.154,7.540 C14.154,7.540 23.247,8.185 29.076,13.072 Z" class="cls-1"/>
</svg>
