<svg xmlns="http://www.w3.org/2000/svg" xmlns:xlink="http://www.w3.org/1999/xlink" preserveAspectRatio="xMidYMid" width="48" height="48" viewBox="0 0 48 48">
  <defs>
    <style>
      .cls-1 {
        fill: #000;
        fill-rule: evenodd;
      }
    </style>
  </defs>
  <path d="M38.000,48.000 L38.000,29.099 L24.000,29.099 L24.000,48.000 L-0.000,48.000 L-0.000,3.998 L12.000,3.998 L12.000,19.379 L25.390,12.678 L29.100,19.159 L36.490,8.998 L48.000,8.998 L48.000,48.000 L38.000,48.000 ZM15.000,24.999 L6.000,24.999 L6.000,31.999 L15.000,31.999 L15.000,24.999 ZM15.000,35.999 L6.000,35.999 L6.000,43.000 L15.000,43.000 L15.000,35.999 ZM36.245,5.000 L47.245,5.000 L47.245,7.000 L36.245,7.000 L36.245,5.000 ZM20.995,1.000 L36.995,1.000 L36.995,3.000 L20.995,3.000 L20.995,1.000 ZM0.901,0.000 L11.901,0.000 L11.901,2.000 L0.901,2.000 L0.901,0.000 Z" class="cls-1"/>
</svg>
