<svg xmlns="http://www.w3.org/2000/svg" xmlns:xlink="http://www.w3.org/1999/xlink" preserveAspectRatio="xMidYMid" width="149" height="78" viewBox="0 0 149 78">
  <defs>
    <style>
      .cls-1 {
        fill: red;
        fill-rule: evenodd;
      }
    </style>
  </defs>
  <path d="M145.084,7.882 C142.854,7.882 141.047,6.185 141.047,3.943 C141.047,1.701 142.794,0.005 145.084,0.005 C147.313,0.005 149.000,1.701 149.000,3.943 C149.000,6.185 147.313,7.882 145.084,7.882 ZM145.023,0.671 C143.276,0.671 141.890,2.126 141.890,3.883 C141.890,5.701 143.216,7.155 145.023,7.155 C146.771,7.155 148.096,5.701 148.096,3.943 C148.156,2.126 146.831,0.671 145.023,0.671 ZM145.927,4.065 C146.289,4.186 146.469,4.549 146.590,5.095 C146.710,5.701 146.831,5.943 146.891,6.125 L146.108,6.125 C145.987,6.004 145.867,5.579 145.746,5.095 C145.626,4.610 145.385,4.428 144.842,4.428 L144.360,4.428 L144.360,6.064 L143.577,6.064 L143.577,1.944 C143.999,1.883 144.421,1.822 145.023,1.822 C145.686,1.822 146.048,1.944 146.289,2.126 C146.530,2.307 146.710,2.610 146.710,3.034 C146.710,3.519 146.349,3.822 145.927,4.004 L145.927,4.065 ZM144.963,2.428 C144.662,2.428 144.481,2.428 144.360,2.489 L144.360,3.762 L144.903,3.762 C145.445,3.762 145.927,3.580 145.927,3.095 C145.927,2.671 145.686,2.428 144.963,2.428 ZM43.983,68.903 C41.272,68.903 39.163,67.813 38.319,66.601 L38.199,66.601 L38.199,77.993 L29.463,77.993 L29.463,52.481 L29.523,52.481 C29.523,49.330 29.402,46.604 29.342,44.361 L36.813,44.361 L37.175,47.391 L37.295,47.391 C39.103,45.028 41.754,43.816 45.007,43.816 C50.008,43.816 54.828,48.240 54.828,56.057 C54.828,64.843 49.165,68.903 43.983,68.903 ZM41.874,50.664 C40.127,50.664 38.621,52.057 38.319,53.815 C38.199,54.178 38.199,54.542 38.199,54.966 L38.199,57.875 L38.259,57.875 C38.259,58.420 38.319,58.905 38.380,59.329 C38.741,60.904 40.007,62.238 41.754,62.238 C44.345,62.238 45.971,59.935 45.971,56.481 C45.971,53.087 44.586,50.664 41.874,50.664 ZM15.846,65.207 L15.665,65.207 C14.822,66.540 12.713,68.903 8.435,68.903 C3.073,68.903 0.000,65.449 0.000,58.541 L0.000,44.361 L8.736,44.361 L8.736,57.087 C8.736,60.177 9.761,61.813 11.809,61.813 C13.436,61.813 14.280,60.662 14.641,59.753 C14.822,59.390 14.882,58.965 14.882,58.481 L14.882,44.361 L23.558,44.361 L23.558,60.177 C23.558,63.571 23.679,66.298 23.739,68.358 L16.208,68.358 L15.846,65.207 Z" class="cls-1"/>
</svg>
