<svg xmlns="http://www.w3.org/2000/svg" xmlns:xlink="http://www.w3.org/1999/xlink" preserveAspectRatio="xMidYMid" width="19" height="26" viewBox="0 0 19 26">
  <defs>
    <style>
      .cls-1 {
        fill: red;
        fill-rule: evenodd;
      }
    </style>
  </defs>
  <path d="M18.003,26.000 L11.997,26.000 C11.446,26.000 11.000,25.549 11.000,24.997 L11.000,1.003 C11.000,0.449 11.453,0.000 11.997,0.000 L18.003,0.000 C18.554,0.000 19.000,0.451 19.000,1.003 L19.000,24.997 C19.000,25.551 18.547,26.000 18.003,26.000 ZM7.003,26.000 L0.997,26.000 C0.446,26.000 -0.000,25.549 -0.000,24.997 L-0.000,1.003 C-0.000,0.449 0.453,0.000 0.997,0.000 L7.003,0.000 C7.554,0.000 8.000,0.451 8.000,1.003 L8.000,24.997 C8.000,25.551 7.547,26.000 7.003,26.000 Z" class="cls-1"/>
</svg>
