<svg xmlns="http://www.w3.org/2000/svg" xmlns:xlink="http://www.w3.org/1999/xlink" preserveAspectRatio="xMidYMid" width="48" height="45" viewBox="0 0 48 45">
  <defs>
    <style>
      .cls-1 {
        fill: #000;
        fill-rule: evenodd;
      }
    </style>
  </defs>
  <path d="M47.693,15.675 C47.501,15.957 47.188,16.108 46.869,16.108 C46.676,16.108 46.481,16.052 46.309,15.935 L41.109,12.405 C41.022,12.457 40.935,12.510 40.841,12.551 L40.841,39.050 L43.829,39.050 L43.829,41.034 L35.860,41.034 L35.860,39.050 L38.848,39.050 L38.848,12.551 C38.289,12.306 37.841,11.862 37.586,11.311 L29.874,11.233 C29.323,11.227 28.881,10.778 28.887,10.231 C28.893,9.687 29.338,9.249 29.883,9.249 L29.893,9.249 L37.547,9.326 C37.923,8.431 38.811,7.800 39.844,7.800 C39.900,7.800 39.952,7.813 40.007,7.817 L43.284,0.706 C43.515,0.207 44.106,-0.010 44.606,0.218 C45.106,0.446 45.325,1.035 45.096,1.533 L41.777,8.735 C42.120,9.160 42.335,9.693 42.335,10.281 C42.335,10.458 42.314,10.631 42.279,10.798 L47.432,14.296 C47.886,14.604 48.004,15.221 47.693,15.675 ZM39.844,9.785 C39.570,9.785 39.346,10.007 39.346,10.281 C39.346,10.554 39.570,10.777 39.844,10.777 C40.119,10.777 40.343,10.554 40.343,10.281 C40.343,10.007 40.119,9.785 39.844,9.785 ZM34.863,21.193 L-0.003,21.193 L-0.003,17.676 L17.711,8.997 L34.863,17.606 L34.863,21.193 ZM20.965,15.241 L13.935,15.241 L13.935,17.225 L20.965,17.225 L20.965,15.241 ZM2.985,23.177 L31.874,23.177 L31.874,43.022 L47.814,43.022 L47.814,45.006 L26.894,45.006 L26.894,30.121 L7.966,30.121 L7.966,45.006 L-0.004,45.006 L-0.004,43.022 L2.985,43.022 L2.985,23.177 ZM21.913,36.074 L12.947,36.074 L12.947,34.089 L21.913,34.089 L21.913,36.074 ZM21.913,40.042 L12.947,40.042 L12.947,38.058 L21.913,38.058 L21.913,40.042 Z" class="cls-1"/>
</svg>
