<svg xmlns="http://www.w3.org/2000/svg" xmlns:xlink="http://www.w3.org/1999/xlink" preserveAspectRatio="xMidYMid" width="358" height="219" viewBox="0 0 358 219">
  <defs>
    <style>
      .cls-1 {
        fill: #000;
        fill-rule: evenodd;
      }
    </style>
  </defs>
  <path d="M357.999,174.335 L273.255,175.200 L307.845,139.468 C324.563,122.467 336.669,107.771 344.452,95.380 C351.946,83.278 355.693,70.887 355.693,57.920 C355.693,23.053 326.292,0.001 283.056,0.001 C239.531,0.001 210.130,25.646 210.130,63.683 L261.437,68.294 C261.437,52.445 270.373,41.783 284.209,41.783 C296.027,41.783 304.386,50.140 304.386,61.954 C304.386,77.226 291.415,93.363 274.408,111.805 L207.536,184.421 L207.536,216.118 L357.999,216.118 L357.999,174.335 ZM92.239,177.217 C115.875,177.217 131.728,149.842 131.728,109.500 C131.728,69.158 115.875,41.783 92.239,41.783 C68.314,41.783 52.461,69.158 52.461,109.500 C52.461,149.842 68.314,177.217 92.239,177.217 ZM92.239,218.999 C37.184,218.999 0.001,174.911 0.001,109.500 C0.001,44.088 37.184,0.001 92.239,0.001 C146.717,0.001 183.900,44.088 183.900,109.500 C183.900,174.911 146.717,218.999 92.239,218.999 Z" class="cls-1"/>
</svg>
