<svg xmlns="http://www.w3.org/2000/svg" xmlns:xlink="http://www.w3.org/1999/xlink" preserveAspectRatio="xMidYMid" width="308" height="219" viewBox="0 0 308 219">
  <defs>
    <style>
      .cls-1 {
        fill: #000;
        fill-rule: evenodd;
      }
    </style>
  </defs>
  <path d="M196.969,56.191 L222.059,91.922 L257.531,67.429 L257.531,216.118 L307.998,216.118 L307.998,2.882 L269.355,2.882 L196.969,56.191 ZM92.285,177.217 C115.933,177.217 131.794,149.842 131.794,109.500 C131.794,69.158 115.933,41.783 92.285,41.783 C68.349,41.783 52.487,69.158 52.487,109.500 C52.487,149.842 68.349,177.217 92.285,177.217 ZM92.285,218.999 C37.203,218.999 0.001,174.911 0.001,109.500 C0.001,44.088 37.203,0.001 92.285,0.001 C146.790,0.001 183.992,44.088 183.992,109.500 C183.992,174.911 146.790,218.999 92.285,218.999 Z" class="cls-1"/>
</svg>
