<svg xmlns="http://www.w3.org/2000/svg" xmlns:xlink="http://www.w3.org/1999/xlink" preserveAspectRatio="xMidYMid" width="7" height="39" viewBox="0 0 7 39">
  <defs>
    <style>
      .cls-1 {
        fill: #171820;
        fill-rule: evenodd;
      }
    </style>
  </defs>
  <path d="M7.000,3.998 L6.000,3.998 L6.000,3.000 L5.000,3.000 L5.000,2.000 L6.000,2.000 L6.000,2.999 L7.000,2.999 L7.000,3.998 ZM4.000,39.000 L3.000,39.000 L3.000,2.000 L2.000,2.000 L2.000,1.000 L3.000,1.000 L3.000,-0.000 L4.000,-0.000 L4.000,1.000 L5.000,1.000 L5.000,2.000 L4.000,2.000 L4.000,39.000 ZM1.000,3.000 L1.000,2.000 L2.000,2.000 L2.000,3.000 L1.000,3.000 ZM-0.000,2.999 L1.000,2.999 L1.000,3.998 L-0.000,3.998 L-0.000,2.999 Z" class="cls-1"/>
</svg>
