<svg xmlns="http://www.w3.org/2000/svg" xmlns:xlink="http://www.w3.org/1999/xlink" preserveAspectRatio="xMidYMid" width="7" height="39" viewBox="0 0 7 39">
  <defs>
    <style>
      .cls-1 {
        fill: #171820;
        fill-rule: evenodd;
      }
    </style>
  </defs>
  <path d="M6.000,35.999 L6.000,34.999 L7.000,34.999 L7.000,35.999 L6.000,35.999 ZM6.000,36.000 L6.000,37.000 L5.000,37.000 L5.000,36.000 L6.000,36.000 ZM4.000,37.999 L4.000,39.000 L3.000,39.000 L3.000,37.999 L2.000,37.999 L2.000,37.000 L3.000,37.000 L3.000,-0.001 L4.000,-0.001 L4.000,37.000 L5.000,37.000 L5.000,37.999 L4.000,37.999 ZM1.000,36.000 L2.000,36.000 L2.000,37.000 L1.000,37.000 L1.000,36.000 ZM-0.000,34.999 L1.000,34.999 L1.000,35.999 L-0.000,35.999 L-0.000,34.999 Z" class="cls-1"/>
</svg>
