<svg xmlns="http://www.w3.org/2000/svg" xmlns:xlink="http://www.w3.org/1999/xlink" preserveAspectRatio="xMidYMid" width="1600" height="1000" viewBox="0 0 1600 1000">
  <defs>
    <style>
      .cls-1 {
        fill: #fff;
        fill-rule: evenodd;
      }
    </style>
  </defs>
  <path d="M0.000,1000.000 L0.000,-0.000 L1600.000,-0.000 L1600.000,1000.000 L0.000,1000.000 ZM989.575,761.006 C993.496,760.355 1001.188,762.064 1007.164,760.027 C1011.655,758.497 1014.269,753.738 1017.915,751.221 C1018.311,745.821 1018.313,742.921 1017.915,737.522 C1014.850,734.528 1013.839,731.207 1009.119,729.693 C1002.200,725.456 985.885,730.021 978.827,730.672 C955.696,732.804 930.224,730.849 913.355,724.801 C867.812,708.474 839.218,674.844 822.475,629.885 C819.230,621.174 817.675,611.477 815.634,602.487 C814.366,596.907 817.138,588.976 814.657,584.874 C814.217,579.508 811.143,576.408 806.840,575.089 C804.581,573.373 801.139,573.058 797.067,573.132 C794.014,575.412 789.299,577.205 786.319,579.002 C779.459,605.675 789.445,635.959 799.022,655.327 C821.468,700.727 843.555,727.871 888.924,750.242 C896.104,753.783 902.202,753.404 910.423,756.114 C931.013,762.900 963.901,765.266 989.575,761.006 ZM615.307,634.778 C618.187,647.444 617.690,657.408 621.171,669.025 C635.083,715.441 654.760,747.947 679.804,782.534 C689.412,795.805 699.595,807.427 711.074,818.738 C714.544,822.158 720.437,829.525 729.641,826.567 C733.548,825.310 736.145,820.891 739.412,818.738 C739.908,816.658 740.286,815.200 741.366,813.847 C741.151,798.472 731.220,796.977 724.754,788.404 C716.810,777.869 706.890,768.824 699.348,758.071 C681.296,732.339 665.595,703.364 654.396,670.982 C650.095,658.550 650.196,647.390 646.579,633.800 C640.505,610.982 641.192,571.172 648.534,549.646 C671.596,482.030 752.513,417.473 847.881,448.860 C862.735,453.749 878.874,460.041 890.879,468.430 C915.003,485.288 932.952,508.523 945.602,536.926 C949.283,545.190 951.164,554.925 953.418,563.347 C954.744,568.296 953.050,575.066 955.373,579.002 C954.666,598.664 958.232,606.097 977.849,605.422 C981.566,601.886 986.783,600.097 988.598,594.659 C990.946,587.623 986.723,576.717 987.620,571.175 C990.447,553.725 975.881,523.166 969.053,510.507 C935.154,447.630 881.831,408.007 783.387,409.720 C778.381,412.878 769.111,411.002 762.865,412.655 C749.082,416.301 735.301,419.955 722.799,425.376 C678.252,444.696 640.461,481.520 623.126,528.119 C618.370,540.905 616.573,555.371 613.355,569.217 C608.958,588.128 611.593,618.425 615.307,634.778 ZM544.949,687.617 C549.371,703.200 550.202,727.183 567.425,729.693 C569.178,730.663 573.253,729.435 575.244,727.737 C587.004,719.309 578.084,705.094 574.267,694.468 C573.614,690.554 572.962,686.639 572.312,682.726 C560.639,644.028 553.537,576.576 566.448,532.034 C586.924,461.394 627.008,417.258 686.643,386.235 C695.407,381.677 703.635,380.550 713.028,376.450 C737.297,365.859 783.895,355.242 820.520,361.773 C842.255,365.648 869.254,368.671 889.901,376.450 C922.394,388.694 951.544,405.780 974.917,427.332 C1001.374,451.729 1030.808,501.763 1041.366,541.820 C1042.344,549.320 1043.321,556.823 1044.298,564.325 C1047.587,623.180 1030.455,642.514 986.643,654.348 C963.535,660.591 931.009,643.639 922.149,634.778 C915.374,628.002 907.724,616.202 904.559,606.401 C904.234,598.247 903.907,590.092 903.582,581.939 C900.359,567.668 898.828,554.872 892.833,543.776 C875.416,511.540 818.813,479.045 766.774,497.785 C746.731,505.004 727.462,519.134 716.938,535.948 C699.030,564.555 696.231,616.026 709.119,652.392 C713.729,665.396 715.088,676.928 720.845,688.596 C745.340,738.235 777.784,772.641 823.452,801.125 C841.527,812.400 860.119,820.078 882.083,828.524 C886.947,830.393 897.253,836.898 902.604,834.395 C917.715,833.562 920.025,812.174 909.446,805.040 C904.161,801.476 897.184,801.548 890.879,799.168 C876.265,793.653 857.080,785.757 843.972,777.641 C797.676,748.974 763.433,713.475 744.298,657.284 C734.944,629.813 724.985,586.873 740.389,558.453 C760.206,521.893 820.619,512.294 853.745,543.776 C877.947,566.779 866.022,594.492 879.151,624.993 C890.506,651.372 913.879,669.790 941.693,679.789 C984.345,695.124 1032.474,674.973 1053.094,652.392 C1088.065,614.090 1081.828,538.312 1058.956,491.915 C1055.051,483.991 1053.332,476.954 1049.185,469.408 C1005.196,389.413 920.913,328.399 798.044,327.524 C790.885,332.025 775.683,327.451 766.774,329.482 C744.133,334.643 722.298,337.607 702.278,345.137 C634.884,370.492 581.865,418.182 552.768,482.130 C544.079,501.223 540.484,523.661 535.178,545.733 C525.107,587.635 535.531,654.417 544.949,687.617 ZM1012.051,225.758 C1008.016,211.984 981.008,206.563 968.076,200.318 C925.774,179.886 855.970,163.542 793.158,165.091 C786.353,169.385 773.675,165.053 764.820,167.047 C747.530,170.944 729.201,170.057 712.051,174.876 C678.877,184.199 646.804,193.840 619.217,208.146 C612.318,211.723 605.527,213.398 599.672,217.931 C597.155,219.881 596.452,223.765 593.811,225.758 C593.701,236.232 595.951,238.589 599.672,244.350 C619.320,248.601 636.385,233.210 651.464,225.758 C667.534,217.820 687.661,213.402 705.210,208.146 C717.466,204.475 728.286,205.434 741.366,202.275 C812.594,185.075 895.337,205.421 947.557,225.758 C960.111,230.649 983.608,237.537 992.507,245.329 C1001.639,245.323 1003.942,242.797 1009.119,239.459 C1010.142,235.726 1013.713,231.432 1012.051,225.758 ZM1087.296,386.235 C1074.726,368.743 1060.432,352.226 1043.321,339.267 C1040.389,336.005 1037.457,332.742 1034.527,329.482 C1019.581,318.236 1004.070,305.372 987.620,296.211 C927.994,263.008 866.347,246.545 770.684,248.265 C756.678,249.896 742.669,251.527 728.663,253.157 C697.160,261.242 666.744,268.535 640.716,282.513 C617.468,294.996 594.953,309.246 574.267,324.589 C565.935,330.767 559.030,339.905 550.813,346.116 C543.523,351.627 534.766,358.452 529.314,365.686 C522.464,374.781 514.334,382.972 507.815,392.107 C504.927,396.156 503.828,401.761 499.999,404.827 C500.038,417.748 512.391,428.975 525.407,421.462 C530.882,418.300 538.783,403.582 542.997,397.977 C545.926,395.368 548.858,392.758 551.790,390.150 C561.200,377.671 573.571,364.266 585.992,354.923 C620.741,328.785 657.085,308.852 702.278,292.298 C723.882,284.385 748.274,285.158 772.636,279.578 C781.757,279.578 790.880,279.578 799.999,279.578 C825.460,279.583 848.666,281.332 868.403,286.426 C886.196,291.020 902.392,291.683 918.239,298.168 C955.401,313.376 990.035,332.170 1017.915,356.879 C1040.744,377.114 1058.411,402.418 1080.455,423.419 C1093.556,423.594 1093.409,418.985 1099.999,413.634 C1100.338,398.522 1094.112,395.722 1087.296,386.235 Z" class="cls-1"/>
</svg>
