<svg xmlns="http://www.w3.org/2000/svg" xmlns:xlink="http://www.w3.org/1999/xlink" preserveAspectRatio="xMidYMid" width="600" height="669" viewBox="0 0 600 669">
  <defs>
    <style>
      .cls-1 {
        fill: #000;
        fill-rule: evenodd;
      }
    </style>
  </defs>
  <path d="M586.511,316.800 C584.107,317.819 581.612,318.295 579.155,318.295 C571.791,318.295 564.791,313.969 561.736,306.768 C547.463,273.071 527.020,242.794 500.975,216.789 C474.938,190.791 444.613,170.372 410.849,156.113 C375.914,141.363 338.778,133.882 300.500,133.882 C262.223,133.882 225.095,141.363 190.151,156.120 C156.395,170.380 126.071,190.799 100.034,216.796 C73.981,242.801 53.538,273.079 39.265,306.776 C35.205,316.378 24.106,320.869 14.497,316.808 C4.881,312.747 0.382,301.673 4.450,292.078 C20.629,253.875 43.793,219.567 73.301,190.112 C102.801,160.657 137.154,137.528 175.424,121.366 C215.055,104.631 257.135,96.147 300.500,96.147 C343.866,96.147 385.946,104.631 425.569,121.359 C463.839,137.528 498.200,160.657 527.700,190.112 C557.200,219.567 580.365,253.875 596.551,292.078 C600.619,301.680 596.120,312.754 586.511,316.800 ZM567.800,168.945 C562.961,168.945 558.122,167.104 554.433,163.420 C486.603,95.701 396.425,58.404 300.500,58.404 C204.576,58.404 114.398,95.701 46.568,163.420 C39.196,170.787 27.221,170.787 19.842,163.420 C12.456,156.052 12.456,144.103 19.842,136.735 C94.802,61.884 194.483,20.660 300.500,20.660 C406.518,20.660 506.199,61.884 581.166,136.735 C588.552,144.103 588.552,156.052 581.166,163.420 C577.477,167.104 572.638,168.945 567.800,168.945 ZM300.500,171.633 C435.980,171.633 546.208,281.684 546.215,416.963 C546.215,468.995 503.825,511.321 451.712,511.321 C399.600,511.321 357.210,468.995 357.210,416.963 C357.210,385.742 331.777,360.348 300.508,360.348 C269.239,360.348 243.806,385.742 243.806,416.963 C243.806,444.998 249.295,472.181 260.136,497.763 C270.600,522.477 285.599,544.678 304.696,563.753 C323.801,582.829 346.036,597.805 370.788,608.253 C380.404,612.314 384.903,623.387 380.835,632.982 C377.781,640.183 370.780,644.508 363.417,644.508 C360.960,644.508 358.465,644.025 356.060,643.014 C326.802,630.657 300.523,612.970 277.963,590.438 C255.404,567.913 237.690,541.674 225.314,512.461 C212.492,482.206 205.998,450.071 205.998,416.963 C205.998,364.930 248.388,322.605 300.500,322.605 C352.613,322.605 395.003,364.930 395.003,416.963 C395.003,448.184 420.436,473.578 451.705,473.578 C482.974,473.578 508.407,448.184 508.407,416.963 C508.407,302.496 415.144,209.376 300.500,209.376 C185.857,209.376 92.594,302.496 92.594,416.963 C92.594,427.388 84.135,435.834 73.694,435.834 C63.253,435.834 54.793,427.388 54.793,416.963 C54.793,281.692 165.021,171.633 300.500,171.633 ZM300.500,247.119 C394.300,247.119 470.605,323.307 470.605,416.963 C470.605,427.388 462.146,435.834 451.705,435.834 C441.264,435.834 432.804,427.388 432.804,416.963 C432.804,344.126 373.449,284.862 300.500,284.862 C227.552,284.862 168.197,344.126 168.197,416.963 C168.197,492.570 197.689,563.655 251.238,617.129 C258.624,624.497 258.624,636.447 251.238,643.814 C247.549,647.498 242.710,649.340 237.872,649.340 C233.033,649.340 228.195,647.498 224.505,643.814 C163.819,583.221 130.395,502.655 130.395,416.963 C130.395,323.307 206.701,247.119 300.500,247.119 ZM281.600,416.963 C281.600,406.538 290.060,398.091 300.500,398.091 C310.941,398.091 319.401,406.538 319.401,416.963 C319.401,489.799 378.756,549.064 451.705,549.064 C462.146,549.064 470.605,557.511 470.605,567.935 C470.605,578.360 462.146,586.807 451.705,586.807 C357.905,586.807 281.600,510.619 281.600,416.963 Z" class="cls-1"/>
</svg>
