<svg xmlns="http://www.w3.org/2000/svg" xmlns:xlink="http://www.w3.org/1999/xlink" preserveAspectRatio="xMidYMid" width="800" height="892" viewBox="0 0 800 892">
  <defs>
    <style>
      .cls-1 {
        fill: #000;
        fill-rule: evenodd;
      }
    </style>
  </defs>
  <path d="M782.015,422.400 C778.809,423.759 775.483,424.393 772.207,424.393 C762.389,424.393 753.054,418.626 748.982,409.024 C729.950,364.095 702.693,323.725 667.966,289.051 C633.250,254.388 592.818,227.163 547.799,208.151 C501.218,188.484 451.704,178.510 400.667,178.510 C349.631,178.510 300.127,188.484 253.535,208.160 C208.526,227.173 168.095,254.398 133.378,289.062 C98.641,323.735 71.384,364.105 52.353,409.034 C46.940,421.837 32.141,427.825 19.330,422.410 C6.508,416.996 0.510,402.230 5.933,389.438 C27.505,338.500 58.391,292.755 97.734,253.483 C137.068,214.209 182.872,183.371 233.899,161.822 C286.739,139.508 342.846,128.196 400.667,128.196 C458.488,128.196 514.595,139.508 567.426,161.812 C618.452,183.371 664.267,214.209 703.600,253.483 C742.933,292.755 773.820,338.500 795.401,389.438 C800.825,402.240 794.827,417.005 782.015,422.400 ZM757.066,225.261 C750.615,225.261 744.163,222.805 739.244,217.893 C648.804,127.602 528.566,77.871 400.667,77.871 C272.768,77.871 152.531,127.602 62.090,217.893 C52.262,227.716 36.295,227.716 26.456,217.893 C16.608,208.070 16.608,192.137 26.456,182.314 C126.403,82.511 259.311,27.547 400.667,27.547 C542.023,27.547 674.932,82.511 774.888,182.314 C784.737,192.137 784.737,208.070 774.888,217.893 C769.969,222.805 763.518,225.261 757.066,225.261 ZM400.667,228.844 C581.306,228.844 728.277,375.579 728.287,555.951 C728.287,625.327 671.767,681.761 602.283,681.761 C532.800,681.761 476.279,625.327 476.279,555.951 C476.279,514.322 442.370,480.464 400.677,480.464 C358.985,480.464 325.075,514.322 325.075,555.951 C325.075,593.331 332.394,629.575 346.848,663.684 C360.800,696.636 380.799,726.237 406.262,751.671 C431.735,777.105 461.381,797.074 494.384,811.003 C507.206,816.418 513.204,831.183 507.780,843.975 C503.708,853.577 494.374,859.345 484.556,859.345 C481.280,859.345 477.953,858.701 474.747,857.352 C435.737,840.875 400.697,817.294 370.618,787.250 C340.538,757.217 316.920,722.232 300.419,683.281 C283.323,642.941 274.664,600.095 274.664,555.951 C274.664,486.574 331.184,430.140 400.667,430.140 C470.151,430.140 526.671,486.574 526.671,555.951 C526.671,597.579 560.581,631.437 602.273,631.437 C643.965,631.437 677.875,597.579 677.875,555.951 C677.875,403.328 553.525,279.168 400.667,279.168 C247.810,279.168 123.459,403.328 123.459,555.951 C123.459,569.850 112.179,581.113 98.258,581.113 C84.337,581.113 73.058,569.850 73.058,555.951 C73.058,375.589 220.028,228.844 400.667,228.844 ZM400.667,329.492 C525.734,329.492 627.474,431.076 627.474,555.951 C627.474,569.850 616.194,581.113 602.273,581.113 C588.352,581.113 577.072,569.850 577.072,555.951 C577.072,458.835 497.932,379.816 400.667,379.816 C303.403,379.816 224.262,458.835 224.262,555.951 C224.262,656.760 263.585,751.540 334.984,822.839 C344.832,832.663 344.832,848.596 334.984,858.419 C330.065,863.330 323.613,865.786 317.162,865.786 C310.711,865.786 304.259,863.330 299.340,858.419 C218.426,777.628 173.861,670.207 173.861,555.951 C173.861,431.076 275.601,329.492 400.667,329.492 ZM375.467,555.951 C375.467,542.051 386.746,530.788 400.667,530.788 C414.588,530.788 425.868,542.051 425.868,555.951 C425.868,653.066 505.009,732.085 602.273,732.085 C616.194,732.085 627.474,743.347 627.474,757.247 C627.474,771.147 616.194,782.409 602.273,782.409 C477.207,782.409 375.467,680.825 375.467,555.951 Z" class="cls-1"/>
</svg>
