<svg xmlns="http://www.w3.org/2000/svg" xmlns:xlink="http://www.w3.org/1999/xlink" preserveAspectRatio="xMidYMid" width="25" height="28" viewBox="0 0 25 28">
  <defs>
    <style>
      .cls-1 {
        fill: #171820;
        fill-rule: evenodd;
      }
    </style>
  </defs>
  <path d="M12.215,0.004 C14.832,-0.061 17.741,0.622 19.503,1.476 C20.042,1.737 21.167,1.964 21.335,2.539 C21.405,2.776 21.256,2.956 21.213,3.112 C20.998,3.251 20.902,3.357 20.521,3.357 C20.150,3.032 19.171,2.744 18.648,2.539 C16.472,1.689 13.025,0.839 10.057,1.558 C9.512,1.690 9.061,1.650 8.550,1.803 C7.819,2.023 6.981,2.207 6.311,2.539 C5.683,2.851 4.972,3.494 4.153,3.316 C3.998,3.075 3.904,2.977 3.909,2.539 C4.019,2.456 4.048,2.294 4.153,2.212 C4.397,2.023 4.680,1.953 4.967,1.803 C6.117,1.205 7.453,0.802 8.835,0.413 C9.550,0.211 10.314,0.248 11.034,0.086 C11.403,0.002 11.931,0.183 12.215,0.004 ZM11.278,3.480 C15.264,3.408 17.833,4.096 20.318,5.484 C21.003,5.866 21.649,6.404 22.272,6.874 C22.394,7.010 22.516,7.147 22.638,7.283 C23.351,7.825 23.947,8.515 24.471,9.246 C24.755,9.642 25.014,9.759 25.000,10.391 C24.725,10.615 24.731,10.807 24.186,10.800 C23.267,9.922 22.531,8.865 21.580,8.019 C20.418,6.986 18.975,6.201 17.427,5.565 C16.766,5.294 16.091,5.267 15.350,5.075 C14.528,4.862 13.561,4.789 12.500,4.788 C12.120,4.788 11.740,4.788 11.360,4.788 C10.345,5.022 9.328,4.989 8.428,5.320 C6.545,6.012 5.031,6.845 3.583,7.937 C3.065,8.328 2.550,8.888 2.158,9.410 C2.036,9.519 1.914,9.628 1.792,9.737 C1.616,9.971 1.287,10.586 1.059,10.718 C0.516,11.032 0.002,10.563 -0.000,10.023 C0.160,9.895 0.205,9.661 0.326,9.491 C0.597,9.110 0.936,8.767 1.221,8.387 C1.449,8.085 1.813,7.800 2.117,7.569 C2.460,7.310 2.747,6.928 3.094,6.670 C3.956,6.028 4.895,5.433 5.863,4.911 C6.948,4.327 8.215,4.022 9.528,3.684 C10.111,3.616 10.695,3.548 11.278,3.480 ZM12.419,6.792 C17.538,6.829 21.050,9.379 22.883,12.722 C23.056,13.037 23.127,13.331 23.290,13.663 C24.243,15.602 24.503,18.769 23.046,20.369 C22.186,21.313 20.181,22.155 18.404,21.514 C17.245,21.096 16.271,20.327 15.798,19.224 C15.251,17.950 15.748,16.791 14.739,15.830 C13.359,14.514 10.842,14.915 10.016,16.443 C9.374,17.631 9.789,19.426 10.179,20.574 C10.976,22.922 12.403,24.406 14.332,25.604 C14.878,25.943 15.678,26.273 16.287,26.503 C16.549,26.603 16.840,26.600 17.060,26.749 C17.501,27.047 17.405,27.941 16.775,27.976 C16.552,28.080 16.123,27.808 15.920,27.730 C15.005,27.377 14.230,27.056 13.477,26.585 C11.574,25.395 10.222,23.957 9.202,21.882 C8.962,21.395 8.905,20.913 8.713,20.369 C8.176,18.850 8.293,16.698 9.039,15.503 C9.478,14.800 10.280,14.210 11.116,13.908 C13.284,13.125 15.642,14.483 16.368,15.830 C16.618,16.294 16.682,16.829 16.816,17.425 C16.829,17.766 16.843,18.106 16.857,18.447 C16.989,18.857 17.307,19.350 17.590,19.633 C17.959,20.004 19.314,20.712 20.277,20.451 C22.102,19.957 22.816,19.149 22.679,16.689 C22.638,16.375 22.598,16.062 22.557,15.748 C22.117,14.074 20.891,11.983 19.788,10.964 C18.814,10.063 17.600,9.349 16.246,8.837 C15.386,8.512 14.261,8.386 13.355,8.224 C11.829,7.951 9.887,8.394 8.876,8.837 C8.485,9.008 8.142,9.055 7.777,9.246 C5.292,10.542 3.622,12.387 2.769,15.339 C2.231,17.201 2.527,20.020 3.013,21.637 C3.040,21.801 3.067,21.964 3.094,22.128 C3.254,22.572 3.625,23.166 3.135,23.518 C3.052,23.589 2.882,23.640 2.809,23.600 C2.092,23.495 2.057,22.493 1.873,21.841 C1.480,20.454 1.046,17.663 1.466,15.912 C1.687,14.989 1.837,14.052 2.199,13.254 C3.411,10.581 5.620,8.588 8.428,7.528 C9.262,7.214 10.172,7.090 11.116,6.874 C11.487,6.789 12.120,6.980 12.419,6.792 ZM11.808,10.227 C15.910,10.156 18.131,11.812 19.544,14.440 C19.828,14.969 20.435,16.246 20.318,16.975 C20.280,17.207 20.456,17.662 20.358,17.957 C20.283,18.184 20.065,18.259 19.910,18.406 C19.093,18.435 18.944,18.124 18.974,17.302 C18.877,17.138 18.948,16.855 18.892,16.648 C18.799,16.296 18.720,15.889 18.567,15.544 C18.040,14.357 17.292,13.386 16.287,12.681 C15.786,12.331 15.114,12.068 14.495,11.863 C10.521,10.551 7.150,13.249 6.189,16.075 C5.883,16.975 5.854,18.639 6.107,19.592 C6.258,20.160 6.254,20.627 6.433,21.146 C6.900,22.500 7.554,23.711 8.306,24.786 C8.620,25.235 9.034,25.613 9.365,26.054 C9.634,26.412 10.048,26.474 10.057,27.117 C10.012,27.173 9.996,27.234 9.975,27.321 C9.839,27.411 9.731,27.596 9.568,27.649 C9.185,27.772 8.939,27.464 8.795,27.321 C8.316,26.849 7.892,26.363 7.492,25.808 C6.448,24.363 5.628,23.004 5.049,21.064 C4.904,20.579 4.924,20.163 4.804,19.633 C4.650,18.950 4.540,17.684 4.723,16.893 C4.857,16.315 4.932,15.710 5.130,15.176 C5.853,13.228 7.427,11.689 9.283,10.882 C9.804,10.655 10.378,10.502 10.953,10.350 C11.213,10.281 11.599,10.359 11.808,10.227 ZM12.378,17.057 C12.547,17.054 12.691,17.067 12.785,17.139 C12.964,17.194 13.092,17.323 13.111,17.548 C13.214,17.719 13.099,18.050 13.151,18.284 C13.236,18.659 13.301,19.065 13.436,19.429 C14.134,21.308 15.326,22.713 17.223,23.396 C17.926,23.648 18.987,23.730 19.951,23.641 C20.245,23.614 20.925,23.423 21.213,23.600 C21.410,23.663 21.452,23.802 21.580,23.927 C21.596,24.153 21.596,24.274 21.580,24.500 C21.428,24.605 21.319,24.804 21.132,24.868 C20.883,24.953 20.562,24.881 20.399,24.909 C19.329,25.087 17.959,24.988 17.101,24.704 C16.758,24.591 16.504,24.607 16.205,24.459 C14.315,23.524 13.395,22.389 12.459,20.492 C12.060,19.683 11.644,18.417 11.930,17.302 C12.054,17.227 12.251,17.152 12.378,17.057 Z" class="cls-1"/>
</svg>
