<svg xmlns="http://www.w3.org/2000/svg" xmlns:xlink="http://www.w3.org/1999/xlink" preserveAspectRatio="xMidYMid" width="13" height="13" viewBox="0 0 13 13">
  <defs>
    <style>
      .cls-1 {
        fill: #fff;
        fill-rule: evenodd;
      }
    </style>
  </defs>
  <path d="M11.000,12.999 C10.567,12.932 2.000,12.999 2.000,12.999 C1.050,12.999 -0.000,11.948 -0.000,10.998 L-0.000,1.999 C-0.000,1.050 1.050,-0.001 2.000,-0.001 L11.000,-0.001 C11.950,-0.001 13.000,1.050 13.000,1.999 L13.000,10.998 C13.028,11.951 12.100,13.021 11.000,12.999 ZM6.620,3.620 C5.029,3.620 3.740,4.910 3.740,6.501 C3.740,8.091 5.029,9.381 6.620,9.381 C8.210,9.381 9.500,8.091 9.500,6.501 C9.500,4.910 8.210,3.620 6.620,3.620 ZM11.000,0.999 L9.000,0.999 L9.000,2.998 L11.000,2.998 L11.000,0.999 ZM12.000,4.999 L11.000,4.999 C11.073,5.308 11.000,5.668 11.000,5.999 C11.000,8.302 8.928,10.652 6.625,10.667 C4.336,10.682 2.961,9.405 2.961,7.020 C2.961,6.690 3.000,5.526 3.000,4.999 L1.000,4.999 L1.000,10.998 C1.000,11.292 1.706,11.999 2.000,11.999 L11.000,11.999 C11.294,11.999 12.000,11.292 12.000,10.998 L12.000,4.999 Z" class="cls-1"/>
</svg>
