<svg xmlns="http://www.w3.org/2000/svg" xmlns:xlink="http://www.w3.org/1999/xlink" preserveAspectRatio="xMidYMid" width="117" height="21" viewBox="0 0 117 21">
  <defs>
    <style>
      .cls-1 {
        fill: #fff;
        fill-rule: evenodd;
      }
    </style>
  </defs>
  <path d="M106.000,21.000 L98.000,8.000 L98.000,-0.000 L106.000,-0.000 C112.300,-0.000 117.000,3.790 117.000,10.000 C117.000,16.210 112.270,21.000 106.000,21.000 ZM106.346,4.906 L103.000,5.000 L103.000,16.000 L106.000,16.000 C109.510,16.000 112.000,12.970 112.000,10.000 C112.000,6.910 110.006,4.906 106.346,4.906 ZM98.000,21.000 L84.000,21.000 L84.000,-0.000 L89.000,5.000 L89.000,16.000 L98.000,16.000 L98.000,21.000 ZM71.257,20.776 C65.137,20.776 60.547,16.516 60.547,10.426 C60.547,4.336 65.137,0.077 71.257,0.077 C77.377,0.077 81.937,4.336 81.937,10.426 C81.937,16.516 77.377,20.776 71.257,20.776 ZM71.257,4.636 C67.927,4.636 65.797,7.156 65.797,10.426 C65.797,13.666 67.927,16.216 71.257,16.216 C74.557,16.216 76.687,13.666 76.687,10.426 C76.687,7.156 74.557,4.636 71.257,4.636 ZM54.000,21.000 L49.000,21.000 L49.027,4.906 L43.000,5.000 L43.000,-0.000 L60.000,-0.000 L60.000,5.000 L54.000,5.000 L54.000,21.000 ZM27.000,9.000 L27.000,21.000 L22.000,21.000 L22.000,-0.000 L27.000,-0.000 L36.000,12.000 L36.000,5.000 L41.000,-0.000 L41.000,21.000 L36.000,21.000 L27.000,9.000 ZM10.000,21.000 C3.550,21.000 -0.000,16.920 -0.000,12.000 L-0.000,-0.000 L5.000,-0.000 L5.000,12.000 C5.000,14.370 7.180,16.000 10.000,16.000 C12.760,16.000 15.000,14.370 15.000,12.000 L15.000,-0.000 L20.000,-0.000 L20.000,12.000 C20.000,16.980 16.390,21.000 10.000,21.000 Z" class="cls-1"/>
</svg>
