<svg xmlns="http://www.w3.org/2000/svg" xmlns:xlink="http://www.w3.org/1999/xlink" preserveAspectRatio="xMidYMid" width="439" height="1" viewBox="0 0 439 1">
  <defs>
    <style>
      .cls-1 {
        stroke: #fff;
        stroke-width: 2px;
        fill: none;
        fill-rule: evenodd;
      }
    </style>
  </defs>
  <path d="M438.000,1.000 L438.000,-0.000 L439.000,-0.000 L439.000,1.000 L438.000,1.000 ZM433.000,-0.000 L434.000,-0.000 L434.000,1.000 L433.000,1.000 L433.000,-0.000 ZM428.000,-0.000 L429.000,-0.000 L429.000,1.000 L428.000,1.000 L428.000,-0.000 ZM423.000,-0.000 L424.000,-0.000 L424.000,1.000 L423.000,1.000 L423.000,-0.000 ZM418.000,-0.000 L419.000,-0.000 L419.000,1.000 L418.000,1.000 L418.000,-0.000 ZM412.000,-0.000 L413.000,-0.000 L413.000,1.000 L412.000,1.000 L412.000,-0.000 ZM407.000,-0.000 L408.000,-0.000 L408.000,1.000 L407.000,1.000 L407.000,-0.000 ZM401.000,-0.000 L402.000,-0.000 L402.000,1.000 L401.000,1.000 L401.000,-0.000 ZM396.000,-0.000 L397.000,-0.000 L397.000,1.000 L396.000,1.000 L396.000,-0.000 ZM391.000,-0.000 L392.000,-0.000 L392.000,1.000 L391.000,1.000 L391.000,-0.000 ZM386.000,-0.000 L387.000,-0.000 L387.000,1.000 L386.000,1.000 L386.000,-0.000 ZM381.000,-0.000 L382.000,-0.000 L382.000,1.000 L381.000,1.000 L381.000,-0.000 ZM375.000,-0.000 L376.000,-0.000 L376.000,1.000 L375.000,1.000 L375.000,-0.000 ZM370.000,-0.000 L371.000,-0.000 L371.000,1.000 L370.000,1.000 L370.000,-0.000 ZM364.000,-0.000 L365.000,-0.000 L365.000,1.000 L364.000,1.000 L364.000,-0.000 ZM359.000,-0.000 L360.000,-0.000 L360.000,1.000 L359.000,1.000 L359.000,-0.000 ZM354.000,-0.000 L355.000,-0.000 L355.000,1.000 L354.000,1.000 L354.000,-0.000 ZM349.000,-0.000 L350.000,-0.000 L350.000,1.000 L349.000,1.000 L349.000,-0.000 ZM344.000,-0.000 L345.000,-0.000 L345.000,1.000 L344.000,1.000 L344.000,-0.000 ZM338.000,-0.000 L339.000,-0.000 L339.000,1.000 L338.000,1.000 L338.000,-0.000 ZM333.000,-0.000 L334.000,-0.000 L334.000,1.000 L333.000,1.000 L333.000,-0.000 ZM327.000,-0.000 L328.000,-0.000 L328.000,1.000 L327.000,1.000 L327.000,-0.000 ZM322.000,-0.000 L323.000,-0.000 L323.000,1.000 L322.000,1.000 L322.000,-0.000 ZM317.000,-0.000 L318.000,-0.000 L318.000,1.000 L317.000,1.000 L317.000,-0.000 ZM312.000,-0.000 L313.000,-0.000 L313.000,1.000 L312.000,1.000 L312.000,-0.000 ZM307.000,-0.000 L308.000,-0.000 L308.000,1.000 L307.000,1.000 L307.000,-0.000 ZM301.000,-0.000 L302.000,-0.000 L302.000,1.000 L301.000,1.000 L301.000,-0.000 ZM296.000,-0.000 L297.000,-0.000 L297.000,1.000 L296.000,1.000 L296.000,-0.000 ZM290.000,-0.000 L291.000,-0.000 L291.000,1.000 L290.000,1.000 L290.000,-0.000 ZM285.000,-0.000 L286.000,-0.000 L286.000,1.000 L285.000,1.000 L285.000,-0.000 ZM280.000,-0.000 L281.000,-0.000 L281.000,1.000 L280.000,1.000 L280.000,-0.000 ZM275.000,-0.000 L276.000,-0.000 L276.000,1.000 L275.000,1.000 L275.000,-0.000 ZM270.000,-0.000 L271.000,-0.000 L271.000,1.000 L270.000,1.000 L270.000,-0.000 ZM264.000,-0.000 L265.000,-0.000 L265.000,1.000 L264.000,1.000 L264.000,-0.000 ZM259.000,-0.000 L260.000,-0.000 L260.000,1.000 L259.000,1.000 L259.000,-0.000 ZM253.000,-0.000 L254.000,-0.000 L254.000,1.000 L253.000,1.000 L253.000,-0.000 ZM248.000,-0.000 L249.000,-0.000 L249.000,1.000 L248.000,1.000 L248.000,-0.000 ZM243.000,-0.000 L244.000,-0.000 L244.000,1.000 L243.000,1.000 L243.000,-0.000 ZM238.000,-0.000 L239.000,-0.000 L239.000,1.000 L238.000,1.000 L238.000,-0.000 ZM233.000,-0.000 L234.000,-0.000 L234.000,1.000 L233.000,1.000 L233.000,-0.000 ZM227.000,-0.000 L228.000,-0.000 L228.000,1.000 L227.000,1.000 L227.000,-0.000 ZM222.000,-0.000 L223.000,-0.000 L223.000,1.000 L222.000,1.000 L222.000,-0.000 ZM216.000,-0.000 L217.000,-0.000 L217.000,1.000 L216.000,1.000 L216.000,-0.000 ZM211.000,-0.000 L212.000,-0.000 L212.000,1.000 L211.000,1.000 L211.000,-0.000 ZM206.000,-0.000 L207.000,-0.000 L207.000,1.000 L206.000,1.000 L206.000,-0.000 ZM201.000,-0.000 L202.000,-0.000 L202.000,1.000 L201.000,1.000 L201.000,-0.000 ZM196.000,-0.000 L197.000,-0.000 L197.000,1.000 L196.000,1.000 L196.000,-0.000 ZM190.000,-0.000 L191.000,-0.000 L191.000,1.000 L190.000,1.000 L190.000,-0.000 ZM185.000,-0.000 L186.000,-0.000 L186.000,1.000 L185.000,1.000 L185.000,-0.000 ZM179.000,-0.000 L180.000,-0.000 L180.000,1.000 L179.000,1.000 L179.000,-0.000 ZM174.000,-0.000 L175.000,-0.000 L175.000,1.000 L174.000,1.000 L174.000,-0.000 ZM169.000,-0.000 L170.000,-0.000 L170.000,1.000 L169.000,1.000 L169.000,-0.000 ZM164.000,-0.000 L165.000,-0.000 L165.000,1.000 L164.000,1.000 L164.000,-0.000 ZM159.000,-0.000 L160.000,-0.000 L160.000,1.000 L159.000,1.000 L159.000,-0.000 ZM153.000,-0.000 L154.000,-0.000 L154.000,1.000 L153.000,1.000 L153.000,-0.000 ZM148.000,-0.000 L149.000,-0.000 L149.000,1.000 L148.000,1.000 L148.000,-0.000 ZM142.000,-0.000 L143.000,-0.000 L143.000,1.000 L142.000,1.000 L142.000,-0.000 ZM137.000,-0.000 L138.000,-0.000 L138.000,1.000 L137.000,1.000 L137.000,-0.000 ZM132.000,-0.000 L133.000,-0.000 L133.000,1.000 L132.000,1.000 L132.000,-0.000 ZM127.000,-0.000 L128.000,-0.000 L128.000,1.000 L127.000,1.000 L127.000,-0.000 ZM122.000,-0.000 L123.000,-0.000 L123.000,1.000 L122.000,1.000 L122.000,-0.000 ZM116.000,-0.000 L117.000,-0.000 L117.000,1.000 L116.000,1.000 L116.000,-0.000 ZM111.000,-0.000 L112.000,-0.000 L112.000,1.000 L111.000,1.000 L111.000,-0.000 ZM105.000,-0.000 L106.000,-0.000 L106.000,1.000 L105.000,1.000 L105.000,-0.000 ZM100.000,-0.000 L101.000,-0.000 L101.000,1.000 L100.000,1.000 L100.000,-0.000 ZM95.000,-0.000 L96.000,-0.000 L96.000,1.000 L95.000,1.000 L95.000,-0.000 ZM90.000,-0.000 L91.000,-0.000 L91.000,1.000 L90.000,1.000 L90.000,-0.000 ZM85.000,-0.000 L86.000,-0.000 L86.000,1.000 L85.000,1.000 L85.000,-0.000 ZM79.000,-0.000 L80.000,-0.000 L80.000,1.000 L79.000,1.000 L79.000,-0.000 ZM74.000,-0.000 L75.000,-0.000 L75.000,1.000 L74.000,1.000 L74.000,-0.000 ZM68.000,-0.000 L69.000,-0.000 L69.000,1.000 L68.000,1.000 L68.000,-0.000 ZM63.000,-0.000 L64.000,-0.000 L64.000,1.000 L63.000,1.000 L63.000,-0.000 ZM58.000,-0.000 L59.000,-0.000 L59.000,1.000 L58.000,1.000 L58.000,-0.000 ZM53.000,-0.000 L54.000,-0.000 L54.000,1.000 L53.000,1.000 L53.000,-0.000 ZM48.000,-0.000 L49.000,-0.000 L49.000,1.000 L48.000,1.000 L48.000,-0.000 ZM42.000,-0.000 L43.000,-0.000 L43.000,1.000 L42.000,1.000 L42.000,-0.000 ZM37.000,-0.000 L38.000,-0.000 L38.000,1.000 L37.000,1.000 L37.000,-0.000 ZM31.000,-0.000 L32.000,-0.000 L32.000,1.000 L31.000,1.000 L31.000,-0.000 ZM26.000,-0.000 L27.000,-0.000 L27.000,1.000 L26.000,1.000 L26.000,-0.000 ZM21.000,-0.000 L22.000,-0.000 L22.000,1.000 L21.000,1.000 L21.000,-0.000 ZM16.000,-0.000 L17.000,-0.000 L17.000,1.000 L16.000,1.000 L16.000,-0.000 ZM11.000,-0.000 L12.000,-0.000 L12.000,1.000 L11.000,1.000 L11.000,-0.000 ZM5.000,-0.000 L6.000,-0.000 L6.000,1.000 L5.000,1.000 L5.000,-0.000 ZM-0.000,-0.000 L1.000,-0.000 L1.000,1.000 L-0.000,1.000 L-0.000,-0.000 Z" class="cls-1"/>
</svg>
