<svg xmlns="http://www.w3.org/2000/svg" xmlns:xlink="http://www.w3.org/1999/xlink" preserveAspectRatio="xMidYMid" width="34" height="37" viewBox="0 0 34 37">
  <defs>
    <style>
      .cls-1 {
        fill: #fff;
        fill-rule: evenodd;
      }
    </style>
  </defs>
  <path d="M32.000,32.000 C29.204,36.093 27.276,38.844 25.000,36.000 C23.957,34.697 25.000,32.000 25.000,32.000 L28.000,19.000 L31.000,17.000 L31.000,14.000 L33.000,14.000 L33.000,17.000 L34.000,26.000 C34.000,26.000 33.718,29.486 32.000,32.000 ZM26.000,7.000 C19.514,2.977 14.500,3.000 8.000,7.000 C4.889,8.914 3.000,13.000 3.000,13.000 L1.000,13.000 C1.000,13.000 3.389,6.648 7.000,4.000 C14.030,-1.156 21.303,-0.178 27.000,4.000 C30.904,6.863 33.000,13.000 33.000,13.000 L31.000,13.000 C31.000,13.000 29.855,9.391 26.000,7.000 ZM1.000,14.000 L3.000,14.000 L3.000,17.000 L6.000,19.000 L9.000,32.000 C9.000,32.000 10.043,34.697 9.000,36.000 C6.724,38.844 4.796,36.093 2.000,32.000 C0.282,29.486 -0.000,26.000 -0.000,26.000 L1.000,17.000 L1.000,14.000 Z" class="cls-1"/>
</svg>
