<svg xmlns="http://www.w3.org/2000/svg" xmlns:xlink="http://www.w3.org/1999/xlink" preserveAspectRatio="xMidYMid" width="17" height="14" viewBox="0 0 17 14">
  <defs>
    <style>
      .cls-1 {
        fill: #fff;
        fill-rule: evenodd;
      }
    </style>
  </defs>
  <path d="M16.000,8.000 L16.000,6.000 L17.000,6.000 L17.000,8.000 L16.000,8.000 ZM14.000,4.000 L15.000,4.000 L15.000,10.000 L14.000,10.000 L14.000,4.000 ZM12.000,3.000 L13.000,3.000 L13.000,11.000 L12.000,11.000 L12.000,3.000 ZM10.000,1.000 L11.000,1.000 L11.000,13.000 L10.000,13.000 L10.000,1.000 ZM8.000,-0.000 L9.000,-0.000 L9.000,14.000 L8.000,14.000 L8.000,-0.000 ZM6.000,3.000 L7.000,3.000 L7.000,11.000 L6.000,11.000 L6.000,3.000 ZM4.000,1.000 L5.000,1.000 L5.000,13.000 L4.000,13.000 L4.000,1.000 ZM2.000,4.000 L3.000,4.000 L3.000,10.000 L2.000,10.000 L2.000,4.000 ZM-0.000,5.000 L1.000,5.000 L1.000,9.000 L-0.000,9.000 L-0.000,5.000 Z" class="cls-1"/>
</svg>
