<svg xmlns="http://www.w3.org/2000/svg" xmlns:xlink="http://www.w3.org/1999/xlink" preserveAspectRatio="xMidYMid" width="1600" height="346" viewBox="0 0 1600 346">
  <defs>
    <style>
      .cls-1 {
        fill: red;
        fill-rule: evenodd;
      }
    </style>
  </defs>
  <path d="M1519.964,346.013 C1467.915,346.013 1440.927,315.127 1440.927,261.076 L1440.927,3.853 L1493.940,3.853 L1493.940,264.454 C1493.940,288.584 1504.542,297.271 1521.410,297.271 C1538.278,297.271 1548.880,288.584 1548.880,264.454 L1548.880,3.853 L1599.001,3.853 L1599.001,261.076 C1599.001,315.127 1572.013,346.013 1519.964,346.013 ZM1328.641,345.530 C1276.592,345.530 1248.158,314.644 1248.158,260.593 L1248.158,84.929 C1248.158,30.878 1276.592,-0.008 1328.641,-0.008 C1380.690,-0.008 1409.124,30.878 1409.124,84.929 L1409.124,260.593 C1409.124,314.644 1380.690,345.530 1328.641,345.530 ZM1356.111,81.550 C1356.111,57.421 1345.508,48.251 1328.641,48.251 C1311.773,48.251 1301.171,57.421 1301.171,81.550 L1301.171,263.972 C1301.171,288.101 1311.773,297.271 1328.641,297.271 C1345.508,297.271 1356.111,288.101 1356.111,263.972 L1356.111,81.550 ZM1171.534,341.670 L1118.521,341.670 L1118.521,229.707 L1051.532,3.853 L1106.955,3.853 L1147.437,157.801 L1187.920,3.853 L1238.523,3.853 L1171.534,229.707 L1171.534,341.670 ZM915.638,341.670 L864.071,207.025 L847.685,237.911 L847.685,341.670 L794.672,341.670 L794.672,3.853 L847.685,3.853 L847.685,151.044 L917.083,3.853 L970.096,3.853 L896.360,154.422 L970.096,341.670 L915.638,341.670 ZM636.125,96.994 L636.125,341.670 L588.413,341.670 L588.413,3.853 L654.920,3.853 L709.379,206.060 L709.379,3.853 L756.608,3.853 L756.608,341.670 L702.150,341.670 L636.125,96.994 ZM501.669,280.380 L436.607,280.380 L427.451,341.670 L378.775,341.670 L432.752,3.853 L510.343,3.853 L564.320,341.670 L510.825,341.670 L501.669,280.380 ZM468.897,63.694 L443.355,234.533 L494.440,234.533 L468.897,63.694 ZM300.229,196.891 L239.987,196.891 L239.987,341.670 L186.975,341.670 L186.975,3.853 L239.987,3.853 L239.987,148.631 L300.229,148.631 L300.229,3.853 L354.206,3.853 L354.206,341.670 L300.229,341.670 L300.229,196.891 ZM108.427,341.670 L55.415,341.670 L55.415,52.112 L-0.008,52.112 L-0.008,3.853 L163.850,3.853 L163.850,52.112 L108.427,52.112 L108.427,341.670 Z" class="cls-1"/>
</svg>
