<svg xmlns="http://www.w3.org/2000/svg" xmlns:xlink="http://www.w3.org/1999/xlink" preserveAspectRatio="xMidYMid" width="15" height="11" viewBox="0 0 15 11">
  <defs>
    <style>
      .cls-1 {
        fill: #fff;
        fill-rule: evenodd;
      }
    </style>
  </defs>
  <path d="M14.724,1.372 C14.229,1.590 13.698,1.737 13.140,1.804 C13.709,1.465 14.146,0.926 14.352,0.286 C13.820,0.599 13.230,0.828 12.602,0.952 C12.099,0.417 11.383,0.084 10.590,0.084 C9.067,0.084 7.833,1.314 7.833,2.830 C7.833,3.044 7.857,3.254 7.905,3.456 C5.614,3.340 3.582,2.248 2.222,0.587 C1.985,0.992 1.849,1.464 1.849,1.967 C1.849,2.920 2.336,3.759 3.076,4.252 C2.624,4.238 2.199,4.114 1.827,3.907 C1.827,3.919 1.827,3.930 1.827,3.942 C1.827,5.273 2.777,6.382 4.038,6.634 C3.807,6.698 3.563,6.731 3.312,6.731 C3.134,6.731 2.961,6.714 2.793,6.681 C3.144,7.772 4.162,8.566 5.368,8.587 C4.425,9.323 3.236,9.762 1.945,9.762 C1.722,9.762 0.503,9.749 0.287,9.723 C1.507,10.503 3.956,10.957 5.513,10.957 C10.583,10.957 13.356,6.774 13.356,3.148 C13.356,3.029 13.353,2.909 13.348,2.793 C13.887,2.405 14.354,1.922 14.724,1.372 Z" class="cls-1"/>
</svg>
