<svg xmlns="http://www.w3.org/2000/svg" xmlns:xlink="http://www.w3.org/1999/xlink" preserveAspectRatio="xMidYMid" width="337" height="322" viewBox="0 0 337 322">
  <defs>
    <style>
      .cls-1 {
        fill: #040404;
        fill-rule: evenodd;
      }
    </style>
  </defs>
  <path d="M329.527,64.354 C324.517,51.669 316.993,40.530 306.981,30.972 C296.984,21.428 284.529,13.876 269.643,8.315 C254.789,2.766 237.737,-0.001 218.491,-0.001 L4.158,-0.001 L2.079,-0.001 L0.000,-0.001 L0.000,2.070 L0.000,4.141 L0.000,11.298 L0.000,13.163 L0.000,15.027 L1.861,15.222 L3.723,15.417 C10.135,16.090 14.377,17.197 15.287,18.104 C16.286,19.099 16.764,20.329 16.764,22.034 L16.764,103.985 L18.083,103.985 L23.608,104.011 L23.608,101.933 L25.687,101.933 L103.269,101.933 L105.348,101.933 L105.348,104.011 L105.348,108.470 L243.806,108.089 L246.949,105.394 L247.489,105.011 L297.035,105.011 L302.931,105.011 L298.338,108.707 L269.783,130.687 L269.783,138.894 L269.783,140.972 L267.705,140.972 L18.083,140.972 L16.764,140.972 L16.764,299.966 C16.764,301.671 16.286,302.901 15.287,303.896 C14.377,304.803 10.135,305.910 3.723,306.583 L1.861,306.778 L0.000,306.973 L0.000,308.837 L0.000,310.702 L0.000,317.859 L0.000,319.930 L0.000,322.001 L2.079,322.001 L4.158,322.001 L127.489,322.001 L129.568,322.001 L131.647,322.001 L131.647,319.930 L131.647,317.859 L131.647,310.702 L131.647,308.837 L131.647,306.973 L129.786,306.778 L127.924,306.583 C121.512,305.910 117.270,304.803 116.360,303.896 C115.361,302.901 114.883,301.671 114.883,299.966 L114.883,216.454 L114.883,206.891 L218.491,206.891 C237.737,206.891 254.789,204.125 269.643,198.576 C284.515,193.020 296.957,185.579 306.948,176.248 C316.977,166.882 324.511,155.831 329.527,143.133 C334.507,130.522 337.000,117.383 337.000,103.743 C337.000,90.104 334.507,76.965 329.527,64.354 ZM82.830,65.957 L84.332,65.957 L103.840,65.957 L104.919,65.957 L104.919,67.756 L104.919,76.149 L104.919,77.949 L102.840,77.949 L77.250,77.949 L82.830,65.957 ZM105.635,82.025 L105.635,97.529 L105.635,99.606 L103.556,99.606 L33.742,99.606 L30.007,99.606 L35.683,90.458 L36.293,89.475 L37.450,89.475 L48.925,89.475 L51.837,81.317 L52.334,79.947 L53.792,79.947 L103.556,79.947 L105.635,79.947 L105.635,82.025 Z" class="cls-1"/>
</svg>
