<svg xmlns="http://www.w3.org/2000/svg" xmlns:xlink="http://www.w3.org/1999/xlink" preserveAspectRatio="xMidYMid" width="75" height="75" viewBox="0 0 75 75">
  <defs>
    <style>
      .cls-1 {
        fill: #fff;
        fill-rule: evenodd;
      }
    </style>
  </defs>
  <path d="M37.500,75.000 C16.789,75.000 -0.000,58.211 -0.000,37.500 C-0.000,16.789 16.789,-0.000 37.500,-0.000 C58.211,-0.000 75.000,16.789 75.000,37.500 C75.000,58.211 58.211,75.000 37.500,75.000 ZM64.548,59.712 C63.964,60.422 63.347,61.103 62.710,61.765 C63.347,61.103 63.964,60.422 64.548,59.712 ZM72.036,43.170 C71.883,44.111 71.692,45.040 71.466,45.955 C71.693,45.040 71.883,44.111 72.036,43.170 ZM71.421,46.148 C71.189,47.059 70.915,47.953 70.613,48.834 C70.915,47.953 71.189,47.059 71.421,46.148 ZM70.482,49.221 C70.181,50.068 69.845,50.899 69.482,51.715 C69.845,50.899 70.181,50.069 70.482,49.221 ZM69.289,52.143 C68.916,52.950 68.516,53.742 68.085,54.515 C68.516,53.742 68.916,52.950 69.289,52.143 ZM67.872,54.886 C67.420,55.672 66.945,56.444 66.436,57.190 C66.945,56.443 67.420,55.672 67.872,54.886 ZM66.286,57.401 C65.763,58.157 65.213,58.893 64.633,59.604 C65.213,58.893 65.763,58.157 66.286,57.401 ZM62.448,62.040 C61.828,62.670 61.182,63.273 60.517,63.855 C61.182,63.273 61.828,62.670 62.448,62.040 ZM40.504,72.363 C39.513,72.447 38.513,72.500 37.500,72.500 C36.488,72.500 35.488,72.447 34.498,72.363 C35.488,72.447 36.488,72.500 37.500,72.500 C38.513,72.500 39.513,72.447 40.504,72.363 ZM60.168,64.157 C59.500,64.726 58.811,65.270 58.101,65.788 C58.811,65.270 59.500,64.726 60.168,64.157 ZM57.744,66.043 C57.012,66.563 56.262,67.061 55.490,67.524 C56.262,67.060 57.011,66.563 57.744,66.043 ZM55.232,67.672 C54.431,68.145 53.612,68.591 52.770,68.999 C53.612,68.591 54.431,68.145 55.232,67.672 ZM52.703,69.034 C51.859,69.441 50.992,69.808 50.112,70.148 C50.992,69.808 51.859,69.441 52.703,69.034 ZM49.774,70.282 C48.928,70.598 48.065,70.879 47.190,71.130 C48.065,70.879 48.928,70.598 49.774,70.282 ZM46.738,71.259 C45.868,71.496 44.985,71.701 44.089,71.872 C44.985,71.701 45.868,71.496 46.738,71.259 ZM43.629,71.954 C42.714,72.116 41.788,72.248 40.850,72.337 C41.789,72.248 42.714,72.116 43.629,71.954 ZM14.491,63.861 C13.825,63.280 13.178,62.676 12.559,62.047 C13.179,62.677 13.825,63.280 14.491,63.861 ZM34.151,72.337 C33.213,72.248 32.288,72.116 31.374,71.955 C32.288,72.116 33.213,72.248 34.151,72.337 ZM30.913,71.872 C30.018,71.702 29.135,71.497 28.265,71.260 C29.135,71.497 30.018,71.702 30.913,71.872 ZM27.814,71.131 C26.939,70.880 26.075,70.600 25.230,70.283 C26.076,70.600 26.939,70.880 27.814,71.131 ZM24.894,70.151 C24.013,69.810 23.146,69.444 22.301,69.036 C23.146,69.444 24.013,69.810 24.894,70.151 ZM22.242,69.006 C21.400,68.597 20.581,68.151 19.778,67.678 C20.581,68.151 21.400,68.597 22.242,69.006 ZM19.515,67.527 C18.744,67.064 17.996,66.568 17.265,66.048 C17.996,66.568 18.744,67.064 19.515,67.527 ZM16.905,65.793 C16.195,65.275 15.507,64.731 14.839,64.163 C15.507,64.731 16.195,65.275 16.905,65.793 ZM12.300,61.776 C11.661,61.113 11.043,60.430 10.457,59.719 C11.043,60.430 11.661,61.113 12.300,61.776 ZM10.383,59.624 C9.802,58.913 9.251,58.176 8.727,57.419 C9.251,58.176 9.802,58.913 10.383,59.624 ZM8.570,57.199 C8.062,56.454 7.587,55.685 7.137,54.900 C7.587,55.685 8.062,56.454 8.570,57.199 ZM6.921,54.526 C6.491,53.754 6.090,52.963 5.717,52.157 C6.090,52.963 6.491,53.754 6.921,54.526 ZM5.525,51.730 C5.161,50.914 4.824,50.082 4.522,49.234 C4.824,50.083 5.161,50.914 5.525,51.730 ZM4.394,48.856 C4.091,47.972 3.815,47.076 3.582,46.161 C3.815,47.076 4.091,47.972 4.394,48.856 ZM3.543,45.994 C3.315,45.077 3.125,44.146 2.970,43.203 C3.125,44.146 3.315,45.077 3.543,45.994 ZM37.500,2.500 C18.170,2.500 2.500,18.170 2.500,37.500 C2.500,39.385 2.653,41.233 2.940,43.037 C4.027,43.771 5.463,44.452 7.051,44.452 C7.051,44.452 7.048,44.459 7.043,44.471 C10.256,44.425 13.387,41.250 13.387,41.250 C13.387,41.250 15.578,44.452 18.984,44.452 C23.029,44.452 25.213,41.250 25.213,41.250 C25.213,41.250 27.941,44.452 31.386,44.452 C31.386,44.452 31.383,44.457 31.379,44.467 C35.022,44.452 37.591,41.250 37.591,41.250 C37.591,41.250 39.782,44.452 43.187,44.452 C47.233,44.452 49.416,41.250 49.416,41.250 C49.416,41.250 52.145,44.452 55.589,44.452 C55.589,44.452 55.586,44.459 55.581,44.471 C58.794,44.425 61.925,41.250 61.925,41.250 C61.925,41.250 64.116,44.452 67.522,44.452 C69.408,44.452 70.952,43.756 72.064,43.013 C72.348,41.217 72.500,39.376 72.500,37.500 C72.500,18.170 56.830,2.500 37.500,2.500 ZM38.333,34.520 L37.697,35.808 L37.060,34.517 C32.950,34.244 29.314,31.429 27.717,27.932 L26.625,28.175 L27.914,24.088 L30.810,27.247 L29.874,27.455 C31.153,29.852 33.702,30.987 36.623,31.204 L36.623,19.990 L33.781,19.990 C33.567,20.206 33.270,20.338 32.942,20.338 C32.290,20.338 31.758,19.809 31.758,19.155 C31.758,18.501 32.290,17.970 32.942,17.970 C33.270,17.970 33.567,18.104 33.781,18.320 L36.623,18.320 L36.623,17.051 C35.234,16.643 34.211,15.369 34.211,13.850 C34.211,12.004 35.714,10.500 37.562,10.500 C39.411,10.500 40.914,12.004 40.914,13.850 C40.914,15.270 40.022,16.480 38.772,16.967 L38.772,18.320 L41.342,18.320 C41.558,18.104 41.854,17.971 42.182,17.971 C42.834,17.971 43.367,18.502 43.367,19.155 C43.367,19.809 42.834,20.338 42.182,20.338 C41.854,20.338 41.558,20.206 41.342,19.991 L38.772,19.991 L38.772,31.211 C41.543,31.020 43.977,30.048 45.323,27.833 L44.384,27.560 L47.481,24.598 L48.499,28.763 L47.440,28.453 C45.718,31.689 42.241,34.258 38.333,34.520 ZM39.281,13.850 C39.281,12.902 38.510,12.133 37.563,12.133 C36.615,12.133 35.844,12.902 35.844,13.850 C35.844,14.797 36.615,15.568 37.563,15.568 C38.510,15.568 39.281,14.797 39.281,13.850 Z" class="cls-1"/>
</svg>
