<svg xmlns="http://www.w3.org/2000/svg" xmlns:xlink="http://www.w3.org/1999/xlink" preserveAspectRatio="xMidYMid" width="75" height="75" viewBox="0 0 75 75">
  <defs>
    <style>
      .cls-1 {
        fill: #fff;
        fill-rule: evenodd;
      }
    </style>
  </defs>
  <path d="M37.500,75.000 C16.789,75.000 -0.000,58.211 -0.000,37.500 C-0.000,16.789 16.789,-0.000 37.500,-0.000 C58.211,-0.000 75.000,16.789 75.000,37.500 C75.000,58.211 58.211,75.000 37.500,75.000 ZM37.500,2.500 C18.170,2.500 2.500,18.170 2.500,37.500 C2.500,56.830 18.170,72.500 37.500,72.500 C56.830,72.500 72.500,56.830 72.500,37.500 C72.500,18.170 56.830,2.500 37.500,2.500 ZM54.117,22.274 L55.947,24.203 C56.293,24.549 56.293,25.142 55.947,25.538 C55.749,25.736 55.502,25.835 55.304,25.835 C55.106,25.835 54.810,25.736 54.661,25.538 L52.732,23.609 L50.804,25.538 C50.606,25.736 50.359,25.835 50.161,25.835 C49.963,25.835 49.666,25.736 49.518,25.538 C49.172,25.192 49.172,24.598 49.518,24.203 L51.447,22.274 L49.518,20.345 C49.172,19.999 49.172,19.405 49.518,19.010 C49.864,18.663 50.458,18.663 50.853,19.010 L52.782,20.938 L54.711,19.010 C55.057,18.663 55.650,18.663 56.046,19.010 C56.392,19.356 56.392,19.949 56.046,20.345 L54.117,22.274 ZM36.857,25.488 C36.659,25.686 36.412,25.785 36.214,25.785 C36.016,25.785 35.720,25.686 35.571,25.488 L33.395,23.411 C33.049,23.065 33.049,22.472 33.395,22.076 C33.741,21.730 34.335,21.730 34.730,22.076 L36.165,23.510 L40.665,19.010 C41.011,18.663 41.605,18.663 42.001,19.010 C42.347,19.356 42.347,19.949 42.001,20.345 L36.857,25.488 ZM25.482,25.538 C25.284,25.736 25.037,25.835 24.839,25.835 C24.641,25.835 24.345,25.736 24.196,25.538 L22.169,23.609 L20.240,25.538 C20.042,25.736 19.795,25.835 19.597,25.835 C19.399,25.835 19.102,25.736 18.954,25.538 C18.608,25.192 18.608,24.598 18.954,24.203 L20.883,22.274 L18.954,20.345 C18.608,19.999 18.608,19.405 18.954,19.010 C19.300,18.663 19.894,18.663 20.289,19.010 L22.218,20.938 L24.147,19.010 C24.493,18.663 25.087,18.663 25.482,19.010 C25.828,19.356 25.828,19.949 25.482,20.345 L23.553,22.274 L25.482,24.203 C25.828,24.549 25.828,25.142 25.482,25.538 ZM22.218,27.664 C22.762,27.664 23.158,28.060 23.158,28.604 L23.158,33.995 L36.461,33.995 L36.461,28.604 C36.461,28.109 36.857,27.664 37.401,27.664 C37.945,27.664 38.341,28.060 38.341,28.604 L38.341,33.995 L51.842,33.995 L51.842,28.604 C51.842,28.109 52.238,27.664 52.782,27.664 C53.326,27.664 53.672,28.060 53.672,28.604 L53.672,34.934 C53.672,35.429 53.276,35.874 52.732,35.874 L37.401,35.874 L22.218,35.874 C21.724,35.874 21.278,35.478 21.278,34.934 L21.278,28.604 C21.278,28.109 21.674,27.664 22.218,27.664 ZM37.352,47.101 C36.857,47.051 36.412,46.655 36.412,46.161 C36.412,45.666 36.857,45.221 37.352,45.221 C37.846,45.221 38.291,45.617 38.291,46.161 C38.291,46.655 37.896,47.101 37.352,47.101 ZM36.412,38.644 C36.412,38.149 36.857,37.704 37.352,37.704 C37.846,37.704 38.291,38.100 38.291,38.644 C38.291,39.138 37.896,39.583 37.352,39.583 C36.857,39.583 36.412,39.188 36.412,38.644 ZM37.352,43.342 C36.857,43.342 36.412,42.897 36.412,42.402 C36.412,41.908 36.857,41.463 37.352,41.463 C37.846,41.463 38.291,41.908 38.291,42.402 C38.291,42.897 37.896,43.342 37.352,43.342 ZM37.352,49.029 C39.330,49.029 40.912,50.661 40.912,52.640 C40.912,54.618 39.330,56.250 37.352,56.250 C35.373,56.250 33.791,54.618 33.791,52.640 C33.791,50.661 35.373,49.029 37.352,49.029 ZM37.352,54.371 C38.291,54.371 39.083,53.579 39.083,52.640 C39.083,51.700 38.291,50.909 37.352,50.909 C36.412,50.909 35.621,51.700 35.621,52.640 C35.621,53.579 36.412,54.371 37.352,54.371 Z" class="cls-1"/>
</svg>
