<svg xmlns="http://www.w3.org/2000/svg" xmlns:xlink="http://www.w3.org/1999/xlink" preserveAspectRatio="xMidYMid" width="50" height="50" viewBox="0 0 50 50">
  <defs>
    <style>
      .cls-1 {
        fill: #fff;
        fill-rule: evenodd;
      }
    </style>
  </defs>
  <path d="M29.000,31.000 L29.000,29.000 L32.000,29.000 L32.000,30.000 L29.000,31.000 ZM29.000,24.000 L32.000,24.000 L32.000,27.000 L29.000,27.000 L29.000,24.000 ZM29.000,20.000 L32.000,21.000 L32.000,22.000 L29.000,22.000 L29.000,20.000 ZM24.000,29.000 L27.000,29.000 L27.000,31.000 L24.000,32.000 L24.000,29.000 ZM24.000,24.000 L27.000,24.000 L27.000,27.000 L24.000,27.000 L24.000,24.000 ZM24.000,19.000 L27.000,20.000 L27.000,22.000 L24.000,22.000 L24.000,19.000 ZM19.000,29.000 L22.000,29.000 L22.000,32.000 L19.000,33.000 L19.000,29.000 ZM19.000,24.000 L22.000,24.000 L22.000,27.000 L19.000,27.000 L19.000,24.000 ZM19.000,18.000 L22.000,19.000 L22.000,22.000 L19.000,22.000 L19.000,18.000 Z" class="cls-1"/>
</svg>
