<svg xmlns="http://www.w3.org/2000/svg" xmlns:xlink="http://www.w3.org/1999/xlink" preserveAspectRatio="xMidYMid" width="50" height="50" viewBox="0 0 50 50">
  <defs>
    <style>
      .cls-1 {
        fill: #1b1b1b;
        fill-rule: evenodd;
      }
    </style>
  </defs>
  <path d="M34.000,24.000 L42.995,16.000 L42.995,34.953 L34.000,24.000 ZM15.000,19.000 L42.926,15.000 L29.000,26.000 L15.000,19.000 ZM15.004,24.200 L7.000,25.000 L7.000,24.000 L15.004,23.200 L15.004,24.200 ZM17.000,23.000 L15.004,23.200 L15.004,20.000 L24.000,25.000 L15.004,34.953 L15.004,30.200 L17.000,30.000 L17.000,29.000 L15.004,29.200 L15.004,27.400 L19.000,27.000 L19.000,26.000 L15.004,26.400 L15.004,24.200 L17.000,24.000 L17.000,23.000 ZM7.000,31.000 L7.000,30.000 L15.004,29.200 L15.004,30.200 L7.000,31.000 ZM9.000,28.000 L9.000,27.000 L15.004,26.400 L15.004,27.400 L9.000,28.000 ZM29.015,27.843 L33.000,25.000 L41.957,34.963 L16.000,35.000 L25.000,26.000 L29.015,27.843 Z" class="cls-1"/>
</svg>
