<svg xmlns="http://www.w3.org/2000/svg" xmlns:xlink="http://www.w3.org/1999/xlink" preserveAspectRatio="xMidYMid" width="50" height="50" viewBox="0 0 50 50">
  <defs>
    <style>
      .cls-1 {
        fill: #fff;
        fill-rule: evenodd;
      }
    </style>
  </defs>
  <path d="M18.272,20.175 C18.869,19.576 19.367,19.396 19.907,19.665 C20.058,19.816 20.210,19.968 20.361,20.120 C20.960,20.718 22.095,22.144 22.707,22.001 C22.830,21.983 22.950,21.905 23.077,21.792 C23.114,21.582 23.217,21.467 23.182,21.259 C23.125,20.691 21.918,20.108 21.637,19.540 C21.495,19.253 21.512,18.957 21.617,18.650 C21.678,18.471 21.817,18.088 22.147,17.906 C22.480,17.722 22.999,17.700 23.318,17.859 C23.434,17.975 23.550,18.091 23.666,18.207 C24.180,18.721 24.764,19.520 25.315,19.393 C25.439,19.375 25.558,19.296 25.685,19.183 C25.723,18.974 25.826,18.858 25.790,18.650 C25.751,18.285 25.239,18.124 25.048,17.734 C24.826,17.283 24.939,16.294 25.757,16.008 C26.029,15.913 26.470,15.923 26.729,16.053 C27.727,17.052 28.726,18.051 29.725,19.049 C30.430,19.754 31.134,20.458 31.839,21.163 C32.244,21.569 32.720,21.958 32.958,22.398 C34.206,24.709 34.200,26.920 32.875,29.329 C32.438,30.126 31.316,31.196 30.557,31.648 C30.174,31.876 29.962,32.126 29.585,32.299 C27.802,33.114 26.735,32.931 25.000,33.000 C24.109,33.036 22.869,33.251 22.000,33.000 C21.342,32.810 20.451,32.267 19.817,31.633 C19.594,31.410 19.371,31.187 19.148,30.964 C18.927,30.562 18.809,30.154 18.752,29.755 C18.715,29.505 18.628,29.201 18.756,28.948 C18.961,29.153 19.166,29.359 19.371,29.564 C19.579,29.584 19.686,29.678 19.898,29.626 C20.021,29.608 20.141,29.530 20.268,29.416 C20.305,29.207 20.408,29.092 20.372,28.884 C20.337,28.517 19.696,28.034 19.363,27.700 C18.382,26.719 17.401,25.738 16.420,24.757 C16.262,24.438 16.281,23.919 16.467,23.586 C16.646,23.264 17.030,23.104 17.211,23.056 C17.512,22.976 17.817,22.934 18.101,23.076 C18.217,23.192 18.333,23.308 18.449,23.424 C18.963,23.937 19.547,24.737 20.098,24.610 C20.222,24.592 20.341,24.513 20.468,24.400 C20.506,24.191 20.609,24.075 20.573,23.867 C20.549,23.612 20.238,23.358 19.991,23.112 C19.403,22.523 18.814,21.934 18.226,21.346 C18.017,20.925 18.235,20.600 18.272,20.175 Z" class="cls-1"/>
</svg>
