<svg xmlns="http://www.w3.org/2000/svg" xmlns:xlink="http://www.w3.org/1999/xlink" preserveAspectRatio="xMidYMid" width="330" height="9" viewBox="0 0 330 9">
  <defs>
    <style>
      .cls-1 {
        fill: #282828;
        fill-rule: evenodd;
      }
    </style>
  </defs>
  <path d="M325.293,4.622 L325.293,4.028 L329.000,4.028 L329.000,6.744 C328.292,7.514 327.224,8.038 325.964,8.038 C323.721,8.038 321.909,6.406 321.909,4.004 C321.909,1.603 323.721,-0.018 325.964,-0.018 C327.283,-0.018 328.244,0.496 328.975,1.311 L328.459,1.673 C327.896,1.020 326.984,0.589 325.964,0.589 C324.081,0.589 322.629,1.976 322.629,4.004 C322.629,6.010 324.081,7.432 325.964,7.432 C327.031,7.432 327.872,6.919 328.315,6.487 L328.315,4.622 L325.293,4.622 ZM302.501,1.207 L302.501,7.887 L301.817,7.887 L301.817,0.111 L302.513,0.111 L307.527,6.697 L307.527,0.111 L308.211,0.111 L308.211,7.887 L307.539,7.887 L302.501,1.207 ZM287.138,0.111 L287.822,0.111 L287.822,7.887 L287.138,7.887 L287.138,0.111 ZM269.385,7.887 L266.830,7.887 L266.830,0.111 L269.385,0.111 C271.868,0.111 273.428,1.871 273.428,4.004 C273.428,6.161 271.868,7.887 269.385,7.887 ZM269.385,0.717 L267.513,0.717 L267.513,7.280 L269.385,7.280 C271.497,7.280 272.708,5.823 272.708,4.004 C272.708,2.186 271.508,0.717 269.385,0.717 ZM252.064,5.975 L247.828,5.975 L247.037,7.887 L246.245,7.887 L249.520,0.111 L250.372,0.111 L253.647,7.887 L252.855,7.887 L252.064,5.975 ZM249.940,0.822 L248.057,5.368 L251.835,5.368 L249.940,0.822 ZM229.942,8.026 C227.591,8.026 226.056,6.278 226.056,4.004 C226.056,1.732 227.591,-0.018 229.942,-0.018 C232.282,-0.018 233.830,1.732 233.830,4.004 C233.830,6.278 232.282,8.026 229.942,8.026 ZM229.942,0.589 C228.000,0.589 226.776,2.023 226.776,4.004 C226.776,5.963 228.000,7.420 229.942,7.420 C231.862,7.420 233.110,5.963 233.110,4.004 C233.110,2.023 231.862,0.589 229.942,0.589 ZM208.748,0.111 L209.432,0.111 L209.432,7.280 L213.307,7.280 L213.307,7.887 L208.748,7.887 L208.748,0.111 ZM177.145,8.026 C175.825,8.026 174.829,7.514 174.217,6.791 L174.661,6.289 C175.176,6.873 176.016,7.420 177.156,7.420 C178.799,7.420 179.267,6.534 179.267,5.869 C179.267,3.585 174.469,4.774 174.469,2.057 C174.469,0.787 175.644,-0.018 177.096,-0.018 C178.296,-0.018 179.183,0.391 179.807,1.079 L179.351,1.569 C178.776,0.892 177.960,0.589 177.061,0.589 C175.993,0.589 175.189,1.183 175.189,2.023 C175.189,4.017 179.987,2.920 179.987,5.823 C179.987,6.825 179.303,8.026 177.145,8.026 ZM159.982,0.111 L160.666,0.111 L160.666,7.887 L159.982,7.887 L159.982,0.111 ZM126.099,0.111 L131.173,0.111 L131.173,0.717 L126.783,0.717 L126.783,3.596 L131.089,3.596 L131.089,4.203 L126.783,4.203 L126.783,7.280 L131.173,7.280 L131.173,7.887 L126.099,7.887 L126.099,0.111 ZM110.062,7.887 L109.366,7.887 L109.366,0.717 L106.751,0.717 L106.751,0.111 L112.678,0.111 L112.678,0.717 L110.062,0.717 L110.062,7.887 ZM92.648,0.111 L93.332,0.111 L93.332,7.887 L92.648,7.887 L92.648,0.111 ZM76.155,8.026 C74.835,8.026 73.840,7.514 73.228,6.791 L73.672,6.289 C74.188,6.873 75.027,7.420 76.167,7.420 C77.810,7.420 78.278,6.534 78.278,5.869 C78.278,3.585 73.480,4.774 73.480,2.057 C73.480,0.787 74.655,-0.018 76.107,-0.018 C77.306,-0.018 78.194,0.391 78.818,1.079 L78.362,1.569 C77.787,0.892 76.970,0.589 76.071,0.589 C75.003,0.589 74.199,1.183 74.199,2.023 C74.199,4.017 78.998,2.920 78.998,5.823 C78.998,6.825 78.314,8.026 76.155,8.026 ZM39.788,0.111 L44.863,0.111 L44.863,0.717 L40.472,0.717 L40.472,3.596 L44.779,3.596 L44.779,4.203 L40.472,4.203 L40.472,7.280 L44.863,7.280 L44.863,7.887 L39.788,7.887 L39.788,0.111 ZM25.106,4.191 L20.032,4.191 L20.032,7.887 L19.348,7.887 L19.348,0.111 L20.032,0.111 L20.032,3.585 L25.106,3.585 L25.106,0.111 L25.802,0.111 L25.802,7.887 L25.106,7.887 L25.106,4.191 ZM3.311,7.887 L2.615,7.887 L2.615,0.717 L0.000,0.717 L0.000,0.111 L5.926,0.111 L5.926,0.717 L3.311,0.717 L3.311,7.887 Z" class="cls-1"/>
</svg>
