<svg xmlns="http://www.w3.org/2000/svg" xmlns:xlink="http://www.w3.org/1999/xlink" preserveAspectRatio="xMidYMid" width="51" height="63" viewBox="0 0 51 63">
  <defs>
    <style>
      .cls-1 {
        fill: #fff;
        fill-rule: evenodd;
      }
    </style>
  </defs>
  <path d="M51.250,31.000 C51.250,31.000 51.228,38.329 49.656,43.354 C48.640,46.599 47.219,50.061 44.416,53.829 C40.314,59.342 32.750,62.500 32.750,62.500 C32.750,62.500 39.148,57.548 38.553,52.652 C34.778,54.672 30.350,55.807 25.499,55.807 C10.812,55.807 -0.204,45.584 -0.204,30.968 C-0.204,30.961 -0.203,30.955 -0.203,30.948 L-0.250,31.000 C-0.250,31.000 -0.228,23.671 1.344,18.646 C2.360,15.401 3.781,11.939 6.584,8.171 C10.686,2.658 18.250,-0.500 18.250,-0.500 C18.250,-0.500 11.920,4.403 12.443,9.275 C16.225,7.260 20.655,6.129 25.499,6.129 C40.187,6.129 51.130,16.353 51.130,30.968 C51.130,31.027 51.122,31.082 51.122,31.141 L51.250,31.000 ZM25.499,17.073 C17.507,17.073 12.396,23.121 12.396,30.968 C12.396,38.744 17.507,44.864 25.499,44.864 C33.419,44.864 38.531,38.744 38.531,30.968 C38.531,23.121 33.419,17.073 25.499,17.073 Z" class="cls-1"/>
</svg>
