<svg xmlns="http://www.w3.org/2000/svg" xmlns:xlink="http://www.w3.org/1999/xlink" preserveAspectRatio="xMidYMid" width="50" height="50" viewBox="0 0 50 50">
  <defs>
    <style>
      .cls-1 {
        fill: #fff;
        fill-rule: evenodd;
      }
    </style>
  </defs>
  <path d="M29.649,33.898 C27.215,33.898 26.039,32.531 26.039,30.564 L26.039,25.754 L27.766,25.754 L27.766,30.504 C27.766,31.619 28.414,32.387 29.649,32.387 C30.885,32.387 31.520,31.619 31.520,30.504 L31.520,25.754 L33.259,25.754 L33.259,30.552 C33.259,32.543 32.084,33.898 29.649,33.898 ZM27.552,14.754 L33.212,14.754 L33.212,16.253 L29.255,16.253 L29.255,17.945 L33.128,17.945 L33.128,19.444 L29.255,19.444 L29.255,21.255 L33.212,21.255 L33.212,22.754 L27.552,22.754 L27.552,14.754 ZM24.248,17.153 L21.993,22.754 L21.249,22.754 L18.995,17.153 L18.995,22.754 L17.292,22.754 L17.292,14.754 L19.678,14.754 L21.621,19.588 L23.564,14.754 L25.963,14.754 L25.963,22.754 L24.248,22.754 L24.248,17.153 ZM22.749,30.780 L22.749,25.754 L24.452,25.754 L24.452,33.754 L22.809,33.754 L18.995,28.537 L18.995,33.754 L17.292,33.754 L17.292,25.754 L19.043,25.754 L22.749,30.780 Z" class="cls-1"/>
</svg>
