<svg xmlns="http://www.w3.org/2000/svg" xmlns:xlink="http://www.w3.org/1999/xlink" preserveAspectRatio="xMidYMid" width="453" height="50" viewBox="0 0 453 50">
  <defs>
    <style>
      .cls-1 {
        fill: #282828;
        fill-rule: evenodd;
      }
    </style>
  </defs>
  <path d="M439.606,11.614 L439.606,49.120 L427.219,49.120 L427.219,11.614 L413.752,11.614 L413.752,0.731 L453.000,0.731 L453.000,11.614 L439.606,11.614 ZM395.463,0.731 L407.849,0.731 L407.849,49.120 L395.463,49.120 L395.463,0.731 ZM375.521,42.156 L356.581,42.156 L354.205,49.120 L340.162,49.120 L358.237,0.731 L373.865,0.731 L391.940,49.120 L377.898,49.120 L375.521,42.156 ZM366.087,13.064 L359.966,31.274 L372.136,31.274 L366.087,13.064 ZM317.555,49.120 L310.282,18.796 L303.008,49.120 L289.901,49.120 L276.147,0.731 L290.045,0.731 L297.319,33.015 L305.528,0.731 L315.034,0.731 L323.244,33.015 L330.445,0.731 L344.416,0.731 L330.662,49.120 L317.555,49.120 ZM220.054,0.731 L255.269,0.731 L255.269,11.614 L232.440,11.614 L232.440,19.158 L254.765,19.158 L254.765,30.041 L232.440,30.041 L232.440,38.238 L255.269,38.238 L255.269,49.120 L220.054,49.120 L220.054,0.731 ZM194.277,49.991 C184.555,49.991 177.786,46.871 172.961,42.301 L179.514,32.580 C182.971,36.062 188.300,38.964 194.925,38.964 C199.102,38.964 201.694,37.513 201.694,35.119 C201.694,28.734 174.545,34.031 174.545,15.386 C174.545,7.261 181.314,0.006 193.629,0.006 C201.335,0.006 208.032,2.328 213.145,6.753 L206.375,16.112 C202.343,12.702 197.085,11.033 192.333,11.033 C188.732,11.033 187.148,12.267 187.148,14.370 C187.148,20.319 214.297,15.821 214.297,33.813 C214.297,43.534 207.167,49.991 194.277,49.991 ZM159.139,49.120 L156.762,42.156 L137.823,42.156 L135.446,49.120 L121.403,49.120 L139.479,0.731 L155.106,0.731 L173.182,49.120 L159.139,49.120 ZM147.329,13.064 L141.207,31.274 L153.378,31.274 L147.329,13.064 ZM84.104,0.731 L119.319,0.731 L119.319,11.614 L96.491,11.614 L96.491,19.158 L118.815,19.158 L118.815,30.041 L96.491,30.041 L96.491,38.238 L119.319,38.238 L119.319,49.120 L84.104,49.120 L84.104,0.731 ZM46.085,0.731 L58.471,0.731 L58.471,38.238 L77.771,38.238 L77.771,49.120 L46.085,49.120 L46.085,0.731 ZM24.053,32.870 L12.387,32.870 L12.387,49.120 L0.000,49.120 L0.000,0.731 L24.053,0.731 C34.855,0.731 40.760,8.059 40.760,16.837 C40.760,25.543 34.855,32.870 24.053,32.870 ZM22.181,11.614 L12.387,11.614 L12.387,21.988 L22.181,21.988 C25.493,21.988 28.158,20.102 28.158,16.837 C28.158,13.500 25.493,11.614 22.181,11.614 Z" class="cls-1"/>
</svg>
