<svg xmlns="http://www.w3.org/2000/svg" xmlns:xlink="http://www.w3.org/1999/xlink" preserveAspectRatio="xMidYMid" width="50" height="50" viewBox="0 0 50 50">
  <defs>
    <style>
      .cls-1 {
        fill: #fff;
        fill-rule: evenodd;
      }
    </style>
  </defs>
  <path d="M33.000,26.000 L33.000,24.000 L34.000,24.000 L34.000,26.000 L33.000,26.000 ZM31.000,22.000 L32.000,22.000 L32.000,28.000 L31.000,28.000 L31.000,22.000 ZM29.000,21.000 L30.000,21.000 L30.000,29.000 L29.000,29.000 L29.000,21.000 ZM27.000,19.000 L28.000,19.000 L28.000,31.000 L27.000,31.000 L27.000,19.000 ZM25.000,17.000 L26.000,17.000 L26.000,33.000 L25.000,33.000 L25.000,17.000 ZM23.000,21.000 L24.000,21.000 L24.000,29.000 L23.000,29.000 L23.000,21.000 ZM21.000,19.000 L22.000,19.000 L22.000,31.000 L21.000,31.000 L21.000,19.000 ZM19.000,22.000 L20.000,22.000 L20.000,28.000 L19.000,28.000 L19.000,22.000 ZM17.000,23.000 L18.000,23.000 L18.000,27.000 L17.000,27.000 L17.000,23.000 Z" class="cls-1"/>
</svg>
