<svg xmlns="http://www.w3.org/2000/svg" xmlns:xlink="http://www.w3.org/1999/xlink" preserveAspectRatio="xMidYMid" width="800" height="1000" viewBox="0 0 800 1000">
  <defs>
    <style>
      .cls-1 {
        fill: #140e10;
        fill-rule: evenodd;
      }
    </style>
  </defs>
  <path d="M667.981,330.047 C663.116,301.983 637.407,288.697 596.234,288.697 C547.630,288.697 526.929,309.398 526.929,334.598 C526.929,349.298 535.029,362.498 553.631,362.498 C568.632,362.498 580.033,353.198 580.033,339.098 C580.033,333.398 579.133,329.498 577.632,325.598 L568.632,325.598 C567.432,322.298 566.832,319.298 566.832,316.898 C566.832,307.297 571.932,294.397 589.633,294.397 C610.335,294.397 616.035,307.297 616.035,336.998 C616.035,378.998 598.034,403.898 559.331,439.299 L529.028,467.199 L529.028,502.000 L599.200,502.000 L400.000,1000.000 L0.000,1000.000 L0.000,-0.000 L800.000,-0.000 L667.981,330.047 ZM217.617,288.697 C165.113,288.697 127.010,318.398 127.010,396.698 C127.010,459.399 154.612,505.000 217.617,505.000 C269.821,505.000 308.224,475.599 308.224,396.698 C308.224,317.798 270.721,288.697 217.617,288.697 ZM416.827,288.697 C364.322,288.697 326.219,318.398 326.219,396.698 C326.219,459.399 353.821,505.000 416.827,505.000 C469.030,505.000 507.433,475.599 507.433,396.698 C507.433,317.798 469.931,288.697 416.827,288.697 ZM416.827,498.700 C387.724,498.700 387.724,475.599 387.724,412.299 L387.724,385.598 C387.724,320.198 388.024,294.998 416.827,294.998 C446.229,294.998 446.229,317.498 446.229,388.298 L446.229,414.699 C446.229,475.899 445.328,498.700 416.827,498.700 ZM217.617,498.700 C188.514,498.700 188.514,475.599 188.514,412.299 L188.514,385.598 C188.514,320.198 188.815,294.998 217.617,294.998 C247.019,294.998 247.019,317.498 247.019,388.298 L247.019,414.699 C247.019,475.899 246.119,498.700 217.617,498.700 ZM572.532,442.899 C606.512,418.391 629.690,402.028 644.781,388.048 L617.560,456.099 L554.230,456.099 L572.532,442.899 Z" class="cls-1"/>
</svg>
