<svg xmlns="http://www.w3.org/2000/svg" xmlns:xlink="http://www.w3.org/1999/xlink" preserveAspectRatio="xMidYMid" width="800" height="1000" viewBox="0 0 800 1000">
  <defs>
    <style>
      .cls-1 {
        fill: #140e10;
        fill-rule: evenodd;
      }
    </style>
  </defs>
  <path d="M668.404,328.989 C665.390,303.958 645.998,288.697 598.334,288.697 C552.131,288.697 529.028,309.398 529.028,334.598 C529.028,349.298 537.130,362.498 555.731,362.498 C570.733,362.498 582.133,353.198 582.133,339.098 C582.133,333.398 581.233,329.498 579.733,325.598 L571.032,325.598 C569.832,322.298 569.232,319.298 569.232,316.898 C569.232,307.297 574.033,294.097 590.234,294.097 C607.635,294.097 612.436,310.897 612.436,336.998 C612.436,376.898 604.634,385.598 569.532,389.198 L570.432,395.798 C582.433,394.599 586.933,393.999 596.534,391.898 C611.235,399.099 620.836,411.398 620.836,443.499 C620.836,445.031 620.821,446.526 620.799,448.003 L601.056,497.360 C597.932,498.437 594.352,498.999 590.234,498.999 C568.032,498.999 565.032,485.799 565.032,477.699 C565.032,474.099 565.632,471.099 566.832,467.799 L576.132,467.799 C577.632,463.899 578.533,459.999 578.533,454.299 C578.533,440.199 567.731,430.899 552.730,430.899 C534.129,430.899 525.429,444.099 525.429,459.699 C525.429,495.399 562.631,505.000 591.434,505.000 C593.684,505.000 595.881,504.945 598.054,504.866 L400.000,1000.000 L0.000,1000.000 L0.000,-0.000 L800.000,-0.000 L668.404,328.989 ZM217.617,288.697 C165.113,288.697 127.010,318.398 127.010,396.698 C127.010,459.399 154.612,505.000 217.617,505.000 C269.821,505.000 308.224,475.599 308.224,396.698 C308.224,317.798 270.721,288.697 217.617,288.697 ZM416.827,288.697 C364.322,288.697 326.219,318.398 326.219,396.698 C326.219,459.399 353.821,505.000 416.827,505.000 C469.030,505.000 507.433,475.599 507.433,396.698 C507.433,317.798 469.931,288.697 416.827,288.697 ZM416.827,498.700 C387.724,498.700 387.724,475.599 387.724,412.299 L387.724,385.598 C387.724,320.198 388.024,294.998 416.827,294.998 C446.229,294.998 446.229,317.498 446.229,388.298 L446.229,414.699 C446.229,475.899 445.328,498.700 416.827,498.700 ZM217.617,498.700 C188.514,498.700 188.514,475.599 188.514,412.299 L188.514,385.598 C188.514,320.198 188.815,294.998 217.617,294.998 C247.019,294.998 247.019,317.498 247.019,388.298 L247.019,414.699 C247.019,475.899 246.119,498.700 217.617,498.700 ZM606.735,386.498 C626.461,383.236 641.853,377.329 652.383,369.042 L642.412,393.970 C632.689,390.451 620.879,388.079 606.735,387.098 L606.735,386.498 Z" class="cls-1"/>
</svg>
