<svg xmlns="http://www.w3.org/2000/svg" xmlns:xlink="http://www.w3.org/1999/xlink" preserveAspectRatio="xMidYMid" width="800" height="1000" viewBox="0 0 800 1000">
  <defs>
    <style>
      .cls-1 {
        fill: #140e10;
        fill-rule: evenodd;
      }
    </style>
  </defs>
  <path d="M599.234,441.100 L527.528,441.100 L599.234,314.797 L599.234,441.100 ZM654.438,363.904 L654.438,291.998 L602.535,291.998 L517.928,442.600 L517.928,448.299 L599.234,448.299 L599.234,496.299 L571.032,496.299 L571.032,502.000 L599.200,502.000 L400.000,1000.000 L0.000,1000.000 L0.000,-0.000 L800.000,-0.000 L654.438,363.904 ZM217.617,288.697 C165.113,288.697 127.010,318.398 127.010,396.698 C127.010,459.398 154.612,505.000 217.617,505.000 C269.821,505.000 308.224,475.600 308.224,396.698 C308.224,317.798 270.721,288.697 217.617,288.697 ZM416.827,288.697 C364.322,288.697 326.219,318.398 326.219,396.698 C326.219,459.398 353.821,505.000 416.827,505.000 C469.030,505.000 507.433,475.600 507.433,396.698 C507.433,317.798 469.931,288.697 416.827,288.697 ZM416.827,498.699 C387.724,498.699 387.724,475.600 387.724,412.299 L387.724,385.598 C387.724,320.197 388.024,294.998 416.827,294.998 C446.229,294.998 446.229,317.498 446.229,388.299 L446.229,414.699 C446.229,475.899 445.328,498.699 416.827,498.699 ZM217.617,498.699 C188.514,498.699 188.514,475.600 188.514,412.299 L188.514,385.598 C188.514,320.197 188.815,294.998 217.617,294.998 C247.019,294.998 247.019,317.498 247.019,388.299 L247.019,414.699 C247.019,475.899 246.119,498.699 217.617,498.699 Z" class="cls-1"/>
</svg>
