<svg xmlns="http://www.w3.org/2000/svg" xmlns:xlink="http://www.w3.org/1999/xlink" preserveAspectRatio="xMidYMid" width="800" height="1000" viewBox="0 0 800 1000">
  <defs>
    <style>
      .cls-1 {
        fill: #140e10;
        fill-rule: evenodd;
      }
    </style>
  </defs>
  <path d="M645.434,386.415 C633.508,378.354 616.364,373.299 592.334,373.299 C574.632,373.299 558.731,377.799 545.230,384.998 L546.730,326.798 L612.136,343.898 C622.336,346.598 630.437,348.998 637.037,348.998 C648.738,348.998 654.139,338.798 658.939,289.898 L654.438,289.297 C652.039,298.297 649.338,301.898 642.438,301.898 C633.737,301.898 568.032,295.297 543.130,291.697 L538.330,295.297 L538.330,390.998 L543.430,393.398 C556.031,385.598 569.232,380.498 581.833,380.498 C605.835,380.498 608.835,396.099 608.835,433.599 C608.835,474.699 607.935,499.000 582.433,499.000 C564.131,499.000 559.931,487.600 559.931,479.500 C559.931,475.899 560.532,472.899 561.731,469.600 L571.632,469.600 C573.132,465.699 574.332,459.999 574.332,454.299 C574.332,438.999 563.532,430.898 548.530,430.898 C529.929,430.898 521.228,444.100 521.228,458.799 C521.228,495.699 559.331,505.000 583.333,505.000 C588.521,505.000 593.508,504.746 598.295,504.262 L400.000,1000.000 L0.000,1000.000 L0.000,-0.000 L800.000,-0.000 L645.434,386.415 ZM217.617,288.697 C165.113,288.697 127.010,318.398 127.010,396.698 C127.010,459.398 154.612,505.000 217.617,505.000 C269.821,505.000 308.224,475.600 308.224,396.698 C308.224,317.798 270.721,288.697 217.617,288.697 ZM416.827,288.697 C364.322,288.697 326.219,318.398 326.219,396.698 C326.219,459.398 353.821,505.000 416.827,505.000 C469.030,505.000 507.433,475.600 507.433,396.698 C507.433,317.798 469.931,288.697 416.827,288.697 ZM416.827,498.699 C387.724,498.699 387.724,475.600 387.724,412.299 L387.724,385.598 C387.724,320.197 388.024,294.998 416.827,294.998 C446.229,294.998 446.229,317.498 446.229,388.299 L446.229,414.699 C446.229,475.899 445.328,498.699 416.827,498.699 ZM217.617,498.699 C188.514,498.699 188.514,475.600 188.514,412.299 L188.514,385.598 C188.514,320.197 188.815,294.998 217.617,294.998 C247.019,294.998 247.019,317.498 247.019,388.299 L247.019,414.699 C247.019,475.899 246.119,498.699 217.617,498.699 Z" class="cls-1"/>
</svg>
