<svg xmlns="http://www.w3.org/2000/svg" xmlns:xlink="http://www.w3.org/1999/xlink" preserveAspectRatio="xMidYMid" width="800" height="1000" viewBox="0 0 800 1000">
  <defs>
    <style>
      .cls-1 {
        fill: #140e10;
        fill-rule: evenodd;
      }
    </style>
  </defs>
  <path d="M677.337,306.656 C667.084,295.641 649.254,288.697 623.836,288.697 C564.432,288.697 526.629,331.298 526.629,409.599 C526.629,470.796 553.006,499.645 598.275,504.313 L400.000,1000.000 L0.000,1000.000 L0.000,-0.000 L800.000,-0.000 L677.337,306.656 ZM217.617,288.697 C165.112,288.697 127.010,318.398 127.010,396.698 C127.010,459.399 154.612,505.000 217.617,505.000 C269.821,505.000 308.224,475.600 308.224,396.698 C308.224,317.798 270.721,288.697 217.617,288.697 ZM416.827,288.697 C364.322,288.697 326.219,318.398 326.219,396.698 C326.219,459.399 353.821,505.000 416.827,505.000 C469.030,505.000 507.434,475.600 507.434,396.698 C507.434,317.798 469.930,288.697 416.827,288.697 ZM416.827,498.700 C387.723,498.700 387.723,475.600 387.723,412.299 L387.723,385.599 C387.723,320.198 388.024,294.998 416.827,294.998 C446.229,294.998 446.229,317.498 446.229,388.299 L446.229,414.699 C446.229,475.899 445.329,498.700 416.827,498.700 ZM217.617,498.700 C188.514,498.700 188.514,475.600 188.514,412.299 L188.514,385.599 C188.514,320.198 188.815,294.998 217.617,294.998 C247.019,294.998 247.019,317.498 247.019,388.299 L247.019,414.699 C247.019,475.899 246.119,498.700 217.617,498.700 ZM586.333,435.099 C586.333,422.199 586.333,414.398 588.434,405.699 C592.334,390.999 601.634,378.398 615.436,378.398 C630.382,378.398 634.557,387.978 635.707,410.732 L601.192,497.021 C586.547,491.035 586.333,469.255 586.333,435.099 ZM585.733,392.799 C586.333,318.698 599.834,294.697 626.536,294.697 C643.338,294.697 648.438,302.798 648.438,313.598 C648.438,315.998 647.839,321.098 646.637,324.398 L637.037,324.398 C635.537,328.598 634.637,332.498 634.637,338.198 C634.637,350.739 643.422,359.477 655.497,361.257 L651.740,370.651 C645.908,369.217 639.668,368.498 633.137,368.498 C608.835,368.498 594.733,378.698 585.733,392.799 Z" class="cls-1"/>
</svg>
