<svg xmlns="http://www.w3.org/2000/svg" xmlns:xlink="http://www.w3.org/1999/xlink" preserveAspectRatio="xMidYMid" width="75" height="75" viewBox="0 0 75 75">
  <defs>
    <style>
      .cls-1 {
        fill: #fff;
        fill-rule: evenodd;
      }
    </style>
  </defs>
  <path d="M37.500,75.000 C16.789,75.000 -0.000,58.211 -0.000,37.500 C-0.000,16.789 16.789,-0.000 37.500,-0.000 C58.211,-0.000 75.000,16.789 75.000,37.500 C75.000,58.211 58.211,75.000 37.500,75.000 ZM37.500,2.500 C18.170,2.500 2.500,18.170 2.500,37.500 C2.500,56.830 18.170,72.500 37.500,72.500 C56.830,72.500 72.500,56.830 72.500,37.500 C72.500,18.170 56.830,2.500 37.500,2.500 ZM54.807,52.500 L19.652,52.500 C19.098,52.500 18.500,52.100 18.500,51.624 L18.500,51.000 L56.000,51.000 L56.000,51.624 C56.000,52.100 55.361,52.500 54.807,52.500 ZM54.986,50.500 L19.513,50.500 C18.954,50.500 18.500,50.052 18.500,49.500 L18.500,34.000 C18.500,33.448 18.954,33.000 19.513,33.000 L54.986,33.000 C55.546,33.000 56.000,33.448 56.000,34.000 L56.000,49.500 C56.000,50.052 55.546,50.500 54.986,50.500 ZM22.619,35.445 C22.619,35.112 22.308,34.843 21.924,34.843 L21.809,34.843 C21.425,34.843 21.114,35.112 21.114,35.445 L21.114,48.154 C21.114,48.486 21.425,48.756 21.809,48.756 L21.924,48.756 C22.308,48.756 22.619,48.486 22.619,48.154 L22.619,35.445 ZM30.642,35.445 C30.642,35.112 30.331,34.843 29.947,34.843 L29.832,34.843 C29.449,34.843 29.138,35.112 29.138,35.445 L29.138,48.154 C29.138,48.486 29.449,48.756 29.833,48.756 L29.948,48.756 C30.331,48.756 30.642,48.486 30.642,48.154 L30.642,35.445 ZM37.663,35.445 C37.663,35.112 37.352,34.843 36.968,34.843 L36.853,34.843 C36.469,34.843 36.158,35.112 36.158,35.445 L36.158,48.154 C36.158,48.486 36.469,48.756 36.853,48.756 L36.968,48.756 C37.352,48.756 37.663,48.486 37.663,48.154 L37.663,35.445 ZM45.185,35.445 C45.185,35.112 44.874,34.843 44.489,34.843 L44.375,34.843 C43.991,34.843 43.680,35.112 43.680,35.445 L43.680,48.154 C43.680,48.486 43.991,48.756 44.375,48.756 L44.490,48.756 C44.874,48.756 45.185,48.486 45.185,48.154 L45.185,35.445 ZM52.205,35.445 C52.205,35.112 51.894,34.843 51.510,34.843 L51.395,34.843 C51.012,34.843 50.701,35.112 50.701,35.445 L50.701,48.154 C50.701,48.486 51.012,48.756 51.396,48.756 L51.511,48.756 C51.894,48.756 52.205,48.486 52.205,48.154 L52.205,35.445 ZM50.062,27.934 L48.106,29.984 C47.897,30.193 47.515,30.193 47.253,29.971 C47.043,29.754 47.044,29.372 47.271,29.112 L48.223,28.161 L31.026,28.161 C30.697,28.138 30.423,27.864 30.423,27.558 C30.445,27.229 30.720,26.955 31.026,26.955 L47.728,26.955 L48.193,26.955 L47.254,26.015 C47.037,25.799 47.037,25.411 47.267,25.149 C47.470,24.946 47.858,24.946 48.120,25.176 L50.067,27.123 C50.192,27.248 50.263,27.407 50.263,27.526 C50.263,27.658 50.188,27.835 50.098,27.903 L50.062,27.934 ZM47.244,29.966 C47.247,29.968 47.250,29.969 47.253,29.971 C47.256,29.973 47.256,29.977 47.258,29.979 L47.244,29.966 ZM43.934,23.685 L27.232,23.685 L26.767,23.685 L27.707,24.625 C27.923,24.841 27.923,25.229 27.694,25.492 C27.490,25.694 27.102,25.694 26.840,25.464 L24.893,23.517 C24.768,23.392 24.698,23.233 24.698,23.114 C24.698,22.982 24.772,22.805 24.862,22.737 L24.898,22.706 L26.854,20.657 C27.064,20.447 27.445,20.447 27.707,20.669 C27.917,20.886 27.916,21.268 27.689,21.528 L26.737,22.480 L43.934,22.480 C44.263,22.502 44.537,22.776 44.537,23.082 C44.515,23.411 44.240,23.685 43.934,23.685 ZM27.716,20.674 C27.713,20.672 27.710,20.671 27.707,20.669 C27.705,20.667 27.704,20.663 27.702,20.661 L27.716,20.674 Z" class="cls-1"/>
</svg>
