<svg xmlns="http://www.w3.org/2000/svg" xmlns:xlink="http://www.w3.org/1999/xlink" preserveAspectRatio="xMidYMid" width="75" height="75" viewBox="0 0 75 75">
  <defs>
    <style>
      .cls-1 {
        fill: #fff;
        fill-rule: evenodd;
      }
    </style>
  </defs>
  <path d="M37.500,75.000 C16.789,75.000 -0.000,58.211 -0.000,37.500 C-0.000,16.789 16.789,-0.000 37.500,-0.000 C58.211,-0.000 75.000,16.789 75.000,37.500 C75.000,58.211 58.211,75.000 37.500,75.000 ZM37.500,2.500 C18.170,2.500 2.500,18.170 2.500,37.500 C2.500,56.830 18.170,72.500 37.500,72.500 C56.830,72.500 72.500,56.830 72.500,37.500 C72.500,18.170 56.830,2.500 37.500,2.500 ZM50.264,53.537 C50.264,54.586 49.411,55.441 48.363,55.444 L31.212,55.447 L31.211,55.447 C30.162,55.447 29.308,54.594 29.307,53.546 L29.306,49.609 C25.757,48.828 23.589,46.404 23.588,43.128 L23.587,42.175 L22.635,42.177 C21.059,42.177 19.778,40.896 19.777,39.322 C19.777,38.910 19.777,38.722 22.632,31.344 L22.631,30.748 C22.630,26.682 24.215,22.856 27.097,19.973 C29.977,17.090 33.802,15.501 37.867,15.500 C46.274,15.500 53.111,22.334 53.113,30.735 C53.115,33.944 52.129,37.003 50.259,39.604 L50.264,53.537 ZM51.132,30.734 C51.129,23.426 45.182,17.481 37.874,17.481 C34.333,17.482 31.006,18.864 28.499,21.372 C25.993,23.880 24.613,27.209 24.614,30.745 L24.615,31.527 C24.615,31.650 24.592,31.770 24.548,31.885 C23.891,33.580 21.914,38.687 21.760,39.346 C21.777,39.819 22.162,40.192 22.633,40.192 L24.578,40.192 L24.578,40.193 C24.841,40.193 25.093,40.298 25.279,40.483 C25.466,40.669 25.570,40.921 25.570,41.184 L25.570,43.129 C25.572,46.737 28.971,47.596 30.432,47.798 C30.922,47.865 31.288,48.284 31.288,48.778 L31.289,53.464 L48.281,53.459 L48.275,39.277 C48.275,39.063 48.345,38.853 48.475,38.681 C50.214,36.370 51.132,33.622 51.132,30.734 ZM41.864,33.875 C41.606,34.133 41.189,34.132 40.930,33.875 L38.162,31.107 L35.035,34.234 C34.777,34.493 34.359,34.493 34.101,34.234 L32.950,33.084 L30.183,35.852 C30.054,35.981 29.885,36.045 29.715,36.045 C29.546,36.045 29.377,35.981 29.248,35.852 C28.990,35.593 28.990,35.176 29.248,34.917 L32.483,31.682 C32.742,31.424 33.159,31.424 33.418,31.682 L34.568,32.833 L37.695,29.705 C37.954,29.447 38.371,29.448 38.630,29.705 L41.397,32.473 L45.692,28.178 C45.951,27.919 46.368,27.919 46.626,28.178 C46.884,28.436 46.884,28.854 46.626,29.112 L41.864,33.875 ZM43.264,27.390 L43.264,28.005 C43.264,28.370 42.968,28.666 42.603,28.666 C42.238,28.666 41.942,28.370 41.942,28.005 L41.942,27.390 C41.141,27.114 40.560,26.360 40.560,25.467 C40.560,24.341 41.476,23.424 42.603,23.424 C43.729,23.424 44.646,24.340 44.646,25.467 C44.646,26.360 44.065,27.113 43.264,27.390 ZM42.603,24.746 C42.205,24.746 41.882,25.069 41.882,25.467 C41.882,25.864 42.205,26.188 42.603,26.188 C43.001,26.188 43.324,25.864 43.324,25.467 C43.324,25.069 43.000,24.746 42.603,24.746 ZM35.423,29.888 L35.423,30.504 C35.423,30.868 35.127,31.165 34.762,31.165 C34.397,31.165 34.101,30.868 34.101,30.504 L34.101,29.888 C33.300,29.612 32.719,28.858 32.719,27.965 C32.719,26.839 33.635,25.922 34.762,25.922 C35.888,25.922 36.805,26.838 36.805,27.965 C36.805,28.859 36.224,29.612 35.423,29.888 ZM34.762,27.244 C34.364,27.244 34.041,27.567 34.041,27.965 C34.041,28.363 34.364,28.686 34.762,28.686 C35.160,28.686 35.483,28.362 35.483,27.965 C35.483,27.568 35.159,27.244 34.762,27.244 Z" class="cls-1"/>
</svg>
