<svg xmlns="http://www.w3.org/2000/svg" xmlns:xlink="http://www.w3.org/1999/xlink" preserveAspectRatio="xMidYMid" width="75" height="75" viewBox="0 0 75 75">
  <defs>
    <style>
      .cls-1 {
        fill: #fff;
        fill-rule: evenodd;
      }
    </style>
  </defs>
  <path d="M37.500,75.000 C16.789,75.000 -0.000,58.211 -0.000,37.500 C-0.000,16.789 16.789,-0.000 37.500,-0.000 C58.211,-0.000 75.000,16.789 75.000,37.500 C75.000,58.211 58.211,75.000 37.500,75.000 ZM37.141,19.891 L37.141,19.866 L36.835,19.866 L36.472,20.230 L36.144,21.410 L37.660,19.891 L37.141,19.891 ZM39.058,24.447 L37.507,26.002 L38.356,26.002 L38.749,25.608 L38.748,24.976 L39.058,24.447 ZM39.486,23.167 L39.301,22.502 L36.392,25.418 L36.392,25.849 C36.392,25.933 36.460,26.002 36.545,26.002 L36.658,26.002 L39.486,23.167 ZM39.116,21.836 L38.931,21.171 L35.927,24.181 L36.241,24.717 L39.116,21.836 ZM38.745,20.505 L38.568,19.866 L38.534,19.866 L35.815,22.590 L35.551,23.541 L35.612,23.645 L38.745,20.505 ZM38.286,2.520 L38.286,19.748 L38.657,19.748 L39.717,23.558 L38.867,25.004 L38.867,25.849 C38.867,25.999 38.746,26.120 38.596,26.120 L37.793,26.120 C37.810,26.203 37.866,26.319 38.015,26.467 C38.203,26.656 39.135,27.184 39.135,28.026 C39.135,28.868 38.494,29.481 37.499,29.481 C36.504,29.481 36.165,28.654 36.135,28.270 C36.113,27.974 36.061,27.730 36.032,27.538 C36.003,27.346 35.958,27.154 36.157,27.125 C36.356,27.095 36.547,27.295 36.658,27.634 C36.745,27.899 36.907,28.241 37.233,28.329 C37.483,28.396 37.933,28.366 37.992,27.893 C38.051,27.420 37.539,27.143 37.317,26.920 C37.106,26.709 37.119,26.278 37.132,26.120 L36.545,26.120 C36.395,26.120 36.273,25.998 36.273,25.849 L36.273,25.004 L35.424,23.558 L36.484,19.748 L37.141,19.748 L37.141,2.509 C17.977,2.703 2.500,18.290 2.500,37.500 C2.500,56.830 18.170,72.500 37.500,72.500 C56.830,72.500 72.500,56.830 72.500,37.500 C72.500,18.434 57.252,2.939 38.286,2.520 ZM54.025,51.094 L22.106,51.094 C22.060,51.094 21.969,51.048 21.969,50.956 L21.969,34.743 C21.969,34.697 22.015,34.605 22.106,34.605 L28.735,34.605 C28.780,34.605 28.780,34.605 28.825,34.559 L34.864,29.231 C34.896,29.199 35.496,28.684 35.860,28.370 C35.863,28.402 35.867,28.435 35.870,28.467 C35.892,28.752 36.026,29.093 36.251,29.359 C36.435,29.577 36.674,29.729 36.954,29.819 C36.908,29.821 36.863,29.829 36.817,29.829 C36.726,29.829 36.590,29.783 36.454,29.783 C36.408,29.783 36.363,29.783 36.317,29.829 L31.187,34.329 C31.050,34.421 31.141,34.605 31.277,34.605 L44.036,34.605 C44.172,34.605 44.263,34.421 44.081,34.375 L38.573,29.644 C39.015,29.392 39.303,28.973 39.376,28.457 L46.533,34.559 C46.533,34.605 46.579,34.605 46.624,34.605 L54.070,34.605 C54.116,34.605 54.207,34.697 54.161,34.789 L54.161,50.956 C54.161,51.002 54.116,51.094 54.025,51.094 ZM26.108,38.085 C26.108,37.580 25.818,37.166 25.464,37.166 C25.110,37.166 24.820,37.580 24.820,38.085 L24.820,47.960 C24.820,48.465 25.110,48.878 25.464,48.878 C25.818,48.878 26.108,48.465 26.108,47.960 L26.108,38.085 ZM32.418,38.129 C32.418,37.623 32.128,37.210 31.774,37.210 C31.420,37.210 31.130,37.623 31.130,38.129 L31.130,48.003 C31.130,48.508 31.420,48.922 31.774,48.922 C32.128,48.922 32.418,48.508 32.418,48.003 L32.418,38.129 ZM38.716,38.129 C38.716,37.623 38.426,37.210 38.072,37.210 C37.717,37.210 37.427,37.623 37.427,38.129 L37.427,48.003 C37.427,48.508 37.717,48.922 38.072,48.922 C38.426,48.922 38.716,48.508 38.716,48.003 L38.716,38.129 ZM45.300,38.129 C45.300,37.623 45.010,37.210 44.656,37.210 C44.301,37.210 44.011,37.623 44.011,38.129 L44.011,48.003 C44.011,48.508 44.301,48.922 44.656,48.922 C45.010,48.922 45.300,48.508 45.300,48.003 L45.300,38.129 ZM51.597,38.129 C51.597,37.623 51.307,37.210 50.953,37.210 C50.599,37.210 50.309,37.623 50.309,38.129 L50.309,48.003 C50.309,48.508 50.599,48.922 50.953,48.922 C51.307,48.922 51.597,48.508 51.597,48.003 L51.597,38.129 Z" class="cls-1"/>
</svg>
