<svg xmlns="http://www.w3.org/2000/svg" xmlns:xlink="http://www.w3.org/1999/xlink" preserveAspectRatio="xMidYMid" width="56" height="48" viewBox="0 0 56 48">
  <defs>
    <style>
      .cls-1 {
        fill: #fff;
        fill-rule: evenodd;
      }
    </style>
  </defs>
  <path d="M52.862,41.726 C51.098,41.726 49.716,40.340 49.716,38.565 C49.716,36.792 51.098,35.404 52.862,35.404 C54.623,35.404 56.005,36.792 56.005,38.565 C56.005,40.340 54.623,41.726 52.862,41.726 ZM52.862,35.818 C51.358,35.818 50.178,37.014 50.178,38.565 C50.178,40.117 51.358,41.313 52.862,41.313 C54.367,41.313 55.544,40.117 55.544,38.565 C55.544,37.014 54.367,35.818 52.862,35.818 ZM53.766,40.000 L52.853,38.624 L52.841,38.667 L51.674,38.667 L51.674,37.333 L52.253,37.333 L52.253,38.398 L52.807,38.398 C53.316,38.398 53.733,38.354 53.733,37.807 C53.733,37.557 53.617,37.425 53.456,37.352 C53.956,37.395 54.213,37.548 54.213,38.055 C54.213,38.572 53.922,38.664 53.370,38.733 L54.273,40.000 L53.766,40.000 ZM52.253,37.333 L52.253,37.269 L52.955,37.269 C53.129,37.269 53.311,37.286 53.456,37.352 C53.330,37.341 53.200,37.333 53.041,37.333 L52.253,37.333 ZM44.168,48.000 L3.511,48.000 C1.570,48.000 -0.007,46.448 -0.007,44.536 L-0.007,3.461 C-0.007,1.549 1.570,-0.000 3.511,-0.000 L44.168,-0.000 C46.113,-0.000 47.698,1.549 47.698,3.461 L47.698,44.536 C47.698,46.448 46.113,48.000 44.168,48.000 ZM6.619,41.333 L14.569,41.333 L14.569,17.333 L6.619,17.333 L6.619,41.333 ZM10.604,6.608 C8.332,6.608 6.500,8.458 6.500,10.736 C6.500,13.016 8.332,14.865 10.604,14.865 C12.868,14.865 14.705,13.016 14.705,10.736 C14.705,8.458 12.868,6.608 10.604,6.608 ZM41.073,28.338 C41.073,22.169 39.534,17.530 32.370,17.530 C28.928,17.530 26.405,18.667 25.462,21.333 L25.171,21.333 L25.171,17.333 L18.545,17.333 L18.545,41.333 L25.171,41.333 L25.171,29.572 C25.171,26.583 25.748,23.688 29.430,23.688 C33.061,23.688 33.122,27.106 33.122,29.762 L33.122,41.333 L41.073,41.333 L41.073,28.338 Z" class="cls-1"/>
</svg>
