<svg xmlns="http://www.w3.org/2000/svg" xmlns:xlink="http://www.w3.org/1999/xlink" preserveAspectRatio="xMidYMid" width="799" height="700" viewBox="0 0 799 700">
  <defs>
    <style>
      .cls-1 {
        fill: #000;
        fill-rule: evenodd;
      }
    </style>
  </defs>
  <path d="M412.119,700.000 L411.917,699.657 C536.890,473.663 673.764,226.146 798.821,0.000 L798.999,0.000 L412.119,700.000 ZM406.719,690.859 C529.913,468.084 665.469,222.958 788.765,0.000 L795.203,0.000 L408.440,693.773 L406.719,690.859 ZM365.250,620.668 L94.609,158.559 L66.943,115.749 L0.000,2.441 L3.305,2.454 C43.558,70.636 207.710,348.678 402.977,679.425 C523.989,460.602 657.678,218.856 778.708,0.000 L785.184,0.000 L403.221,684.939 L365.250,620.668 ZM400.508,646.007 L381.126,612.914 L342.361,546.727 L264.832,414.355 L109.773,149.610 L14.701,2.499 L762.123,5.436 L402.551,649.750 L400.508,646.007 ZM102.191,154.085 L4.201,2.458 L13.552,2.494 C57.434,76.824 215.492,344.549 402.722,661.687 C520.195,449.268 650.104,214.364 767.351,2.353 C407.455,2.375 103.426,2.393 14.636,2.399 L13.086,0.000 L775.168,0.000 L402.805,667.488 L102.191,154.085 Z" class="cls-1"/>
</svg>
