<svg xmlns="http://www.w3.org/2000/svg" xmlns:xlink="http://www.w3.org/1999/xlink" preserveAspectRatio="xMidYMid" width="18" height="15" viewBox="0 0 18 15">
  <defs>
    <style>
      .cls-1 {
        fill: #bc0707;
        fill-rule: evenodd;
      }
    </style>
  </defs>
  <path d="M14.969,13.935 L3.000,13.935 C1.895,13.935 1.000,13.041 1.000,11.935 L1.000,4.998 C1.000,3.894 1.895,2.998 3.000,2.998 L3.969,2.998 L3.969,2.967 C3.969,1.862 4.864,0.967 5.969,0.967 L11.969,0.967 C13.073,0.967 13.969,1.862 13.969,2.967 L13.969,2.998 L14.969,2.998 C16.073,2.998 16.969,3.894 16.969,4.998 L16.969,11.935 C16.969,13.041 16.073,13.935 14.969,13.935 ZM9.000,3.967 C6.773,3.967 4.969,5.771 4.969,7.998 C4.969,10.225 6.773,12.030 9.000,12.030 C11.226,12.030 13.031,10.225 13.031,7.998 C13.031,5.771 11.226,3.967 9.000,3.967 ZM9.000,9.936 C7.913,9.936 7.031,9.054 7.031,7.968 C7.031,6.880 7.913,5.998 9.000,5.998 C10.087,5.998 10.969,6.880 10.969,7.968 C10.969,9.054 10.087,9.936 9.000,9.936 Z" class="cls-1"/>
</svg>
